%TF.GenerationSoftware,KiCad,Pcbnew,9.0.6*%
%TF.CreationDate,2026-02-06T14:40:23-05:00*%
%TF.ProjectId,DQ PS2 Controller Adapter,44512050-5332-4204-936f-6e74726f6c6c,1.0*%
%TF.SameCoordinates,Original*%
%TF.FileFunction,Drillmap*%
%TF.FilePolarity,Positive*%
%FSLAX45Y45*%
G04 Gerber Fmt 4.5, Leading zero omitted, Abs format (unit mm)*
G04 Created by KiCad (PCBNEW 9.0.6) date 2026-02-06 14:40:23*
%MOMM*%
%LPD*%
G01*
G04 APERTURE LIST*
%ADD10C,0.100000*%
%ADD11C,0.200000*%
%ADD12C,0.110000*%
%ADD13C,0.220000*%
G04 APERTURE END LIST*
D10*
X17017000Y-10153959D02*
G75*
G02*
X16517000Y-10653960I-500000J-1D01*
G01*
X17017000Y-10153959D02*
X17017000Y-8763000D01*
X13617000Y-10653959D02*
G75*
G02*
X13117001Y-10153959I0J499999D01*
G01*
X13617000Y-10653959D02*
X16517000Y-10653959D01*
X13117000Y-8763000D02*
X13117000Y-10153959D01*
X17017000Y-8763000D02*
X13117000Y-8763000D01*
D11*
D10*
X14680000Y-9495000D02*
X14770000Y-9585000D01*
X14770000Y-9495000D02*
X14680000Y-9585000D01*
X14680000Y-9745000D02*
X14770000Y-9835000D01*
X14770000Y-9745000D02*
X14680000Y-9835000D01*
X14890000Y-9495000D02*
X14980000Y-9585000D01*
X14980000Y-9495000D02*
X14890000Y-9585000D01*
X14890000Y-9745000D02*
X14980000Y-9835000D01*
X14980000Y-9745000D02*
X14890000Y-9835000D01*
X15110000Y-9495000D02*
X15200000Y-9585000D01*
X15200000Y-9495000D02*
X15110000Y-9585000D01*
X15150000Y-9745000D02*
X15240000Y-9835000D01*
X15240000Y-9745000D02*
X15150000Y-9835000D01*
X15360000Y-9495000D02*
X15450000Y-9585000D01*
X15450000Y-9495000D02*
X15360000Y-9585000D01*
X15360000Y-9745000D02*
X15450000Y-9835000D01*
X15450000Y-9745000D02*
X15360000Y-9835000D01*
D12*
X13522000Y-8993000D02*
G75*
G02*
X13412000Y-8993000I-55000J0D01*
G01*
X13412000Y-8993000D02*
G75*
G02*
X13522000Y-8993000I55000J0D01*
G01*
X13922000Y-8993000D02*
G75*
G02*
X13812000Y-8993000I-55000J0D01*
G01*
X13812000Y-8993000D02*
G75*
G02*
X13922000Y-8993000I55000J0D01*
G01*
X14322000Y-8993000D02*
G75*
G02*
X14212000Y-8993000I-55000J0D01*
G01*
X14212000Y-8993000D02*
G75*
G02*
X14322000Y-8993000I55000J0D01*
G01*
X14722000Y-8993000D02*
G75*
G02*
X14612000Y-8993000I-55000J0D01*
G01*
X14612000Y-8993000D02*
G75*
G02*
X14722000Y-8993000I55000J0D01*
G01*
X15122000Y-8993000D02*
G75*
G02*
X15012000Y-8993000I-55000J0D01*
G01*
X15012000Y-8993000D02*
G75*
G02*
X15122000Y-8993000I55000J0D01*
G01*
X15522000Y-8993000D02*
G75*
G02*
X15412000Y-8993000I-55000J0D01*
G01*
X15412000Y-8993000D02*
G75*
G02*
X15522000Y-8993000I55000J0D01*
G01*
X15922000Y-8993000D02*
G75*
G02*
X15812000Y-8993000I-55000J0D01*
G01*
X15812000Y-8993000D02*
G75*
G02*
X15922000Y-8993000I55000J0D01*
G01*
X16322000Y-8993000D02*
G75*
G02*
X16212000Y-8993000I-55000J0D01*
G01*
X16212000Y-8993000D02*
G75*
G02*
X16322000Y-8993000I55000J0D01*
G01*
X16722000Y-8993000D02*
G75*
G02*
X16612000Y-8993000I-55000J0D01*
G01*
X16612000Y-8993000D02*
G75*
G02*
X16722000Y-8993000I55000J0D01*
G01*
D13*
X14390000Y-9980000D02*
X14390000Y-10200000D01*
X14280000Y-10090000D02*
X14500000Y-10090000D01*
X15065000Y-10061000D02*
X15065000Y-10281000D01*
X14955000Y-10171000D02*
X15175000Y-10171000D01*
X15740000Y-9980000D02*
X15740000Y-10200000D01*
X15630000Y-10090000D02*
X15850000Y-10090000D01*
D11*
X13372777Y-10970444D02*
X13372777Y-10770444D01*
X13372777Y-10770444D02*
X13420396Y-10770444D01*
X13420396Y-10770444D02*
X13448967Y-10779968D01*
X13448967Y-10779968D02*
X13468015Y-10799015D01*
X13468015Y-10799015D02*
X13477539Y-10818063D01*
X13477539Y-10818063D02*
X13487062Y-10856158D01*
X13487062Y-10856158D02*
X13487062Y-10884730D01*
X13487062Y-10884730D02*
X13477539Y-10922825D01*
X13477539Y-10922825D02*
X13468015Y-10941872D01*
X13468015Y-10941872D02*
X13448967Y-10960920D01*
X13448967Y-10960920D02*
X13420396Y-10970444D01*
X13420396Y-10970444D02*
X13372777Y-10970444D01*
X13572777Y-10970444D02*
X13572777Y-10837110D01*
X13572777Y-10875206D02*
X13582301Y-10856158D01*
X13582301Y-10856158D02*
X13591824Y-10846634D01*
X13591824Y-10846634D02*
X13610872Y-10837110D01*
X13610872Y-10837110D02*
X13629920Y-10837110D01*
X13696586Y-10970444D02*
X13696586Y-10837110D01*
X13696586Y-10770444D02*
X13687062Y-10779968D01*
X13687062Y-10779968D02*
X13696586Y-10789491D01*
X13696586Y-10789491D02*
X13706110Y-10779968D01*
X13706110Y-10779968D02*
X13696586Y-10770444D01*
X13696586Y-10770444D02*
X13696586Y-10789491D01*
X13820396Y-10970444D02*
X13801348Y-10960920D01*
X13801348Y-10960920D02*
X13791824Y-10941872D01*
X13791824Y-10941872D02*
X13791824Y-10770444D01*
X13925158Y-10970444D02*
X13906110Y-10960920D01*
X13906110Y-10960920D02*
X13896586Y-10941872D01*
X13896586Y-10941872D02*
X13896586Y-10770444D01*
X14153729Y-10970444D02*
X14153729Y-10770444D01*
X14153729Y-10770444D02*
X14220396Y-10913301D01*
X14220396Y-10913301D02*
X14287062Y-10770444D01*
X14287062Y-10770444D02*
X14287062Y-10970444D01*
X14468015Y-10970444D02*
X14468015Y-10865682D01*
X14468015Y-10865682D02*
X14458491Y-10846634D01*
X14458491Y-10846634D02*
X14439443Y-10837110D01*
X14439443Y-10837110D02*
X14401348Y-10837110D01*
X14401348Y-10837110D02*
X14382301Y-10846634D01*
X14468015Y-10960920D02*
X14448967Y-10970444D01*
X14448967Y-10970444D02*
X14401348Y-10970444D01*
X14401348Y-10970444D02*
X14382301Y-10960920D01*
X14382301Y-10960920D02*
X14372777Y-10941872D01*
X14372777Y-10941872D02*
X14372777Y-10922825D01*
X14372777Y-10922825D02*
X14382301Y-10903777D01*
X14382301Y-10903777D02*
X14401348Y-10894253D01*
X14401348Y-10894253D02*
X14448967Y-10894253D01*
X14448967Y-10894253D02*
X14468015Y-10884730D01*
X14563253Y-10837110D02*
X14563253Y-11037110D01*
X14563253Y-10846634D02*
X14582301Y-10837110D01*
X14582301Y-10837110D02*
X14620396Y-10837110D01*
X14620396Y-10837110D02*
X14639443Y-10846634D01*
X14639443Y-10846634D02*
X14648967Y-10856158D01*
X14648967Y-10856158D02*
X14658491Y-10875206D01*
X14658491Y-10875206D02*
X14658491Y-10932349D01*
X14658491Y-10932349D02*
X14648967Y-10951396D01*
X14648967Y-10951396D02*
X14639443Y-10960920D01*
X14639443Y-10960920D02*
X14620396Y-10970444D01*
X14620396Y-10970444D02*
X14582301Y-10970444D01*
X14582301Y-10970444D02*
X14563253Y-10960920D01*
X14744205Y-10951396D02*
X14753729Y-10960920D01*
X14753729Y-10960920D02*
X14744205Y-10970444D01*
X14744205Y-10970444D02*
X14734682Y-10960920D01*
X14734682Y-10960920D02*
X14744205Y-10951396D01*
X14744205Y-10951396D02*
X14744205Y-10970444D01*
X14744205Y-10846634D02*
X14753729Y-10856158D01*
X14753729Y-10856158D02*
X14744205Y-10865682D01*
X14744205Y-10865682D02*
X14734682Y-10856158D01*
X14734682Y-10856158D02*
X14744205Y-10846634D01*
X14744205Y-10846634D02*
X14744205Y-10865682D01*
D10*
X13022000Y-11253960D02*
X13112000Y-11343960D01*
X13112000Y-11253960D02*
X13022000Y-11343960D01*
D11*
X13410872Y-11190444D02*
X13429920Y-11190444D01*
X13429920Y-11190444D02*
X13448967Y-11199968D01*
X13448967Y-11199968D02*
X13458491Y-11209491D01*
X13458491Y-11209491D02*
X13468015Y-11228539D01*
X13468015Y-11228539D02*
X13477539Y-11266634D01*
X13477539Y-11266634D02*
X13477539Y-11314253D01*
X13477539Y-11314253D02*
X13468015Y-11352348D01*
X13468015Y-11352348D02*
X13458491Y-11371396D01*
X13458491Y-11371396D02*
X13448967Y-11380920D01*
X13448967Y-11380920D02*
X13429920Y-11390444D01*
X13429920Y-11390444D02*
X13410872Y-11390444D01*
X13410872Y-11390444D02*
X13391824Y-11380920D01*
X13391824Y-11380920D02*
X13382301Y-11371396D01*
X13382301Y-11371396D02*
X13372777Y-11352348D01*
X13372777Y-11352348D02*
X13363253Y-11314253D01*
X13363253Y-11314253D02*
X13363253Y-11266634D01*
X13363253Y-11266634D02*
X13372777Y-11228539D01*
X13372777Y-11228539D02*
X13382301Y-11209491D01*
X13382301Y-11209491D02*
X13391824Y-11199968D01*
X13391824Y-11199968D02*
X13410872Y-11190444D01*
X13563253Y-11371396D02*
X13572777Y-11380920D01*
X13572777Y-11380920D02*
X13563253Y-11390444D01*
X13563253Y-11390444D02*
X13553729Y-11380920D01*
X13553729Y-11380920D02*
X13563253Y-11371396D01*
X13563253Y-11371396D02*
X13563253Y-11390444D01*
X13668015Y-11390444D02*
X13706110Y-11390444D01*
X13706110Y-11390444D02*
X13725158Y-11380920D01*
X13725158Y-11380920D02*
X13734682Y-11371396D01*
X13734682Y-11371396D02*
X13753729Y-11342825D01*
X13753729Y-11342825D02*
X13763253Y-11304729D01*
X13763253Y-11304729D02*
X13763253Y-11228539D01*
X13763253Y-11228539D02*
X13753729Y-11209491D01*
X13753729Y-11209491D02*
X13744205Y-11199968D01*
X13744205Y-11199968D02*
X13725158Y-11190444D01*
X13725158Y-11190444D02*
X13687062Y-11190444D01*
X13687062Y-11190444D02*
X13668015Y-11199968D01*
X13668015Y-11199968D02*
X13658491Y-11209491D01*
X13658491Y-11209491D02*
X13648967Y-11228539D01*
X13648967Y-11228539D02*
X13648967Y-11276158D01*
X13648967Y-11276158D02*
X13658491Y-11295206D01*
X13658491Y-11295206D02*
X13668015Y-11304729D01*
X13668015Y-11304729D02*
X13687062Y-11314253D01*
X13687062Y-11314253D02*
X13725158Y-11314253D01*
X13725158Y-11314253D02*
X13744205Y-11304729D01*
X13744205Y-11304729D02*
X13753729Y-11295206D01*
X13753729Y-11295206D02*
X13763253Y-11276158D01*
X13887062Y-11190444D02*
X13906110Y-11190444D01*
X13906110Y-11190444D02*
X13925158Y-11199968D01*
X13925158Y-11199968D02*
X13934682Y-11209491D01*
X13934682Y-11209491D02*
X13944205Y-11228539D01*
X13944205Y-11228539D02*
X13953729Y-11266634D01*
X13953729Y-11266634D02*
X13953729Y-11314253D01*
X13953729Y-11314253D02*
X13944205Y-11352348D01*
X13944205Y-11352348D02*
X13934682Y-11371396D01*
X13934682Y-11371396D02*
X13925158Y-11380920D01*
X13925158Y-11380920D02*
X13906110Y-11390444D01*
X13906110Y-11390444D02*
X13887062Y-11390444D01*
X13887062Y-11390444D02*
X13868015Y-11380920D01*
X13868015Y-11380920D02*
X13858491Y-11371396D01*
X13858491Y-11371396D02*
X13848967Y-11352348D01*
X13848967Y-11352348D02*
X13839443Y-11314253D01*
X13839443Y-11314253D02*
X13839443Y-11266634D01*
X13839443Y-11266634D02*
X13848967Y-11228539D01*
X13848967Y-11228539D02*
X13858491Y-11209491D01*
X13858491Y-11209491D02*
X13868015Y-11199968D01*
X13868015Y-11199968D02*
X13887062Y-11190444D01*
X14077539Y-11190444D02*
X14096586Y-11190444D01*
X14096586Y-11190444D02*
X14115634Y-11199968D01*
X14115634Y-11199968D02*
X14125158Y-11209491D01*
X14125158Y-11209491D02*
X14134682Y-11228539D01*
X14134682Y-11228539D02*
X14144205Y-11266634D01*
X14144205Y-11266634D02*
X14144205Y-11314253D01*
X14144205Y-11314253D02*
X14134682Y-11352348D01*
X14134682Y-11352348D02*
X14125158Y-11371396D01*
X14125158Y-11371396D02*
X14115634Y-11380920D01*
X14115634Y-11380920D02*
X14096586Y-11390444D01*
X14096586Y-11390444D02*
X14077539Y-11390444D01*
X14077539Y-11390444D02*
X14058491Y-11380920D01*
X14058491Y-11380920D02*
X14048967Y-11371396D01*
X14048967Y-11371396D02*
X14039443Y-11352348D01*
X14039443Y-11352348D02*
X14029920Y-11314253D01*
X14029920Y-11314253D02*
X14029920Y-11266634D01*
X14029920Y-11266634D02*
X14039443Y-11228539D01*
X14039443Y-11228539D02*
X14048967Y-11209491D01*
X14048967Y-11209491D02*
X14058491Y-11199968D01*
X14058491Y-11199968D02*
X14077539Y-11190444D01*
X14229920Y-11390444D02*
X14229920Y-11257110D01*
X14229920Y-11276158D02*
X14239443Y-11266634D01*
X14239443Y-11266634D02*
X14258491Y-11257110D01*
X14258491Y-11257110D02*
X14287063Y-11257110D01*
X14287063Y-11257110D02*
X14306110Y-11266634D01*
X14306110Y-11266634D02*
X14315634Y-11285682D01*
X14315634Y-11285682D02*
X14315634Y-11390444D01*
X14315634Y-11285682D02*
X14325158Y-11266634D01*
X14325158Y-11266634D02*
X14344205Y-11257110D01*
X14344205Y-11257110D02*
X14372777Y-11257110D01*
X14372777Y-11257110D02*
X14391824Y-11266634D01*
X14391824Y-11266634D02*
X14401348Y-11285682D01*
X14401348Y-11285682D02*
X14401348Y-11390444D01*
X14496586Y-11390444D02*
X14496586Y-11257110D01*
X14496586Y-11276158D02*
X14506110Y-11266634D01*
X14506110Y-11266634D02*
X14525158Y-11257110D01*
X14525158Y-11257110D02*
X14553729Y-11257110D01*
X14553729Y-11257110D02*
X14572777Y-11266634D01*
X14572777Y-11266634D02*
X14582301Y-11285682D01*
X14582301Y-11285682D02*
X14582301Y-11390444D01*
X14582301Y-11285682D02*
X14591824Y-11266634D01*
X14591824Y-11266634D02*
X14610872Y-11257110D01*
X14610872Y-11257110D02*
X14639443Y-11257110D01*
X14639443Y-11257110D02*
X14658491Y-11266634D01*
X14658491Y-11266634D02*
X14668015Y-11285682D01*
X14668015Y-11285682D02*
X14668015Y-11390444D01*
X15058491Y-11180920D02*
X14887063Y-11438063D01*
X15315634Y-11190444D02*
X15334682Y-11190444D01*
X15334682Y-11190444D02*
X15353729Y-11199968D01*
X15353729Y-11199968D02*
X15363253Y-11209491D01*
X15363253Y-11209491D02*
X15372777Y-11228539D01*
X15372777Y-11228539D02*
X15382301Y-11266634D01*
X15382301Y-11266634D02*
X15382301Y-11314253D01*
X15382301Y-11314253D02*
X15372777Y-11352348D01*
X15372777Y-11352348D02*
X15363253Y-11371396D01*
X15363253Y-11371396D02*
X15353729Y-11380920D01*
X15353729Y-11380920D02*
X15334682Y-11390444D01*
X15334682Y-11390444D02*
X15315634Y-11390444D01*
X15315634Y-11390444D02*
X15296586Y-11380920D01*
X15296586Y-11380920D02*
X15287063Y-11371396D01*
X15287063Y-11371396D02*
X15277539Y-11352348D01*
X15277539Y-11352348D02*
X15268015Y-11314253D01*
X15268015Y-11314253D02*
X15268015Y-11266634D01*
X15268015Y-11266634D02*
X15277539Y-11228539D01*
X15277539Y-11228539D02*
X15287063Y-11209491D01*
X15287063Y-11209491D02*
X15296586Y-11199968D01*
X15296586Y-11199968D02*
X15315634Y-11190444D01*
X15468015Y-11371396D02*
X15477539Y-11380920D01*
X15477539Y-11380920D02*
X15468015Y-11390444D01*
X15468015Y-11390444D02*
X15458491Y-11380920D01*
X15458491Y-11380920D02*
X15468015Y-11371396D01*
X15468015Y-11371396D02*
X15468015Y-11390444D01*
X15601348Y-11190444D02*
X15620396Y-11190444D01*
X15620396Y-11190444D02*
X15639444Y-11199968D01*
X15639444Y-11199968D02*
X15648967Y-11209491D01*
X15648967Y-11209491D02*
X15658491Y-11228539D01*
X15658491Y-11228539D02*
X15668015Y-11266634D01*
X15668015Y-11266634D02*
X15668015Y-11314253D01*
X15668015Y-11314253D02*
X15658491Y-11352348D01*
X15658491Y-11352348D02*
X15648967Y-11371396D01*
X15648967Y-11371396D02*
X15639444Y-11380920D01*
X15639444Y-11380920D02*
X15620396Y-11390444D01*
X15620396Y-11390444D02*
X15601348Y-11390444D01*
X15601348Y-11390444D02*
X15582301Y-11380920D01*
X15582301Y-11380920D02*
X15572777Y-11371396D01*
X15572777Y-11371396D02*
X15563253Y-11352348D01*
X15563253Y-11352348D02*
X15553729Y-11314253D01*
X15553729Y-11314253D02*
X15553729Y-11266634D01*
X15553729Y-11266634D02*
X15563253Y-11228539D01*
X15563253Y-11228539D02*
X15572777Y-11209491D01*
X15572777Y-11209491D02*
X15582301Y-11199968D01*
X15582301Y-11199968D02*
X15601348Y-11190444D01*
X15734682Y-11190444D02*
X15858491Y-11190444D01*
X15858491Y-11190444D02*
X15791825Y-11266634D01*
X15791825Y-11266634D02*
X15820396Y-11266634D01*
X15820396Y-11266634D02*
X15839444Y-11276158D01*
X15839444Y-11276158D02*
X15848967Y-11285682D01*
X15848967Y-11285682D02*
X15858491Y-11304729D01*
X15858491Y-11304729D02*
X15858491Y-11352348D01*
X15858491Y-11352348D02*
X15848967Y-11371396D01*
X15848967Y-11371396D02*
X15839444Y-11380920D01*
X15839444Y-11380920D02*
X15820396Y-11390444D01*
X15820396Y-11390444D02*
X15763253Y-11390444D01*
X15763253Y-11390444D02*
X15744206Y-11380920D01*
X15744206Y-11380920D02*
X15734682Y-11371396D01*
X16039444Y-11190444D02*
X15944206Y-11190444D01*
X15944206Y-11190444D02*
X15934682Y-11285682D01*
X15934682Y-11285682D02*
X15944206Y-11276158D01*
X15944206Y-11276158D02*
X15963253Y-11266634D01*
X15963253Y-11266634D02*
X16010872Y-11266634D01*
X16010872Y-11266634D02*
X16029920Y-11276158D01*
X16029920Y-11276158D02*
X16039444Y-11285682D01*
X16039444Y-11285682D02*
X16048967Y-11304729D01*
X16048967Y-11304729D02*
X16048967Y-11352348D01*
X16048967Y-11352348D02*
X16039444Y-11371396D01*
X16039444Y-11371396D02*
X16029920Y-11380920D01*
X16029920Y-11380920D02*
X16010872Y-11390444D01*
X16010872Y-11390444D02*
X15963253Y-11390444D01*
X15963253Y-11390444D02*
X15944206Y-11380920D01*
X15944206Y-11380920D02*
X15934682Y-11371396D01*
X16220396Y-11257110D02*
X16220396Y-11390444D01*
X16172777Y-11180920D02*
X16125158Y-11323777D01*
X16125158Y-11323777D02*
X16248967Y-11323777D01*
X16315634Y-11190444D02*
X16315634Y-11228539D01*
X16391825Y-11190444D02*
X16391825Y-11228539D01*
X16687063Y-11466634D02*
X16677539Y-11457110D01*
X16677539Y-11457110D02*
X16658491Y-11428539D01*
X16658491Y-11428539D02*
X16648968Y-11409491D01*
X16648968Y-11409491D02*
X16639444Y-11380920D01*
X16639444Y-11380920D02*
X16629920Y-11333301D01*
X16629920Y-11333301D02*
X16629920Y-11295206D01*
X16629920Y-11295206D02*
X16639444Y-11247587D01*
X16639444Y-11247587D02*
X16648968Y-11219015D01*
X16648968Y-11219015D02*
X16658491Y-11199968D01*
X16658491Y-11199968D02*
X16677539Y-11171396D01*
X16677539Y-11171396D02*
X16687063Y-11161872D01*
X16791825Y-11276158D02*
X16772777Y-11266634D01*
X16772777Y-11266634D02*
X16763253Y-11257110D01*
X16763253Y-11257110D02*
X16753729Y-11238063D01*
X16753729Y-11238063D02*
X16753729Y-11228539D01*
X16753729Y-11228539D02*
X16763253Y-11209491D01*
X16763253Y-11209491D02*
X16772777Y-11199968D01*
X16772777Y-11199968D02*
X16791825Y-11190444D01*
X16791825Y-11190444D02*
X16829920Y-11190444D01*
X16829920Y-11190444D02*
X16848968Y-11199968D01*
X16848968Y-11199968D02*
X16858491Y-11209491D01*
X16858491Y-11209491D02*
X16868015Y-11228539D01*
X16868015Y-11228539D02*
X16868015Y-11238063D01*
X16868015Y-11238063D02*
X16858491Y-11257110D01*
X16858491Y-11257110D02*
X16848968Y-11266634D01*
X16848968Y-11266634D02*
X16829920Y-11276158D01*
X16829920Y-11276158D02*
X16791825Y-11276158D01*
X16791825Y-11276158D02*
X16772777Y-11285682D01*
X16772777Y-11285682D02*
X16763253Y-11295206D01*
X16763253Y-11295206D02*
X16753729Y-11314253D01*
X16753729Y-11314253D02*
X16753729Y-11352348D01*
X16753729Y-11352348D02*
X16763253Y-11371396D01*
X16763253Y-11371396D02*
X16772777Y-11380920D01*
X16772777Y-11380920D02*
X16791825Y-11390444D01*
X16791825Y-11390444D02*
X16829920Y-11390444D01*
X16829920Y-11390444D02*
X16848968Y-11380920D01*
X16848968Y-11380920D02*
X16858491Y-11371396D01*
X16858491Y-11371396D02*
X16868015Y-11352348D01*
X16868015Y-11352348D02*
X16868015Y-11314253D01*
X16868015Y-11314253D02*
X16858491Y-11295206D01*
X16858491Y-11295206D02*
X16848968Y-11285682D01*
X16848968Y-11285682D02*
X16829920Y-11276158D01*
X17106111Y-11390444D02*
X17106111Y-11190444D01*
X17191825Y-11390444D02*
X17191825Y-11285682D01*
X17191825Y-11285682D02*
X17182301Y-11266634D01*
X17182301Y-11266634D02*
X17163253Y-11257110D01*
X17163253Y-11257110D02*
X17134682Y-11257110D01*
X17134682Y-11257110D02*
X17115634Y-11266634D01*
X17115634Y-11266634D02*
X17106111Y-11276158D01*
X17315634Y-11390444D02*
X17296587Y-11380920D01*
X17296587Y-11380920D02*
X17287063Y-11371396D01*
X17287063Y-11371396D02*
X17277539Y-11352348D01*
X17277539Y-11352348D02*
X17277539Y-11295206D01*
X17277539Y-11295206D02*
X17287063Y-11276158D01*
X17287063Y-11276158D02*
X17296587Y-11266634D01*
X17296587Y-11266634D02*
X17315634Y-11257110D01*
X17315634Y-11257110D02*
X17344206Y-11257110D01*
X17344206Y-11257110D02*
X17363253Y-11266634D01*
X17363253Y-11266634D02*
X17372777Y-11276158D01*
X17372777Y-11276158D02*
X17382301Y-11295206D01*
X17382301Y-11295206D02*
X17382301Y-11352348D01*
X17382301Y-11352348D02*
X17372777Y-11371396D01*
X17372777Y-11371396D02*
X17363253Y-11380920D01*
X17363253Y-11380920D02*
X17344206Y-11390444D01*
X17344206Y-11390444D02*
X17315634Y-11390444D01*
X17496587Y-11390444D02*
X17477539Y-11380920D01*
X17477539Y-11380920D02*
X17468015Y-11361872D01*
X17468015Y-11361872D02*
X17468015Y-11190444D01*
X17648968Y-11380920D02*
X17629920Y-11390444D01*
X17629920Y-11390444D02*
X17591825Y-11390444D01*
X17591825Y-11390444D02*
X17572777Y-11380920D01*
X17572777Y-11380920D02*
X17563253Y-11361872D01*
X17563253Y-11361872D02*
X17563253Y-11285682D01*
X17563253Y-11285682D02*
X17572777Y-11266634D01*
X17572777Y-11266634D02*
X17591825Y-11257110D01*
X17591825Y-11257110D02*
X17629920Y-11257110D01*
X17629920Y-11257110D02*
X17648968Y-11266634D01*
X17648968Y-11266634D02*
X17658492Y-11285682D01*
X17658492Y-11285682D02*
X17658492Y-11304729D01*
X17658492Y-11304729D02*
X17563253Y-11323777D01*
X17734682Y-11380920D02*
X17753730Y-11390444D01*
X17753730Y-11390444D02*
X17791825Y-11390444D01*
X17791825Y-11390444D02*
X17810873Y-11380920D01*
X17810873Y-11380920D02*
X17820396Y-11361872D01*
X17820396Y-11361872D02*
X17820396Y-11352348D01*
X17820396Y-11352348D02*
X17810873Y-11333301D01*
X17810873Y-11333301D02*
X17791825Y-11323777D01*
X17791825Y-11323777D02*
X17763253Y-11323777D01*
X17763253Y-11323777D02*
X17744206Y-11314253D01*
X17744206Y-11314253D02*
X17734682Y-11295206D01*
X17734682Y-11295206D02*
X17734682Y-11285682D01*
X17734682Y-11285682D02*
X17744206Y-11266634D01*
X17744206Y-11266634D02*
X17763253Y-11257110D01*
X17763253Y-11257110D02*
X17791825Y-11257110D01*
X17791825Y-11257110D02*
X17810873Y-11266634D01*
X17887063Y-11466634D02*
X17896587Y-11457110D01*
X17896587Y-11457110D02*
X17915634Y-11428539D01*
X17915634Y-11428539D02*
X17925158Y-11409491D01*
X17925158Y-11409491D02*
X17934682Y-11380920D01*
X17934682Y-11380920D02*
X17944206Y-11333301D01*
X17944206Y-11333301D02*
X17944206Y-11295206D01*
X17944206Y-11295206D02*
X17934682Y-11247587D01*
X17934682Y-11247587D02*
X17925158Y-11219015D01*
X17925158Y-11219015D02*
X17915634Y-11199968D01*
X17915634Y-11199968D02*
X17896587Y-11171396D01*
X17896587Y-11171396D02*
X17887063Y-11161872D01*
D12*
X13112000Y-11562960D02*
G75*
G02*
X13002000Y-11562960I-55000J0D01*
G01*
X13002000Y-11562960D02*
G75*
G02*
X13112000Y-11562960I55000J0D01*
G01*
D11*
X13477539Y-11654444D02*
X13363253Y-11654444D01*
X13420396Y-11654444D02*
X13420396Y-11454444D01*
X13420396Y-11454444D02*
X13401348Y-11483015D01*
X13401348Y-11483015D02*
X13382301Y-11502063D01*
X13382301Y-11502063D02*
X13363253Y-11511587D01*
X13563253Y-11635396D02*
X13572777Y-11644920D01*
X13572777Y-11644920D02*
X13563253Y-11654444D01*
X13563253Y-11654444D02*
X13553729Y-11644920D01*
X13553729Y-11644920D02*
X13563253Y-11635396D01*
X13563253Y-11635396D02*
X13563253Y-11654444D01*
X13763253Y-11654444D02*
X13648967Y-11654444D01*
X13706110Y-11654444D02*
X13706110Y-11454444D01*
X13706110Y-11454444D02*
X13687062Y-11483015D01*
X13687062Y-11483015D02*
X13668015Y-11502063D01*
X13668015Y-11502063D02*
X13648967Y-11511587D01*
X13887062Y-11454444D02*
X13906110Y-11454444D01*
X13906110Y-11454444D02*
X13925158Y-11463968D01*
X13925158Y-11463968D02*
X13934682Y-11473491D01*
X13934682Y-11473491D02*
X13944205Y-11492539D01*
X13944205Y-11492539D02*
X13953729Y-11530634D01*
X13953729Y-11530634D02*
X13953729Y-11578253D01*
X13953729Y-11578253D02*
X13944205Y-11616348D01*
X13944205Y-11616348D02*
X13934682Y-11635396D01*
X13934682Y-11635396D02*
X13925158Y-11644920D01*
X13925158Y-11644920D02*
X13906110Y-11654444D01*
X13906110Y-11654444D02*
X13887062Y-11654444D01*
X13887062Y-11654444D02*
X13868015Y-11644920D01*
X13868015Y-11644920D02*
X13858491Y-11635396D01*
X13858491Y-11635396D02*
X13848967Y-11616348D01*
X13848967Y-11616348D02*
X13839443Y-11578253D01*
X13839443Y-11578253D02*
X13839443Y-11530634D01*
X13839443Y-11530634D02*
X13848967Y-11492539D01*
X13848967Y-11492539D02*
X13858491Y-11473491D01*
X13858491Y-11473491D02*
X13868015Y-11463968D01*
X13868015Y-11463968D02*
X13887062Y-11454444D01*
X14077539Y-11454444D02*
X14096586Y-11454444D01*
X14096586Y-11454444D02*
X14115634Y-11463968D01*
X14115634Y-11463968D02*
X14125158Y-11473491D01*
X14125158Y-11473491D02*
X14134682Y-11492539D01*
X14134682Y-11492539D02*
X14144205Y-11530634D01*
X14144205Y-11530634D02*
X14144205Y-11578253D01*
X14144205Y-11578253D02*
X14134682Y-11616348D01*
X14134682Y-11616348D02*
X14125158Y-11635396D01*
X14125158Y-11635396D02*
X14115634Y-11644920D01*
X14115634Y-11644920D02*
X14096586Y-11654444D01*
X14096586Y-11654444D02*
X14077539Y-11654444D01*
X14077539Y-11654444D02*
X14058491Y-11644920D01*
X14058491Y-11644920D02*
X14048967Y-11635396D01*
X14048967Y-11635396D02*
X14039443Y-11616348D01*
X14039443Y-11616348D02*
X14029920Y-11578253D01*
X14029920Y-11578253D02*
X14029920Y-11530634D01*
X14029920Y-11530634D02*
X14039443Y-11492539D01*
X14039443Y-11492539D02*
X14048967Y-11473491D01*
X14048967Y-11473491D02*
X14058491Y-11463968D01*
X14058491Y-11463968D02*
X14077539Y-11454444D01*
X14229920Y-11654444D02*
X14229920Y-11521110D01*
X14229920Y-11540158D02*
X14239443Y-11530634D01*
X14239443Y-11530634D02*
X14258491Y-11521110D01*
X14258491Y-11521110D02*
X14287063Y-11521110D01*
X14287063Y-11521110D02*
X14306110Y-11530634D01*
X14306110Y-11530634D02*
X14315634Y-11549682D01*
X14315634Y-11549682D02*
X14315634Y-11654444D01*
X14315634Y-11549682D02*
X14325158Y-11530634D01*
X14325158Y-11530634D02*
X14344205Y-11521110D01*
X14344205Y-11521110D02*
X14372777Y-11521110D01*
X14372777Y-11521110D02*
X14391824Y-11530634D01*
X14391824Y-11530634D02*
X14401348Y-11549682D01*
X14401348Y-11549682D02*
X14401348Y-11654444D01*
X14496586Y-11654444D02*
X14496586Y-11521110D01*
X14496586Y-11540158D02*
X14506110Y-11530634D01*
X14506110Y-11530634D02*
X14525158Y-11521110D01*
X14525158Y-11521110D02*
X14553729Y-11521110D01*
X14553729Y-11521110D02*
X14572777Y-11530634D01*
X14572777Y-11530634D02*
X14582301Y-11549682D01*
X14582301Y-11549682D02*
X14582301Y-11654444D01*
X14582301Y-11549682D02*
X14591824Y-11530634D01*
X14591824Y-11530634D02*
X14610872Y-11521110D01*
X14610872Y-11521110D02*
X14639443Y-11521110D01*
X14639443Y-11521110D02*
X14658491Y-11530634D01*
X14658491Y-11530634D02*
X14668015Y-11549682D01*
X14668015Y-11549682D02*
X14668015Y-11654444D01*
X15058491Y-11444920D02*
X14887063Y-11702063D01*
X15315634Y-11454444D02*
X15334682Y-11454444D01*
X15334682Y-11454444D02*
X15353729Y-11463968D01*
X15353729Y-11463968D02*
X15363253Y-11473491D01*
X15363253Y-11473491D02*
X15372777Y-11492539D01*
X15372777Y-11492539D02*
X15382301Y-11530634D01*
X15382301Y-11530634D02*
X15382301Y-11578253D01*
X15382301Y-11578253D02*
X15372777Y-11616348D01*
X15372777Y-11616348D02*
X15363253Y-11635396D01*
X15363253Y-11635396D02*
X15353729Y-11644920D01*
X15353729Y-11644920D02*
X15334682Y-11654444D01*
X15334682Y-11654444D02*
X15315634Y-11654444D01*
X15315634Y-11654444D02*
X15296586Y-11644920D01*
X15296586Y-11644920D02*
X15287063Y-11635396D01*
X15287063Y-11635396D02*
X15277539Y-11616348D01*
X15277539Y-11616348D02*
X15268015Y-11578253D01*
X15268015Y-11578253D02*
X15268015Y-11530634D01*
X15268015Y-11530634D02*
X15277539Y-11492539D01*
X15277539Y-11492539D02*
X15287063Y-11473491D01*
X15287063Y-11473491D02*
X15296586Y-11463968D01*
X15296586Y-11463968D02*
X15315634Y-11454444D01*
X15468015Y-11635396D02*
X15477539Y-11644920D01*
X15477539Y-11644920D02*
X15468015Y-11654444D01*
X15468015Y-11654444D02*
X15458491Y-11644920D01*
X15458491Y-11644920D02*
X15468015Y-11635396D01*
X15468015Y-11635396D02*
X15468015Y-11654444D01*
X15601348Y-11454444D02*
X15620396Y-11454444D01*
X15620396Y-11454444D02*
X15639444Y-11463968D01*
X15639444Y-11463968D02*
X15648967Y-11473491D01*
X15648967Y-11473491D02*
X15658491Y-11492539D01*
X15658491Y-11492539D02*
X15668015Y-11530634D01*
X15668015Y-11530634D02*
X15668015Y-11578253D01*
X15668015Y-11578253D02*
X15658491Y-11616348D01*
X15658491Y-11616348D02*
X15648967Y-11635396D01*
X15648967Y-11635396D02*
X15639444Y-11644920D01*
X15639444Y-11644920D02*
X15620396Y-11654444D01*
X15620396Y-11654444D02*
X15601348Y-11654444D01*
X15601348Y-11654444D02*
X15582301Y-11644920D01*
X15582301Y-11644920D02*
X15572777Y-11635396D01*
X15572777Y-11635396D02*
X15563253Y-11616348D01*
X15563253Y-11616348D02*
X15553729Y-11578253D01*
X15553729Y-11578253D02*
X15553729Y-11530634D01*
X15553729Y-11530634D02*
X15563253Y-11492539D01*
X15563253Y-11492539D02*
X15572777Y-11473491D01*
X15572777Y-11473491D02*
X15582301Y-11463968D01*
X15582301Y-11463968D02*
X15601348Y-11454444D01*
X15839444Y-11521110D02*
X15839444Y-11654444D01*
X15791825Y-11444920D02*
X15744206Y-11587777D01*
X15744206Y-11587777D02*
X15868015Y-11587777D01*
X15925158Y-11454444D02*
X16048967Y-11454444D01*
X16048967Y-11454444D02*
X15982301Y-11530634D01*
X15982301Y-11530634D02*
X16010872Y-11530634D01*
X16010872Y-11530634D02*
X16029920Y-11540158D01*
X16029920Y-11540158D02*
X16039444Y-11549682D01*
X16039444Y-11549682D02*
X16048967Y-11568729D01*
X16048967Y-11568729D02*
X16048967Y-11616348D01*
X16048967Y-11616348D02*
X16039444Y-11635396D01*
X16039444Y-11635396D02*
X16029920Y-11644920D01*
X16029920Y-11644920D02*
X16010872Y-11654444D01*
X16010872Y-11654444D02*
X15953729Y-11654444D01*
X15953729Y-11654444D02*
X15934682Y-11644920D01*
X15934682Y-11644920D02*
X15925158Y-11635396D01*
X16115634Y-11454444D02*
X16239444Y-11454444D01*
X16239444Y-11454444D02*
X16172777Y-11530634D01*
X16172777Y-11530634D02*
X16201348Y-11530634D01*
X16201348Y-11530634D02*
X16220396Y-11540158D01*
X16220396Y-11540158D02*
X16229920Y-11549682D01*
X16229920Y-11549682D02*
X16239444Y-11568729D01*
X16239444Y-11568729D02*
X16239444Y-11616348D01*
X16239444Y-11616348D02*
X16229920Y-11635396D01*
X16229920Y-11635396D02*
X16220396Y-11644920D01*
X16220396Y-11644920D02*
X16201348Y-11654444D01*
X16201348Y-11654444D02*
X16144206Y-11654444D01*
X16144206Y-11654444D02*
X16125158Y-11644920D01*
X16125158Y-11644920D02*
X16115634Y-11635396D01*
X16315634Y-11454444D02*
X16315634Y-11492539D01*
X16391825Y-11454444D02*
X16391825Y-11492539D01*
X16687063Y-11730634D02*
X16677539Y-11721110D01*
X16677539Y-11721110D02*
X16658491Y-11692539D01*
X16658491Y-11692539D02*
X16648968Y-11673491D01*
X16648968Y-11673491D02*
X16639444Y-11644920D01*
X16639444Y-11644920D02*
X16629920Y-11597301D01*
X16629920Y-11597301D02*
X16629920Y-11559206D01*
X16629920Y-11559206D02*
X16639444Y-11511587D01*
X16639444Y-11511587D02*
X16648968Y-11483015D01*
X16648968Y-11483015D02*
X16658491Y-11463968D01*
X16658491Y-11463968D02*
X16677539Y-11435396D01*
X16677539Y-11435396D02*
X16687063Y-11425872D01*
X16772777Y-11654444D02*
X16810872Y-11654444D01*
X16810872Y-11654444D02*
X16829920Y-11644920D01*
X16829920Y-11644920D02*
X16839444Y-11635396D01*
X16839444Y-11635396D02*
X16858491Y-11606825D01*
X16858491Y-11606825D02*
X16868015Y-11568729D01*
X16868015Y-11568729D02*
X16868015Y-11492539D01*
X16868015Y-11492539D02*
X16858491Y-11473491D01*
X16858491Y-11473491D02*
X16848968Y-11463968D01*
X16848968Y-11463968D02*
X16829920Y-11454444D01*
X16829920Y-11454444D02*
X16791825Y-11454444D01*
X16791825Y-11454444D02*
X16772777Y-11463968D01*
X16772777Y-11463968D02*
X16763253Y-11473491D01*
X16763253Y-11473491D02*
X16753729Y-11492539D01*
X16753729Y-11492539D02*
X16753729Y-11540158D01*
X16753729Y-11540158D02*
X16763253Y-11559206D01*
X16763253Y-11559206D02*
X16772777Y-11568729D01*
X16772777Y-11568729D02*
X16791825Y-11578253D01*
X16791825Y-11578253D02*
X16829920Y-11578253D01*
X16829920Y-11578253D02*
X16848968Y-11568729D01*
X16848968Y-11568729D02*
X16858491Y-11559206D01*
X16858491Y-11559206D02*
X16868015Y-11540158D01*
X17106111Y-11654444D02*
X17106111Y-11454444D01*
X17191825Y-11654444D02*
X17191825Y-11549682D01*
X17191825Y-11549682D02*
X17182301Y-11530634D01*
X17182301Y-11530634D02*
X17163253Y-11521110D01*
X17163253Y-11521110D02*
X17134682Y-11521110D01*
X17134682Y-11521110D02*
X17115634Y-11530634D01*
X17115634Y-11530634D02*
X17106111Y-11540158D01*
X17315634Y-11654444D02*
X17296587Y-11644920D01*
X17296587Y-11644920D02*
X17287063Y-11635396D01*
X17287063Y-11635396D02*
X17277539Y-11616348D01*
X17277539Y-11616348D02*
X17277539Y-11559206D01*
X17277539Y-11559206D02*
X17287063Y-11540158D01*
X17287063Y-11540158D02*
X17296587Y-11530634D01*
X17296587Y-11530634D02*
X17315634Y-11521110D01*
X17315634Y-11521110D02*
X17344206Y-11521110D01*
X17344206Y-11521110D02*
X17363253Y-11530634D01*
X17363253Y-11530634D02*
X17372777Y-11540158D01*
X17372777Y-11540158D02*
X17382301Y-11559206D01*
X17382301Y-11559206D02*
X17382301Y-11616348D01*
X17382301Y-11616348D02*
X17372777Y-11635396D01*
X17372777Y-11635396D02*
X17363253Y-11644920D01*
X17363253Y-11644920D02*
X17344206Y-11654444D01*
X17344206Y-11654444D02*
X17315634Y-11654444D01*
X17496587Y-11654444D02*
X17477539Y-11644920D01*
X17477539Y-11644920D02*
X17468015Y-11625872D01*
X17468015Y-11625872D02*
X17468015Y-11454444D01*
X17648968Y-11644920D02*
X17629920Y-11654444D01*
X17629920Y-11654444D02*
X17591825Y-11654444D01*
X17591825Y-11654444D02*
X17572777Y-11644920D01*
X17572777Y-11644920D02*
X17563253Y-11625872D01*
X17563253Y-11625872D02*
X17563253Y-11549682D01*
X17563253Y-11549682D02*
X17572777Y-11530634D01*
X17572777Y-11530634D02*
X17591825Y-11521110D01*
X17591825Y-11521110D02*
X17629920Y-11521110D01*
X17629920Y-11521110D02*
X17648968Y-11530634D01*
X17648968Y-11530634D02*
X17658492Y-11549682D01*
X17658492Y-11549682D02*
X17658492Y-11568729D01*
X17658492Y-11568729D02*
X17563253Y-11587777D01*
X17734682Y-11644920D02*
X17753730Y-11654444D01*
X17753730Y-11654444D02*
X17791825Y-11654444D01*
X17791825Y-11654444D02*
X17810873Y-11644920D01*
X17810873Y-11644920D02*
X17820396Y-11625872D01*
X17820396Y-11625872D02*
X17820396Y-11616348D01*
X17820396Y-11616348D02*
X17810873Y-11597301D01*
X17810873Y-11597301D02*
X17791825Y-11587777D01*
X17791825Y-11587777D02*
X17763253Y-11587777D01*
X17763253Y-11587777D02*
X17744206Y-11578253D01*
X17744206Y-11578253D02*
X17734682Y-11559206D01*
X17734682Y-11559206D02*
X17734682Y-11549682D01*
X17734682Y-11549682D02*
X17744206Y-11530634D01*
X17744206Y-11530634D02*
X17763253Y-11521110D01*
X17763253Y-11521110D02*
X17791825Y-11521110D01*
X17791825Y-11521110D02*
X17810873Y-11530634D01*
X17887063Y-11730634D02*
X17896587Y-11721110D01*
X17896587Y-11721110D02*
X17915634Y-11692539D01*
X17915634Y-11692539D02*
X17925158Y-11673491D01*
X17925158Y-11673491D02*
X17934682Y-11644920D01*
X17934682Y-11644920D02*
X17944206Y-11597301D01*
X17944206Y-11597301D02*
X17944206Y-11559206D01*
X17944206Y-11559206D02*
X17934682Y-11511587D01*
X17934682Y-11511587D02*
X17925158Y-11483015D01*
X17925158Y-11483015D02*
X17915634Y-11463968D01*
X17915634Y-11463968D02*
X17896587Y-11435396D01*
X17896587Y-11435396D02*
X17887063Y-11425872D01*
X13012000Y-11726960D02*
X13012000Y-11926960D01*
X12912000Y-11826960D02*
X13112000Y-11826960D01*
X13363253Y-11737491D02*
X13372777Y-11727968D01*
X13372777Y-11727968D02*
X13391824Y-11718444D01*
X13391824Y-11718444D02*
X13439443Y-11718444D01*
X13439443Y-11718444D02*
X13458491Y-11727968D01*
X13458491Y-11727968D02*
X13468015Y-11737491D01*
X13468015Y-11737491D02*
X13477539Y-11756539D01*
X13477539Y-11756539D02*
X13477539Y-11775587D01*
X13477539Y-11775587D02*
X13468015Y-11804158D01*
X13468015Y-11804158D02*
X13353729Y-11918444D01*
X13353729Y-11918444D02*
X13477539Y-11918444D01*
X13563253Y-11899396D02*
X13572777Y-11908920D01*
X13572777Y-11908920D02*
X13563253Y-11918444D01*
X13563253Y-11918444D02*
X13553729Y-11908920D01*
X13553729Y-11908920D02*
X13563253Y-11899396D01*
X13563253Y-11899396D02*
X13563253Y-11918444D01*
X13648967Y-11737491D02*
X13658491Y-11727968D01*
X13658491Y-11727968D02*
X13677539Y-11718444D01*
X13677539Y-11718444D02*
X13725158Y-11718444D01*
X13725158Y-11718444D02*
X13744205Y-11727968D01*
X13744205Y-11727968D02*
X13753729Y-11737491D01*
X13753729Y-11737491D02*
X13763253Y-11756539D01*
X13763253Y-11756539D02*
X13763253Y-11775587D01*
X13763253Y-11775587D02*
X13753729Y-11804158D01*
X13753729Y-11804158D02*
X13639443Y-11918444D01*
X13639443Y-11918444D02*
X13763253Y-11918444D01*
X13887062Y-11718444D02*
X13906110Y-11718444D01*
X13906110Y-11718444D02*
X13925158Y-11727968D01*
X13925158Y-11727968D02*
X13934682Y-11737491D01*
X13934682Y-11737491D02*
X13944205Y-11756539D01*
X13944205Y-11756539D02*
X13953729Y-11794634D01*
X13953729Y-11794634D02*
X13953729Y-11842253D01*
X13953729Y-11842253D02*
X13944205Y-11880348D01*
X13944205Y-11880348D02*
X13934682Y-11899396D01*
X13934682Y-11899396D02*
X13925158Y-11908920D01*
X13925158Y-11908920D02*
X13906110Y-11918444D01*
X13906110Y-11918444D02*
X13887062Y-11918444D01*
X13887062Y-11918444D02*
X13868015Y-11908920D01*
X13868015Y-11908920D02*
X13858491Y-11899396D01*
X13858491Y-11899396D02*
X13848967Y-11880348D01*
X13848967Y-11880348D02*
X13839443Y-11842253D01*
X13839443Y-11842253D02*
X13839443Y-11794634D01*
X13839443Y-11794634D02*
X13848967Y-11756539D01*
X13848967Y-11756539D02*
X13858491Y-11737491D01*
X13858491Y-11737491D02*
X13868015Y-11727968D01*
X13868015Y-11727968D02*
X13887062Y-11718444D01*
X14077539Y-11718444D02*
X14096586Y-11718444D01*
X14096586Y-11718444D02*
X14115634Y-11727968D01*
X14115634Y-11727968D02*
X14125158Y-11737491D01*
X14125158Y-11737491D02*
X14134682Y-11756539D01*
X14134682Y-11756539D02*
X14144205Y-11794634D01*
X14144205Y-11794634D02*
X14144205Y-11842253D01*
X14144205Y-11842253D02*
X14134682Y-11880348D01*
X14134682Y-11880348D02*
X14125158Y-11899396D01*
X14125158Y-11899396D02*
X14115634Y-11908920D01*
X14115634Y-11908920D02*
X14096586Y-11918444D01*
X14096586Y-11918444D02*
X14077539Y-11918444D01*
X14077539Y-11918444D02*
X14058491Y-11908920D01*
X14058491Y-11908920D02*
X14048967Y-11899396D01*
X14048967Y-11899396D02*
X14039443Y-11880348D01*
X14039443Y-11880348D02*
X14029920Y-11842253D01*
X14029920Y-11842253D02*
X14029920Y-11794634D01*
X14029920Y-11794634D02*
X14039443Y-11756539D01*
X14039443Y-11756539D02*
X14048967Y-11737491D01*
X14048967Y-11737491D02*
X14058491Y-11727968D01*
X14058491Y-11727968D02*
X14077539Y-11718444D01*
X14229920Y-11918444D02*
X14229920Y-11785110D01*
X14229920Y-11804158D02*
X14239443Y-11794634D01*
X14239443Y-11794634D02*
X14258491Y-11785110D01*
X14258491Y-11785110D02*
X14287063Y-11785110D01*
X14287063Y-11785110D02*
X14306110Y-11794634D01*
X14306110Y-11794634D02*
X14315634Y-11813682D01*
X14315634Y-11813682D02*
X14315634Y-11918444D01*
X14315634Y-11813682D02*
X14325158Y-11794634D01*
X14325158Y-11794634D02*
X14344205Y-11785110D01*
X14344205Y-11785110D02*
X14372777Y-11785110D01*
X14372777Y-11785110D02*
X14391824Y-11794634D01*
X14391824Y-11794634D02*
X14401348Y-11813682D01*
X14401348Y-11813682D02*
X14401348Y-11918444D01*
X14496586Y-11918444D02*
X14496586Y-11785110D01*
X14496586Y-11804158D02*
X14506110Y-11794634D01*
X14506110Y-11794634D02*
X14525158Y-11785110D01*
X14525158Y-11785110D02*
X14553729Y-11785110D01*
X14553729Y-11785110D02*
X14572777Y-11794634D01*
X14572777Y-11794634D02*
X14582301Y-11813682D01*
X14582301Y-11813682D02*
X14582301Y-11918444D01*
X14582301Y-11813682D02*
X14591824Y-11794634D01*
X14591824Y-11794634D02*
X14610872Y-11785110D01*
X14610872Y-11785110D02*
X14639443Y-11785110D01*
X14639443Y-11785110D02*
X14658491Y-11794634D01*
X14658491Y-11794634D02*
X14668015Y-11813682D01*
X14668015Y-11813682D02*
X14668015Y-11918444D01*
X15058491Y-11708920D02*
X14887063Y-11966063D01*
X15315634Y-11718444D02*
X15334682Y-11718444D01*
X15334682Y-11718444D02*
X15353729Y-11727968D01*
X15353729Y-11727968D02*
X15363253Y-11737491D01*
X15363253Y-11737491D02*
X15372777Y-11756539D01*
X15372777Y-11756539D02*
X15382301Y-11794634D01*
X15382301Y-11794634D02*
X15382301Y-11842253D01*
X15382301Y-11842253D02*
X15372777Y-11880348D01*
X15372777Y-11880348D02*
X15363253Y-11899396D01*
X15363253Y-11899396D02*
X15353729Y-11908920D01*
X15353729Y-11908920D02*
X15334682Y-11918444D01*
X15334682Y-11918444D02*
X15315634Y-11918444D01*
X15315634Y-11918444D02*
X15296586Y-11908920D01*
X15296586Y-11908920D02*
X15287063Y-11899396D01*
X15287063Y-11899396D02*
X15277539Y-11880348D01*
X15277539Y-11880348D02*
X15268015Y-11842253D01*
X15268015Y-11842253D02*
X15268015Y-11794634D01*
X15268015Y-11794634D02*
X15277539Y-11756539D01*
X15277539Y-11756539D02*
X15287063Y-11737491D01*
X15287063Y-11737491D02*
X15296586Y-11727968D01*
X15296586Y-11727968D02*
X15315634Y-11718444D01*
X15468015Y-11899396D02*
X15477539Y-11908920D01*
X15477539Y-11908920D02*
X15468015Y-11918444D01*
X15468015Y-11918444D02*
X15458491Y-11908920D01*
X15458491Y-11908920D02*
X15468015Y-11899396D01*
X15468015Y-11899396D02*
X15468015Y-11918444D01*
X15601348Y-11718444D02*
X15620396Y-11718444D01*
X15620396Y-11718444D02*
X15639444Y-11727968D01*
X15639444Y-11727968D02*
X15648967Y-11737491D01*
X15648967Y-11737491D02*
X15658491Y-11756539D01*
X15658491Y-11756539D02*
X15668015Y-11794634D01*
X15668015Y-11794634D02*
X15668015Y-11842253D01*
X15668015Y-11842253D02*
X15658491Y-11880348D01*
X15658491Y-11880348D02*
X15648967Y-11899396D01*
X15648967Y-11899396D02*
X15639444Y-11908920D01*
X15639444Y-11908920D02*
X15620396Y-11918444D01*
X15620396Y-11918444D02*
X15601348Y-11918444D01*
X15601348Y-11918444D02*
X15582301Y-11908920D01*
X15582301Y-11908920D02*
X15572777Y-11899396D01*
X15572777Y-11899396D02*
X15563253Y-11880348D01*
X15563253Y-11880348D02*
X15553729Y-11842253D01*
X15553729Y-11842253D02*
X15553729Y-11794634D01*
X15553729Y-11794634D02*
X15563253Y-11756539D01*
X15563253Y-11756539D02*
X15572777Y-11737491D01*
X15572777Y-11737491D02*
X15582301Y-11727968D01*
X15582301Y-11727968D02*
X15601348Y-11718444D01*
X15782301Y-11804158D02*
X15763253Y-11794634D01*
X15763253Y-11794634D02*
X15753729Y-11785110D01*
X15753729Y-11785110D02*
X15744206Y-11766063D01*
X15744206Y-11766063D02*
X15744206Y-11756539D01*
X15744206Y-11756539D02*
X15753729Y-11737491D01*
X15753729Y-11737491D02*
X15763253Y-11727968D01*
X15763253Y-11727968D02*
X15782301Y-11718444D01*
X15782301Y-11718444D02*
X15820396Y-11718444D01*
X15820396Y-11718444D02*
X15839444Y-11727968D01*
X15839444Y-11727968D02*
X15848967Y-11737491D01*
X15848967Y-11737491D02*
X15858491Y-11756539D01*
X15858491Y-11756539D02*
X15858491Y-11766063D01*
X15858491Y-11766063D02*
X15848967Y-11785110D01*
X15848967Y-11785110D02*
X15839444Y-11794634D01*
X15839444Y-11794634D02*
X15820396Y-11804158D01*
X15820396Y-11804158D02*
X15782301Y-11804158D01*
X15782301Y-11804158D02*
X15763253Y-11813682D01*
X15763253Y-11813682D02*
X15753729Y-11823206D01*
X15753729Y-11823206D02*
X15744206Y-11842253D01*
X15744206Y-11842253D02*
X15744206Y-11880348D01*
X15744206Y-11880348D02*
X15753729Y-11899396D01*
X15753729Y-11899396D02*
X15763253Y-11908920D01*
X15763253Y-11908920D02*
X15782301Y-11918444D01*
X15782301Y-11918444D02*
X15820396Y-11918444D01*
X15820396Y-11918444D02*
X15839444Y-11908920D01*
X15839444Y-11908920D02*
X15848967Y-11899396D01*
X15848967Y-11899396D02*
X15858491Y-11880348D01*
X15858491Y-11880348D02*
X15858491Y-11842253D01*
X15858491Y-11842253D02*
X15848967Y-11823206D01*
X15848967Y-11823206D02*
X15839444Y-11813682D01*
X15839444Y-11813682D02*
X15820396Y-11804158D01*
X16029920Y-11718444D02*
X15991825Y-11718444D01*
X15991825Y-11718444D02*
X15972777Y-11727968D01*
X15972777Y-11727968D02*
X15963253Y-11737491D01*
X15963253Y-11737491D02*
X15944206Y-11766063D01*
X15944206Y-11766063D02*
X15934682Y-11804158D01*
X15934682Y-11804158D02*
X15934682Y-11880348D01*
X15934682Y-11880348D02*
X15944206Y-11899396D01*
X15944206Y-11899396D02*
X15953729Y-11908920D01*
X15953729Y-11908920D02*
X15972777Y-11918444D01*
X15972777Y-11918444D02*
X16010872Y-11918444D01*
X16010872Y-11918444D02*
X16029920Y-11908920D01*
X16029920Y-11908920D02*
X16039444Y-11899396D01*
X16039444Y-11899396D02*
X16048967Y-11880348D01*
X16048967Y-11880348D02*
X16048967Y-11832729D01*
X16048967Y-11832729D02*
X16039444Y-11813682D01*
X16039444Y-11813682D02*
X16029920Y-11804158D01*
X16029920Y-11804158D02*
X16010872Y-11794634D01*
X16010872Y-11794634D02*
X15972777Y-11794634D01*
X15972777Y-11794634D02*
X15953729Y-11804158D01*
X15953729Y-11804158D02*
X15944206Y-11813682D01*
X15944206Y-11813682D02*
X15934682Y-11832729D01*
X16220396Y-11718444D02*
X16182301Y-11718444D01*
X16182301Y-11718444D02*
X16163253Y-11727968D01*
X16163253Y-11727968D02*
X16153729Y-11737491D01*
X16153729Y-11737491D02*
X16134682Y-11766063D01*
X16134682Y-11766063D02*
X16125158Y-11804158D01*
X16125158Y-11804158D02*
X16125158Y-11880348D01*
X16125158Y-11880348D02*
X16134682Y-11899396D01*
X16134682Y-11899396D02*
X16144206Y-11908920D01*
X16144206Y-11908920D02*
X16163253Y-11918444D01*
X16163253Y-11918444D02*
X16201348Y-11918444D01*
X16201348Y-11918444D02*
X16220396Y-11908920D01*
X16220396Y-11908920D02*
X16229920Y-11899396D01*
X16229920Y-11899396D02*
X16239444Y-11880348D01*
X16239444Y-11880348D02*
X16239444Y-11832729D01*
X16239444Y-11832729D02*
X16229920Y-11813682D01*
X16229920Y-11813682D02*
X16220396Y-11804158D01*
X16220396Y-11804158D02*
X16201348Y-11794634D01*
X16201348Y-11794634D02*
X16163253Y-11794634D01*
X16163253Y-11794634D02*
X16144206Y-11804158D01*
X16144206Y-11804158D02*
X16134682Y-11813682D01*
X16134682Y-11813682D02*
X16125158Y-11832729D01*
X16315634Y-11718444D02*
X16315634Y-11756539D01*
X16391825Y-11718444D02*
X16391825Y-11756539D01*
X16687063Y-11994634D02*
X16677539Y-11985110D01*
X16677539Y-11985110D02*
X16658491Y-11956539D01*
X16658491Y-11956539D02*
X16648968Y-11937491D01*
X16648968Y-11937491D02*
X16639444Y-11908920D01*
X16639444Y-11908920D02*
X16629920Y-11861301D01*
X16629920Y-11861301D02*
X16629920Y-11823206D01*
X16629920Y-11823206D02*
X16639444Y-11775587D01*
X16639444Y-11775587D02*
X16648968Y-11747015D01*
X16648968Y-11747015D02*
X16658491Y-11727968D01*
X16658491Y-11727968D02*
X16677539Y-11699396D01*
X16677539Y-11699396D02*
X16687063Y-11689872D01*
X16744206Y-11718444D02*
X16868015Y-11718444D01*
X16868015Y-11718444D02*
X16801349Y-11794634D01*
X16801349Y-11794634D02*
X16829920Y-11794634D01*
X16829920Y-11794634D02*
X16848968Y-11804158D01*
X16848968Y-11804158D02*
X16858491Y-11813682D01*
X16858491Y-11813682D02*
X16868015Y-11832729D01*
X16868015Y-11832729D02*
X16868015Y-11880348D01*
X16868015Y-11880348D02*
X16858491Y-11899396D01*
X16858491Y-11899396D02*
X16848968Y-11908920D01*
X16848968Y-11908920D02*
X16829920Y-11918444D01*
X16829920Y-11918444D02*
X16772777Y-11918444D01*
X16772777Y-11918444D02*
X16753729Y-11908920D01*
X16753729Y-11908920D02*
X16744206Y-11899396D01*
X17106111Y-11918444D02*
X17106111Y-11718444D01*
X17191825Y-11918444D02*
X17191825Y-11813682D01*
X17191825Y-11813682D02*
X17182301Y-11794634D01*
X17182301Y-11794634D02*
X17163253Y-11785110D01*
X17163253Y-11785110D02*
X17134682Y-11785110D01*
X17134682Y-11785110D02*
X17115634Y-11794634D01*
X17115634Y-11794634D02*
X17106111Y-11804158D01*
X17315634Y-11918444D02*
X17296587Y-11908920D01*
X17296587Y-11908920D02*
X17287063Y-11899396D01*
X17287063Y-11899396D02*
X17277539Y-11880348D01*
X17277539Y-11880348D02*
X17277539Y-11823206D01*
X17277539Y-11823206D02*
X17287063Y-11804158D01*
X17287063Y-11804158D02*
X17296587Y-11794634D01*
X17296587Y-11794634D02*
X17315634Y-11785110D01*
X17315634Y-11785110D02*
X17344206Y-11785110D01*
X17344206Y-11785110D02*
X17363253Y-11794634D01*
X17363253Y-11794634D02*
X17372777Y-11804158D01*
X17372777Y-11804158D02*
X17382301Y-11823206D01*
X17382301Y-11823206D02*
X17382301Y-11880348D01*
X17382301Y-11880348D02*
X17372777Y-11899396D01*
X17372777Y-11899396D02*
X17363253Y-11908920D01*
X17363253Y-11908920D02*
X17344206Y-11918444D01*
X17344206Y-11918444D02*
X17315634Y-11918444D01*
X17496587Y-11918444D02*
X17477539Y-11908920D01*
X17477539Y-11908920D02*
X17468015Y-11889872D01*
X17468015Y-11889872D02*
X17468015Y-11718444D01*
X17648968Y-11908920D02*
X17629920Y-11918444D01*
X17629920Y-11918444D02*
X17591825Y-11918444D01*
X17591825Y-11918444D02*
X17572777Y-11908920D01*
X17572777Y-11908920D02*
X17563253Y-11889872D01*
X17563253Y-11889872D02*
X17563253Y-11813682D01*
X17563253Y-11813682D02*
X17572777Y-11794634D01*
X17572777Y-11794634D02*
X17591825Y-11785110D01*
X17591825Y-11785110D02*
X17629920Y-11785110D01*
X17629920Y-11785110D02*
X17648968Y-11794634D01*
X17648968Y-11794634D02*
X17658492Y-11813682D01*
X17658492Y-11813682D02*
X17658492Y-11832729D01*
X17658492Y-11832729D02*
X17563253Y-11851777D01*
X17734682Y-11908920D02*
X17753730Y-11918444D01*
X17753730Y-11918444D02*
X17791825Y-11918444D01*
X17791825Y-11918444D02*
X17810873Y-11908920D01*
X17810873Y-11908920D02*
X17820396Y-11889872D01*
X17820396Y-11889872D02*
X17820396Y-11880348D01*
X17820396Y-11880348D02*
X17810873Y-11861301D01*
X17810873Y-11861301D02*
X17791825Y-11851777D01*
X17791825Y-11851777D02*
X17763253Y-11851777D01*
X17763253Y-11851777D02*
X17744206Y-11842253D01*
X17744206Y-11842253D02*
X17734682Y-11823206D01*
X17734682Y-11823206D02*
X17734682Y-11813682D01*
X17734682Y-11813682D02*
X17744206Y-11794634D01*
X17744206Y-11794634D02*
X17763253Y-11785110D01*
X17763253Y-11785110D02*
X17791825Y-11785110D01*
X17791825Y-11785110D02*
X17810873Y-11794634D01*
X17887063Y-11994634D02*
X17896587Y-11985110D01*
X17896587Y-11985110D02*
X17915634Y-11956539D01*
X17915634Y-11956539D02*
X17925158Y-11937491D01*
X17925158Y-11937491D02*
X17934682Y-11908920D01*
X17934682Y-11908920D02*
X17944206Y-11861301D01*
X17944206Y-11861301D02*
X17944206Y-11823206D01*
X17944206Y-11823206D02*
X17934682Y-11775587D01*
X17934682Y-11775587D02*
X17925158Y-11747015D01*
X17925158Y-11747015D02*
X17915634Y-11727968D01*
X17915634Y-11727968D02*
X17896587Y-11699396D01*
X17896587Y-11699396D02*
X17887063Y-11689872D01*
M02*
