%TF.GenerationSoftware,KiCad,Pcbnew,9.0.6*%
%TF.CreationDate,2026-02-06T14:40:20-05:00*%
%TF.ProjectId,DQ PS2 Controller Adapter,44512050-5332-4204-936f-6e74726f6c6c,1.0*%
%TF.SameCoordinates,Original*%
%TF.FileFunction,Copper,L2,Bot*%
%TF.FilePolarity,Positive*%
%FSLAX46Y46*%
G04 Gerber Fmt 4.6, Leading zero omitted, Abs format (unit mm)*
G04 Created by KiCad (PCBNEW 9.0.6) date 2026-02-06 14:40:20*
%MOMM*%
%LPD*%
G01*
G04 APERTURE LIST*
%TA.AperFunction,ComponentPad*%
%ADD10O,1.600000X1.600000*%
%TD*%
%TA.AperFunction,ComponentPad*%
%ADD11C,3.200000*%
%TD*%
%TA.AperFunction,ComponentPad*%
%ADD12C,1.400000*%
%TD*%
%TA.AperFunction,Conductor*%
%ADD13C,0.800000*%
%TD*%
%TA.AperFunction,Conductor*%
%ADD14C,0.200000*%
%TD*%
G04 APERTURE END LIST*
D10*
%TO.P,P1,1,DAT*%
%TO.N,/DAT*%
X166670000Y-89930000D03*
%TO.P,P1,2,CMD*%
%TO.N,/CMD*%
X162670000Y-89930000D03*
%TO.P,P1,3,7V6*%
%TO.N,/7V6*%
X158670000Y-89930000D03*
%TO.P,P1,4,GND*%
%TO.N,GND*%
X154670000Y-89930000D03*
%TO.P,P1,5,Vcc*%
%TO.N,/Vcc*%
X150670000Y-89930000D03*
%TO.P,P1,6,ATT*%
%TO.N,/ATT*%
X146670000Y-89930000D03*
%TO.P,P1,7,CLK*%
%TO.N,/CLK*%
X142670000Y-89930000D03*
%TO.P,P1,8,N/C*%
%TO.N,unconnected-(P1-N{slash}C-Pad8)*%
X138670000Y-89930000D03*
%TO.P,P1,9,ACK*%
%TO.N,/ACK*%
X134670000Y-89930000D03*
%TD*%
D11*
%TO.P,J1,0*%
%TO.N,GND*%
X157400000Y-100900000D03*
X150650000Y-101710000D03*
X143900000Y-100900000D03*
D12*
%TO.P,J1,1*%
%TO.N,/DAT*%
X149350000Y-97900000D03*
%TO.P,J1,2*%
%TO.N,/CMD*%
X151950000Y-97900000D03*
%TO.P,J1,3*%
%TO.N,/7V6*%
X147250000Y-97900000D03*
%TO.P,J1,4*%
%TO.N,GND*%
X149350000Y-95400000D03*
%TO.P,J1,5*%
%TO.N,/Vcc*%
X154050000Y-97900000D03*
%TO.P,J1,6*%
%TO.N,/ATT*%
X147250000Y-95400000D03*
%TO.P,J1,7*%
%TO.N,/CLK*%
X151550000Y-95400000D03*
%TO.P,J1,8*%
%TO.N,/ACK*%
X154050000Y-95400000D03*
%TD*%
D13*
%TO.N,/Vcc*%
X155944213Y-96005787D02*
X154050000Y-97900000D01*
X155675787Y-92665787D02*
X155944214Y-92934214D01*
X156530000Y-94348427D02*
X156530000Y-94591573D01*
X153648427Y-92080000D02*
X154261573Y-92080000D01*
X150670000Y-89930000D02*
X152234214Y-91494214D01*
X156530000Y-94591573D02*
G75*
G02*
X155944227Y-96005801I-2000000J-27D01*
G01*
X154261573Y-92080000D02*
G75*
G02*
X155675801Y-92665773I27J-2000000D01*
G01*
X156530000Y-94348427D02*
G75*
G03*
X155944228Y-92934200I-2000000J27D01*
G01*
X153648427Y-92080000D02*
G75*
G02*
X152234200Y-91494228I-27J2000000D01*
G01*
D14*
%TO.N,/ACK*%
X138188427Y-92620000D02*
X150441573Y-92620000D01*
X151855787Y-93205787D02*
X154050000Y-95400000D01*
X134670000Y-89930000D02*
X136774214Y-92034214D01*
X151855787Y-93205787D02*
G75*
G03*
X150441573Y-92620019I-1414187J-1414213D01*
G01*
X136774214Y-92034214D02*
G75*
G03*
X138188427Y-92619981I1414186J1414214D01*
G01*
D13*
%TO.N,/7V6*%
X154181573Y-99330000D02*
X149508427Y-99330000D01*
X148094213Y-98744213D02*
X147250000Y-97900000D01*
X158084213Y-96255787D02*
X155595786Y-98744214D01*
X158670000Y-89930000D02*
X158670000Y-94841573D01*
X154181573Y-99330000D02*
G75*
G03*
X155595800Y-98744228I27J2000000D01*
G01*
X158670000Y-94841573D02*
G75*
G02*
X158084227Y-96255801I-2000000J-27D01*
G01*
X148094213Y-98744213D02*
G75*
G03*
X149508427Y-99329981I1414187J1414213D01*
G01*
%TD*%
%TA.AperFunction,Conductor*%
%TO.N,GND*%
G36*
X169912539Y-87850185D02*
G01*
X169958294Y-87902989D01*
X169969500Y-87954500D01*
X169969500Y-101536886D01*
X169969382Y-101542295D01*
X169951473Y-101952492D01*
X169950530Y-101963268D01*
X169897293Y-102367644D01*
X169895415Y-102378298D01*
X169807132Y-102776516D01*
X169804332Y-102786964D01*
X169681684Y-103175956D01*
X169677984Y-103186122D01*
X169521896Y-103562953D01*
X169517324Y-103572757D01*
X169328993Y-103934538D01*
X169323585Y-103943906D01*
X169104428Y-104287914D01*
X169098223Y-104296775D01*
X168849925Y-104620364D01*
X168842971Y-104628651D01*
X168567418Y-104929365D01*
X168559769Y-104937014D01*
X168259055Y-105212568D01*
X168250768Y-105219522D01*
X167927180Y-105467820D01*
X167918319Y-105474025D01*
X167574311Y-105693182D01*
X167564943Y-105698590D01*
X167203162Y-105886922D01*
X167193358Y-105891494D01*
X166816530Y-106047581D01*
X166806365Y-106051281D01*
X166417367Y-106173932D01*
X166406917Y-106176732D01*
X166008702Y-106265014D01*
X165998049Y-106266892D01*
X165593672Y-106320129D01*
X165582896Y-106321072D01*
X165172862Y-106338975D01*
X165167453Y-106339093D01*
X136172706Y-106339093D01*
X136167297Y-106338975D01*
X135757102Y-106321065D01*
X135746326Y-106320122D01*
X135341950Y-106266885D01*
X135331296Y-106265007D01*
X134933079Y-106176724D01*
X134922631Y-106173924D01*
X134533640Y-106051276D01*
X134523474Y-106047576D01*
X134146643Y-105891487D01*
X134136839Y-105886915D01*
X134018873Y-105825506D01*
X133775044Y-105698576D01*
X133765688Y-105693175D01*
X133480376Y-105511410D01*
X133421692Y-105474024D01*
X133412831Y-105467820D01*
X133089235Y-105219516D01*
X133080948Y-105212562D01*
X132780235Y-104937009D01*
X132772586Y-104929360D01*
X132497033Y-104628646D01*
X132490079Y-104620359D01*
X132241781Y-104296771D01*
X132235576Y-104287910D01*
X132016420Y-103943903D01*
X132011012Y-103934535D01*
X131954299Y-103825590D01*
X131822678Y-103572748D01*
X131818112Y-103562956D01*
X131662016Y-103186107D01*
X131658322Y-103175956D01*
X131636324Y-103106188D01*
X131535665Y-102786939D01*
X131532876Y-102776527D01*
X131444588Y-102378281D01*
X131442716Y-102367662D01*
X131389474Y-101963245D01*
X131388534Y-101952511D01*
X131370617Y-101542126D01*
X131370500Y-101536736D01*
X131370500Y-100778751D01*
X142050000Y-100778751D01*
X142050000Y-101021248D01*
X142050001Y-101021264D01*
X142081653Y-101261687D01*
X142144421Y-101495939D01*
X142237220Y-101719978D01*
X142237227Y-101719993D01*
X142358480Y-101930009D01*
X142503811Y-102119409D01*
X142503812Y-102119409D01*
X143038097Y-101585124D01*
X143060967Y-101616602D01*
X143183398Y-101739033D01*
X143214873Y-101761901D01*
X142680589Y-102296186D01*
X142680589Y-102296188D01*
X142869990Y-102441519D01*
X143080006Y-102562772D01*
X143080021Y-102562779D01*
X143304060Y-102655578D01*
X143538312Y-102718346D01*
X143778735Y-102749998D01*
X143778752Y-102750000D01*
X144021248Y-102750000D01*
X144021264Y-102749998D01*
X144261687Y-102718346D01*
X144495939Y-102655578D01*
X144719978Y-102562779D01*
X144719992Y-102562772D01*
X144930010Y-102441518D01*
X145119409Y-102296186D01*
X144585125Y-101761901D01*
X144616602Y-101739033D01*
X144739033Y-101616602D01*
X144761901Y-101585125D01*
X145296186Y-102119409D01*
X145441518Y-101930010D01*
X145562772Y-101719992D01*
X145562779Y-101719978D01*
X145638474Y-101537234D01*
X145655578Y-101495939D01*
X145718346Y-101261687D01*
X145749998Y-101021264D01*
X145750000Y-101021248D01*
X145750000Y-100778751D01*
X145749998Y-100778735D01*
X145718346Y-100538312D01*
X145655578Y-100304060D01*
X145562779Y-100080021D01*
X145562772Y-100080006D01*
X145441519Y-99869990D01*
X145296188Y-99680589D01*
X145296186Y-99680589D01*
X144761901Y-100214873D01*
X144739033Y-100183398D01*
X144616602Y-100060967D01*
X144585124Y-100038097D01*
X145119409Y-99503812D01*
X145119409Y-99503811D01*
X144930009Y-99358480D01*
X144719993Y-99237227D01*
X144719978Y-99237220D01*
X144495939Y-99144421D01*
X144261687Y-99081653D01*
X144021264Y-99050001D01*
X144021248Y-99050000D01*
X143778752Y-99050000D01*
X143778735Y-99050001D01*
X143538312Y-99081653D01*
X143304060Y-99144421D01*
X143080021Y-99237220D01*
X143080006Y-99237227D01*
X142869990Y-99358480D01*
X142680589Y-99503811D01*
X142680589Y-99503812D01*
X143214874Y-100038097D01*
X143183398Y-100060967D01*
X143060967Y-100183398D01*
X143038098Y-100214874D01*
X142503812Y-99680589D01*
X142503811Y-99680589D01*
X142358480Y-99869990D01*
X142237227Y-100080006D01*
X142237220Y-100080021D01*
X142144421Y-100304060D01*
X142081653Y-100538312D01*
X142050001Y-100778735D01*
X142050000Y-100778751D01*
X131370500Y-100778751D01*
X131370500Y-95306379D01*
X146299500Y-95306379D01*
X146299500Y-95493620D01*
X146336025Y-95677243D01*
X146336027Y-95677251D01*
X146407676Y-95850228D01*
X146407681Y-95850237D01*
X146511697Y-96005907D01*
X146511700Y-96005911D01*
X146644088Y-96138299D01*
X146644092Y-96138302D01*
X146799762Y-96242318D01*
X146799768Y-96242321D01*
X146799769Y-96242322D01*
X146972749Y-96313973D01*
X147153865Y-96349999D01*
X147156379Y-96350499D01*
X147156383Y-96350500D01*
X147156384Y-96350500D01*
X147343617Y-96350500D01*
X147343618Y-96350499D01*
X147527251Y-96313973D01*
X147700231Y-96242322D01*
X147855908Y-96138302D01*
X147855911Y-96138299D01*
X147972385Y-96021826D01*
X147988299Y-96005911D01*
X147988302Y-96005908D01*
X148092322Y-95850231D01*
X148163973Y-95677251D01*
X148178638Y-95603523D01*
X148211021Y-95541617D01*
X148271736Y-95507042D01*
X148341505Y-95510781D01*
X148398178Y-95551646D01*
X148421871Y-95603525D01*
X148436507Y-95677100D01*
X148436508Y-95677105D01*
X148508119Y-95849991D01*
X148508124Y-95849999D01*
X148594281Y-95978940D01*
X148955871Y-95617350D01*
X148989910Y-95676306D01*
X149073694Y-95760090D01*
X149132648Y-95794127D01*
X148771057Y-96155718D01*
X148900008Y-96241880D01*
X149072894Y-96313491D01*
X149072902Y-96313493D01*
X149256428Y-96349999D01*
X149256431Y-96350000D01*
X149443569Y-96350000D01*
X149443571Y-96349999D01*
X149627097Y-96313493D01*
X149627105Y-96313491D01*
X149799991Y-96241880D01*
X149928941Y-96155718D01*
X149928941Y-96155717D01*
X149567351Y-95794127D01*
X149626306Y-95760090D01*
X149710090Y-95676306D01*
X149744127Y-95617351D01*
X150105717Y-95978941D01*
X150105718Y-95978941D01*
X150191880Y-95849991D01*
X150263491Y-95677105D01*
X150263493Y-95677097D01*
X150299999Y-95493571D01*
X150300000Y-95493569D01*
X150300000Y-95306429D01*
X150299990Y-95306379D01*
X150599500Y-95306379D01*
X150599500Y-95493620D01*
X150636025Y-95677243D01*
X150636027Y-95677251D01*
X150707676Y-95850228D01*
X150707681Y-95850237D01*
X150811697Y-96005907D01*
X150811700Y-96005911D01*
X150944088Y-96138299D01*
X150944092Y-96138302D01*
X151099762Y-96242318D01*
X151099768Y-96242321D01*
X151099769Y-96242322D01*
X151272749Y-96313973D01*
X151453865Y-96349999D01*
X151456379Y-96350499D01*
X151456383Y-96350500D01*
X151456384Y-96350500D01*
X151643617Y-96350500D01*
X151643618Y-96350499D01*
X151827251Y-96313973D01*
X152000231Y-96242322D01*
X152155908Y-96138302D01*
X152288302Y-96005908D01*
X152392322Y-95850231D01*
X152463973Y-95677251D01*
X152500500Y-95493616D01*
X152500500Y-95306384D01*
X152463973Y-95122749D01*
X152392322Y-94949769D01*
X152392321Y-94949768D01*
X152392318Y-94949762D01*
X152288302Y-94794092D01*
X152288299Y-94794088D01*
X152155911Y-94661700D01*
X152155907Y-94661697D01*
X152000237Y-94557681D01*
X152000228Y-94557676D01*
X151827251Y-94486027D01*
X151827243Y-94486025D01*
X151643620Y-94449500D01*
X151643616Y-94449500D01*
X151456384Y-94449500D01*
X151456379Y-94449500D01*
X151272756Y-94486025D01*
X151272748Y-94486027D01*
X151099771Y-94557676D01*
X151099762Y-94557681D01*
X150944092Y-94661697D01*
X150944088Y-94661700D01*
X150811700Y-94794088D01*
X150811697Y-94794092D01*
X150707681Y-94949762D01*
X150707676Y-94949771D01*
X150636027Y-95122748D01*
X150636025Y-95122756D01*
X150599500Y-95306379D01*
X150299990Y-95306379D01*
X150263493Y-95122902D01*
X150263491Y-95122894D01*
X150191880Y-94950008D01*
X150105718Y-94821057D01*
X149744127Y-95182648D01*
X149710090Y-95123694D01*
X149626306Y-95039910D01*
X149567350Y-95005872D01*
X149928940Y-94644281D01*
X149928940Y-94644280D01*
X149799999Y-94558124D01*
X149799991Y-94558119D01*
X149627105Y-94486508D01*
X149627097Y-94486506D01*
X149443570Y-94450000D01*
X149256430Y-94450000D01*
X149072902Y-94486506D01*
X149072894Y-94486508D01*
X148900003Y-94558121D01*
X148771058Y-94644279D01*
X148771058Y-94644281D01*
X149132649Y-95005872D01*
X149073694Y-95039910D01*
X148989910Y-95123694D01*
X148955872Y-95182649D01*
X148594281Y-94821058D01*
X148594279Y-94821058D01*
X148508121Y-94950003D01*
X148436508Y-95122894D01*
X148436506Y-95122899D01*
X148421871Y-95196474D01*
X148389485Y-95258384D01*
X148328769Y-95292958D01*
X148258999Y-95289217D01*
X148202328Y-95248350D01*
X148178637Y-95196475D01*
X148163973Y-95122749D01*
X148092322Y-94949769D01*
X148092321Y-94949768D01*
X148092318Y-94949762D01*
X147988302Y-94794092D01*
X147988299Y-94794088D01*
X147855911Y-94661700D01*
X147855907Y-94661697D01*
X147700237Y-94557681D01*
X147700228Y-94557676D01*
X147527251Y-94486027D01*
X147527243Y-94486025D01*
X147343620Y-94449500D01*
X147343616Y-94449500D01*
X147156384Y-94449500D01*
X147156379Y-94449500D01*
X146972756Y-94486025D01*
X146972748Y-94486027D01*
X146799771Y-94557676D01*
X146799762Y-94557681D01*
X146644092Y-94661697D01*
X146644088Y-94661700D01*
X146511700Y-94794088D01*
X146511697Y-94794092D01*
X146407681Y-94949762D01*
X146407676Y-94949771D01*
X146336027Y-95122748D01*
X146336025Y-95122756D01*
X146299500Y-95306379D01*
X131370500Y-95306379D01*
X131370500Y-89826530D01*
X133619500Y-89826530D01*
X133619500Y-90033469D01*
X133659868Y-90236412D01*
X133659870Y-90236420D01*
X133739058Y-90427596D01*
X133854024Y-90599657D01*
X134000342Y-90745975D01*
X134000345Y-90745977D01*
X134172402Y-90860941D01*
X134363580Y-90940130D01*
X134542429Y-90975705D01*
X134566530Y-90980499D01*
X134566534Y-90980500D01*
X134566535Y-90980500D01*
X134773466Y-90980500D01*
X134773467Y-90980499D01*
X134976420Y-90940130D01*
X135046972Y-90910905D01*
X135116438Y-90903437D01*
X135178918Y-90934711D01*
X135182104Y-90937786D01*
X136487119Y-92242801D01*
X136487121Y-92242804D01*
X136490046Y-92245729D01*
X136491000Y-92246683D01*
X136491031Y-92246740D01*
X136526362Y-92282070D01*
X136526362Y-92282071D01*
X136619702Y-92375410D01*
X136826110Y-92540011D01*
X137049650Y-92680467D01*
X137287511Y-92795011D01*
X137536700Y-92882203D01*
X137794086Y-92940947D01*
X138056430Y-92970502D01*
X138188432Y-92970500D01*
X150386061Y-92970500D01*
X150386064Y-92970501D01*
X150437516Y-92970500D01*
X150445621Y-92970764D01*
X150648778Y-92984077D01*
X150664848Y-92986193D01*
X150860540Y-93025116D01*
X150876186Y-93029308D01*
X151065129Y-93093443D01*
X151080109Y-93099649D01*
X151259042Y-93187886D01*
X151273090Y-93195996D01*
X151438982Y-93306839D01*
X151451850Y-93316713D01*
X151604694Y-93450751D01*
X151610617Y-93456299D01*
X153118749Y-94964431D01*
X153152234Y-95025754D01*
X153147250Y-95095446D01*
X153145630Y-95099562D01*
X153136028Y-95122743D01*
X153136025Y-95122751D01*
X153099500Y-95306379D01*
X153099500Y-95493620D01*
X153136025Y-95677243D01*
X153136027Y-95677251D01*
X153207676Y-95850228D01*
X153207681Y-95850237D01*
X153311697Y-96005907D01*
X153311700Y-96005911D01*
X153444088Y-96138299D01*
X153444092Y-96138302D01*
X153599762Y-96242318D01*
X153599768Y-96242321D01*
X153599769Y-96242322D01*
X153772749Y-96313973D01*
X153953865Y-96349999D01*
X153956379Y-96350499D01*
X153956383Y-96350500D01*
X153956384Y-96350500D01*
X154143617Y-96350500D01*
X154143617Y-96350499D01*
X154292135Y-96320958D01*
X154323441Y-96314731D01*
X154393032Y-96320958D01*
X154448210Y-96363821D01*
X154471454Y-96429711D01*
X154455386Y-96497708D01*
X154435313Y-96524029D01*
X154096162Y-96863181D01*
X154034839Y-96896666D01*
X154008481Y-96899500D01*
X153951457Y-96899500D01*
X153758170Y-96937947D01*
X153758160Y-96937950D01*
X153576092Y-97013364D01*
X153576079Y-97013371D01*
X153412218Y-97122860D01*
X153412214Y-97122863D01*
X153272863Y-97262214D01*
X153272860Y-97262218D01*
X153163371Y-97426079D01*
X153163366Y-97426088D01*
X153087501Y-97609245D01*
X153043660Y-97663648D01*
X152977366Y-97685713D01*
X152909667Y-97668434D01*
X152862056Y-97617297D01*
X152858379Y-97609245D01*
X152792323Y-97449771D01*
X152792318Y-97449762D01*
X152688302Y-97294092D01*
X152688299Y-97294088D01*
X152555911Y-97161700D01*
X152555907Y-97161697D01*
X152400237Y-97057681D01*
X152400228Y-97057676D01*
X152227251Y-96986027D01*
X152227243Y-96986025D01*
X152043620Y-96949500D01*
X152043616Y-96949500D01*
X151856384Y-96949500D01*
X151856379Y-96949500D01*
X151672756Y-96986025D01*
X151672748Y-96986027D01*
X151499771Y-97057676D01*
X151499762Y-97057681D01*
X151344092Y-97161697D01*
X151344088Y-97161700D01*
X151211700Y-97294088D01*
X151211697Y-97294092D01*
X151107681Y-97449762D01*
X151107676Y-97449771D01*
X151036027Y-97622748D01*
X151036025Y-97622756D01*
X150999500Y-97806379D01*
X150999500Y-97993620D01*
X151036025Y-98177243D01*
X151036027Y-98177251D01*
X151107676Y-98350228D01*
X151107681Y-98350237D01*
X151165393Y-98436609D01*
X151186271Y-98503287D01*
X151167786Y-98570667D01*
X151115807Y-98617357D01*
X151062291Y-98629500D01*
X150237709Y-98629500D01*
X150170670Y-98609815D01*
X150124915Y-98557011D01*
X150114971Y-98487853D01*
X150134607Y-98436609D01*
X150192318Y-98350237D01*
X150192318Y-98350236D01*
X150192322Y-98350231D01*
X150263973Y-98177251D01*
X150300500Y-97993616D01*
X150300500Y-97806384D01*
X150263973Y-97622749D01*
X150192322Y-97449769D01*
X150192321Y-97449768D01*
X150192318Y-97449762D01*
X150088302Y-97294092D01*
X150088299Y-97294088D01*
X149955911Y-97161700D01*
X149955907Y-97161697D01*
X149800237Y-97057681D01*
X149800228Y-97057676D01*
X149627251Y-96986027D01*
X149627243Y-96986025D01*
X149443620Y-96949500D01*
X149443616Y-96949500D01*
X149256384Y-96949500D01*
X149256379Y-96949500D01*
X149072756Y-96986025D01*
X149072748Y-96986027D01*
X148899771Y-97057676D01*
X148899762Y-97057681D01*
X148744092Y-97161697D01*
X148744088Y-97161700D01*
X148611700Y-97294088D01*
X148611697Y-97294092D01*
X148507681Y-97449762D01*
X148507676Y-97449772D01*
X148441620Y-97609245D01*
X148397779Y-97663648D01*
X148331484Y-97685713D01*
X148263785Y-97668434D01*
X148216175Y-97617296D01*
X148212498Y-97609244D01*
X148136635Y-97426092D01*
X148136628Y-97426079D01*
X148027139Y-97262218D01*
X148027136Y-97262214D01*
X147887785Y-97122863D01*
X147887781Y-97122860D01*
X147723920Y-97013371D01*
X147723907Y-97013364D01*
X147541839Y-96937950D01*
X147541829Y-96937947D01*
X147348543Y-96899500D01*
X147348541Y-96899500D01*
X147151459Y-96899500D01*
X147151457Y-96899500D01*
X146958170Y-96937947D01*
X146958160Y-96937950D01*
X146776092Y-97013364D01*
X146776079Y-97013371D01*
X146612218Y-97122860D01*
X146612214Y-97122863D01*
X146472863Y-97262214D01*
X146472860Y-97262218D01*
X146363371Y-97426079D01*
X146363364Y-97426092D01*
X146287950Y-97608160D01*
X146287947Y-97608170D01*
X146249500Y-97801456D01*
X146249500Y-97801459D01*
X146249500Y-97998541D01*
X146249500Y-97998543D01*
X146249499Y-97998543D01*
X146287947Y-98191829D01*
X146287950Y-98191839D01*
X146363364Y-98373907D01*
X146363371Y-98373920D01*
X146472860Y-98537781D01*
X146472863Y-98537785D01*
X146612214Y-98677136D01*
X146612218Y-98677139D01*
X146776079Y-98786628D01*
X146776092Y-98786635D01*
X146958160Y-98862049D01*
X146958165Y-98862051D01*
X146958169Y-98862051D01*
X146958170Y-98862052D01*
X147151456Y-98900500D01*
X147151459Y-98900500D01*
X147208482Y-98900500D01*
X147275521Y-98920185D01*
X147296163Y-98936819D01*
X147543077Y-99183733D01*
X147543079Y-99183736D01*
X147562559Y-99203216D01*
X147562591Y-99203275D01*
X147706115Y-99346796D01*
X147903007Y-99503810D01*
X147943258Y-99535908D01*
X148200084Y-99697279D01*
X148473363Y-99828880D01*
X148473366Y-99828881D01*
X148473368Y-99828882D01*
X148535668Y-99850680D01*
X148759659Y-99929055D01*
X148759668Y-99929057D01*
X149055353Y-99996542D01*
X149055363Y-99996543D01*
X149055370Y-99996545D01*
X149356779Y-100030502D01*
X149434515Y-100030500D01*
X149501552Y-100050183D01*
X149547308Y-100102986D01*
X149557253Y-100172144D01*
X149528230Y-100235700D01*
X149510002Y-100252876D01*
X149430589Y-100313811D01*
X149430589Y-100313812D01*
X149964874Y-100848097D01*
X149933398Y-100870967D01*
X149810967Y-100993398D01*
X149788097Y-101024874D01*
X149253812Y-100490589D01*
X149253811Y-100490589D01*
X149108480Y-100679990D01*
X148987227Y-100890006D01*
X148987220Y-100890021D01*
X148894421Y-101114060D01*
X148831653Y-101348312D01*
X148800001Y-101588735D01*
X148800000Y-101588751D01*
X148800000Y-101831248D01*
X148800001Y-101831264D01*
X148831653Y-102071687D01*
X148894421Y-102305939D01*
X148987220Y-102529978D01*
X148987227Y-102529993D01*
X149108480Y-102740009D01*
X149253811Y-102929409D01*
X149253812Y-102929409D01*
X149788097Y-102395124D01*
X149810967Y-102426602D01*
X149933398Y-102549033D01*
X149964873Y-102571901D01*
X149430589Y-103106186D01*
X149430589Y-103106188D01*
X149619990Y-103251519D01*
X149830006Y-103372772D01*
X149830021Y-103372779D01*
X150054060Y-103465578D01*
X150288312Y-103528346D01*
X150528735Y-103559998D01*
X150528752Y-103560000D01*
X150771248Y-103560000D01*
X150771264Y-103559998D01*
X151011687Y-103528346D01*
X151245939Y-103465578D01*
X151469978Y-103372779D01*
X151469992Y-103372772D01*
X151680010Y-103251518D01*
X151869409Y-103106186D01*
X151335125Y-102571901D01*
X151366602Y-102549033D01*
X151489033Y-102426602D01*
X151511901Y-102395125D01*
X152046186Y-102929409D01*
X152191518Y-102740010D01*
X152312772Y-102529992D01*
X152312779Y-102529978D01*
X152405579Y-102305937D01*
X152429640Y-102216141D01*
X152429640Y-102216140D01*
X152468346Y-102071686D01*
X152499998Y-101831264D01*
X152500000Y-101831248D01*
X152500000Y-101588751D01*
X152499998Y-101588735D01*
X152468346Y-101348312D01*
X152405578Y-101114060D01*
X152312779Y-100890021D01*
X152312774Y-100890011D01*
X152281987Y-100836685D01*
X152281986Y-100836683D01*
X152248539Y-100778751D01*
X155550000Y-100778751D01*
X155550000Y-101021248D01*
X155550001Y-101021264D01*
X155581653Y-101261687D01*
X155644421Y-101495939D01*
X155737220Y-101719978D01*
X155737227Y-101719993D01*
X155858480Y-101930009D01*
X156003811Y-102119409D01*
X156003812Y-102119409D01*
X156538097Y-101585124D01*
X156560967Y-101616602D01*
X156683398Y-101739033D01*
X156714873Y-101761901D01*
X156180589Y-102296186D01*
X156180589Y-102296188D01*
X156369990Y-102441519D01*
X156580006Y-102562772D01*
X156580021Y-102562779D01*
X156804060Y-102655578D01*
X157038312Y-102718346D01*
X157278735Y-102749998D01*
X157278752Y-102750000D01*
X157521248Y-102750000D01*
X157521264Y-102749998D01*
X157761687Y-102718346D01*
X157995939Y-102655578D01*
X158219978Y-102562779D01*
X158219992Y-102562772D01*
X158430010Y-102441518D01*
X158619409Y-102296186D01*
X158085125Y-101761901D01*
X158116602Y-101739033D01*
X158239033Y-101616602D01*
X158261902Y-101585125D01*
X158796186Y-102119409D01*
X158941518Y-101930010D01*
X159062772Y-101719992D01*
X159062779Y-101719978D01*
X159155578Y-101495939D01*
X159218346Y-101261687D01*
X159249998Y-101021264D01*
X159250000Y-101021248D01*
X159250000Y-100778751D01*
X159249998Y-100778735D01*
X159218346Y-100538312D01*
X159155578Y-100304060D01*
X159062779Y-100080021D01*
X159062772Y-100080006D01*
X158941519Y-99869990D01*
X158796188Y-99680589D01*
X158796186Y-99680589D01*
X158261901Y-100214873D01*
X158239033Y-100183398D01*
X158116602Y-100060967D01*
X158085124Y-100038097D01*
X158619409Y-99503812D01*
X158619409Y-99503811D01*
X158430009Y-99358480D01*
X158219993Y-99237227D01*
X158219978Y-99237220D01*
X157995939Y-99144421D01*
X157761687Y-99081653D01*
X157521264Y-99050001D01*
X157521248Y-99050000D01*
X157278752Y-99050000D01*
X157278735Y-99050001D01*
X157038312Y-99081653D01*
X156804060Y-99144421D01*
X156580021Y-99237220D01*
X156580006Y-99237227D01*
X156369990Y-99358480D01*
X156180588Y-99503810D01*
X156180588Y-99503811D01*
X156714874Y-100038097D01*
X156683398Y-100060967D01*
X156560967Y-100183398D01*
X156538098Y-100214874D01*
X156003812Y-99680589D01*
X156003811Y-99680589D01*
X155858480Y-99869990D01*
X155737227Y-100080006D01*
X155737220Y-100080021D01*
X155644421Y-100304060D01*
X155581653Y-100538312D01*
X155550001Y-100778735D01*
X155550000Y-100778751D01*
X152248539Y-100778751D01*
X152191519Y-100679990D01*
X152046188Y-100490589D01*
X152046186Y-100490589D01*
X151511901Y-101024873D01*
X151489033Y-100993398D01*
X151366602Y-100870967D01*
X151335124Y-100848097D01*
X151869409Y-100313812D01*
X151869409Y-100313810D01*
X151789997Y-100252876D01*
X151748794Y-100196448D01*
X151744639Y-100126702D01*
X151778851Y-100065782D01*
X151840568Y-100033029D01*
X151865483Y-100030500D01*
X154256816Y-100030500D01*
X154257193Y-100030480D01*
X154333220Y-100030482D01*
X154634626Y-99996526D01*
X154634636Y-99996523D01*
X154634642Y-99996523D01*
X154840952Y-99949435D01*
X154930335Y-99929036D01*
X155216628Y-99828861D01*
X155489905Y-99697262D01*
X155746729Y-99535893D01*
X155982899Y-99347557D01*
X155986492Y-99346089D01*
X155997984Y-99332669D01*
X156035247Y-99295406D01*
X156035273Y-99295383D01*
X156042327Y-99288328D01*
X156042329Y-99288328D01*
X158543214Y-96787443D01*
X158543273Y-96787410D01*
X158579558Y-96751123D01*
X158579559Y-96751124D01*
X158686796Y-96643885D01*
X158875908Y-96406742D01*
X159037279Y-96149916D01*
X159168880Y-95876637D01*
X159269055Y-95590341D01*
X159307355Y-95422529D01*
X159336542Y-95294646D01*
X159336543Y-95294637D01*
X159336545Y-95294630D01*
X159370502Y-94993221D01*
X159370500Y-94841564D01*
X159370500Y-90837204D01*
X159390185Y-90770165D01*
X159406819Y-90749523D01*
X159410756Y-90745586D01*
X159509414Y-90646928D01*
X159611232Y-90506788D01*
X159689873Y-90352445D01*
X159743402Y-90187701D01*
X159770500Y-90016611D01*
X159770500Y-89843389D01*
X159767830Y-89826530D01*
X161619500Y-89826530D01*
X161619500Y-90033469D01*
X161659868Y-90236412D01*
X161659870Y-90236420D01*
X161739058Y-90427596D01*
X161854024Y-90599657D01*
X162000342Y-90745975D01*
X162000345Y-90745977D01*
X162172402Y-90860941D01*
X162363580Y-90940130D01*
X162542429Y-90975705D01*
X162566530Y-90980499D01*
X162566534Y-90980500D01*
X162566535Y-90980500D01*
X162773466Y-90980500D01*
X162773467Y-90980499D01*
X162976420Y-90940130D01*
X163167598Y-90860941D01*
X163339655Y-90745977D01*
X163485977Y-90599655D01*
X163600941Y-90427598D01*
X163680130Y-90236420D01*
X163720500Y-90033465D01*
X163720500Y-89826535D01*
X163720499Y-89826530D01*
X165619500Y-89826530D01*
X165619500Y-90033469D01*
X165659868Y-90236412D01*
X165659870Y-90236420D01*
X165739058Y-90427596D01*
X165854024Y-90599657D01*
X166000342Y-90745975D01*
X166000345Y-90745977D01*
X166172402Y-90860941D01*
X166363580Y-90940130D01*
X166542429Y-90975705D01*
X166566530Y-90980499D01*
X166566534Y-90980500D01*
X166566535Y-90980500D01*
X166773466Y-90980500D01*
X166773467Y-90980499D01*
X166976420Y-90940130D01*
X167167598Y-90860941D01*
X167339655Y-90745977D01*
X167485977Y-90599655D01*
X167600941Y-90427598D01*
X167680130Y-90236420D01*
X167720500Y-90033465D01*
X167720500Y-89826535D01*
X167680130Y-89623580D01*
X167600941Y-89432402D01*
X167485977Y-89260345D01*
X167485975Y-89260342D01*
X167339657Y-89114024D01*
X167168258Y-88999500D01*
X167167598Y-88999059D01*
X167142753Y-88988768D01*
X166976420Y-88919870D01*
X166976412Y-88919868D01*
X166773469Y-88879500D01*
X166773465Y-88879500D01*
X166566535Y-88879500D01*
X166566530Y-88879500D01*
X166363587Y-88919868D01*
X166363579Y-88919870D01*
X166172403Y-88999058D01*
X166000342Y-89114024D01*
X165854024Y-89260342D01*
X165739058Y-89432403D01*
X165659870Y-89623579D01*
X165659868Y-89623587D01*
X165619500Y-89826530D01*
X163720499Y-89826530D01*
X163680130Y-89623580D01*
X163600941Y-89432402D01*
X163485977Y-89260345D01*
X163485975Y-89260342D01*
X163339657Y-89114024D01*
X163168258Y-88999500D01*
X163167598Y-88999059D01*
X163142753Y-88988768D01*
X162976420Y-88919870D01*
X162976412Y-88919868D01*
X162773469Y-88879500D01*
X162773465Y-88879500D01*
X162566535Y-88879500D01*
X162566530Y-88879500D01*
X162363587Y-88919868D01*
X162363579Y-88919870D01*
X162172403Y-88999058D01*
X162000342Y-89114024D01*
X161854024Y-89260342D01*
X161739058Y-89432403D01*
X161659870Y-89623579D01*
X161659868Y-89623587D01*
X161619500Y-89826530D01*
X159767830Y-89826530D01*
X159743402Y-89672299D01*
X159689873Y-89507555D01*
X159611232Y-89353212D01*
X159509414Y-89213072D01*
X159386928Y-89090586D01*
X159246788Y-88988768D01*
X159092445Y-88910127D01*
X158927701Y-88856598D01*
X158927699Y-88856597D01*
X158927698Y-88856597D01*
X158796271Y-88835781D01*
X158756611Y-88829500D01*
X158583389Y-88829500D01*
X158543728Y-88835781D01*
X158412302Y-88856597D01*
X158247552Y-88910128D01*
X158093211Y-88988768D01*
X158013256Y-89046859D01*
X157953072Y-89090586D01*
X157953070Y-89090588D01*
X157953069Y-89090588D01*
X157830588Y-89213069D01*
X157830588Y-89213070D01*
X157830586Y-89213072D01*
X157796242Y-89260342D01*
X157728768Y-89353211D01*
X157650128Y-89507552D01*
X157596597Y-89672302D01*
X157589406Y-89717708D01*
X157569500Y-89843389D01*
X157569500Y-90016611D01*
X157596598Y-90187701D01*
X157650127Y-90352445D01*
X157728768Y-90506788D01*
X157830586Y-90646928D01*
X157830588Y-90646930D01*
X157933181Y-90749523D01*
X157966666Y-90810846D01*
X157969500Y-90837204D01*
X157969500Y-94762650D01*
X157969499Y-94762655D01*
X157969499Y-94785142D01*
X157969499Y-94798399D01*
X157969499Y-94836710D01*
X157969117Y-94846437D01*
X157954269Y-95035142D01*
X157951225Y-95054361D01*
X157908180Y-95233664D01*
X157902168Y-95252170D01*
X157840937Y-95400000D01*
X157831605Y-95422529D01*
X157822771Y-95439866D01*
X157726424Y-95597094D01*
X157714987Y-95612836D01*
X157592217Y-95756584D01*
X157585607Y-95763734D01*
X155262181Y-98087161D01*
X155242744Y-98097773D01*
X155226011Y-98112274D01*
X155212679Y-98114190D01*
X155200858Y-98120646D01*
X155178771Y-98119066D01*
X155156853Y-98122218D01*
X155144601Y-98116622D01*
X155131166Y-98115662D01*
X155113439Y-98102391D01*
X155093297Y-98093193D01*
X155086014Y-98081861D01*
X155075233Y-98073790D01*
X155067495Y-98053044D01*
X155055523Y-98034415D01*
X155052371Y-98012496D01*
X155050816Y-98008326D01*
X155050500Y-97999480D01*
X155050500Y-97941519D01*
X155070185Y-97874480D01*
X155086819Y-97853838D01*
X156403214Y-96537443D01*
X156403273Y-96537410D01*
X156439558Y-96501123D01*
X156439559Y-96501124D01*
X156546796Y-96393885D01*
X156735908Y-96156742D01*
X156897279Y-95899916D01*
X157028880Y-95626637D01*
X157129055Y-95340341D01*
X157161890Y-95196474D01*
X157196542Y-95044646D01*
X157196543Y-95044637D01*
X157196545Y-95044630D01*
X157230502Y-94743221D01*
X157230500Y-94591564D01*
X157230500Y-94581242D01*
X157230500Y-94279434D01*
X157230500Y-94273252D01*
X157230480Y-94272865D01*
X157230482Y-94196780D01*
X157196526Y-93895374D01*
X157196523Y-93895363D01*
X157196523Y-93895357D01*
X157129038Y-93599674D01*
X157129036Y-93599665D01*
X157028861Y-93313372D01*
X156897262Y-93040095D01*
X156735893Y-92783271D01*
X156546783Y-92546130D01*
X156494182Y-92493528D01*
X156494160Y-92493503D01*
X156207443Y-92206786D01*
X156207410Y-92206726D01*
X156063884Y-92063203D01*
X155826745Y-91874094D01*
X155826736Y-91874088D01*
X155744310Y-91822298D01*
X155569916Y-91712721D01*
X155296637Y-91581120D01*
X155296631Y-91581117D01*
X155072646Y-91502745D01*
X155010341Y-91480945D01*
X155010337Y-91480944D01*
X155010331Y-91480942D01*
X154714646Y-91413457D01*
X154714619Y-91413453D01*
X154413226Y-91379498D01*
X154413221Y-91379498D01*
X154261564Y-91379500D01*
X153734954Y-91379500D01*
X153727348Y-91379499D01*
X153727345Y-91379499D01*
X153690947Y-91379499D01*
X153653287Y-91379499D01*
X153653286Y-91379498D01*
X153643562Y-91379117D01*
X153454857Y-91364269D01*
X153435638Y-91361225D01*
X153256338Y-91318181D01*
X153237833Y-91312169D01*
X153067468Y-91241604D01*
X153050130Y-91232770D01*
X152892905Y-91136425D01*
X152877163Y-91124988D01*
X152733409Y-91002212D01*
X152726259Y-90995602D01*
X151806819Y-90076162D01*
X151773334Y-90014839D01*
X151770500Y-89988481D01*
X151770500Y-89843400D01*
X151770500Y-89843389D01*
X151764420Y-89804999D01*
X153624292Y-89804999D01*
X153624292Y-89805000D01*
X154134092Y-89805000D01*
X154120000Y-89857591D01*
X154120000Y-90002409D01*
X154134092Y-90055000D01*
X153624292Y-90055000D01*
X153660348Y-90236266D01*
X153660350Y-90236274D01*
X153739500Y-90427358D01*
X153739505Y-90427368D01*
X153854410Y-90599335D01*
X153854413Y-90599339D01*
X154000660Y-90745586D01*
X154000664Y-90745589D01*
X154172631Y-90860494D01*
X154172641Y-90860499D01*
X154363723Y-90939648D01*
X154363725Y-90939649D01*
X154545000Y-90975705D01*
X154545000Y-90465908D01*
X154597591Y-90480000D01*
X154742409Y-90480000D01*
X154795000Y-90465908D01*
X154795000Y-90975705D01*
X154976274Y-90939649D01*
X154976276Y-90939648D01*
X155167358Y-90860499D01*
X155167368Y-90860494D01*
X155339335Y-90745589D01*
X155339339Y-90745586D01*
X155485586Y-90599339D01*
X155485589Y-90599335D01*
X155600494Y-90427368D01*
X155600499Y-90427358D01*
X155679649Y-90236274D01*
X155679651Y-90236266D01*
X155715707Y-90055000D01*
X155205908Y-90055000D01*
X155220000Y-90002409D01*
X155220000Y-89857591D01*
X155205908Y-89805000D01*
X155715708Y-89805000D01*
X155715707Y-89804999D01*
X155679651Y-89623733D01*
X155679649Y-89623725D01*
X155600499Y-89432641D01*
X155600494Y-89432631D01*
X155485589Y-89260664D01*
X155485586Y-89260660D01*
X155339339Y-89114413D01*
X155339335Y-89114410D01*
X155167368Y-88999505D01*
X155167358Y-88999500D01*
X154976274Y-88920350D01*
X154976266Y-88920348D01*
X154795000Y-88884292D01*
X154795000Y-89394091D01*
X154742409Y-89380000D01*
X154597591Y-89380000D01*
X154545000Y-89394091D01*
X154545000Y-88884292D01*
X154544999Y-88884292D01*
X154363733Y-88920348D01*
X154363725Y-88920350D01*
X154172641Y-88999500D01*
X154172631Y-88999505D01*
X154000664Y-89114410D01*
X154000660Y-89114413D01*
X153854413Y-89260660D01*
X153854410Y-89260664D01*
X153739505Y-89432631D01*
X153739500Y-89432641D01*
X153660350Y-89623725D01*
X153660348Y-89623733D01*
X153624292Y-89804999D01*
X151764420Y-89804999D01*
X151743402Y-89672299D01*
X151689873Y-89507555D01*
X151611232Y-89353212D01*
X151509414Y-89213072D01*
X151386928Y-89090586D01*
X151246788Y-88988768D01*
X151092445Y-88910127D01*
X150927701Y-88856598D01*
X150927699Y-88856597D01*
X150927698Y-88856597D01*
X150796271Y-88835781D01*
X150756611Y-88829500D01*
X150583389Y-88829500D01*
X150543728Y-88835781D01*
X150412302Y-88856597D01*
X150247552Y-88910128D01*
X150093211Y-88988768D01*
X150013256Y-89046859D01*
X149953072Y-89090586D01*
X149953070Y-89090588D01*
X149953069Y-89090588D01*
X149830588Y-89213069D01*
X149830588Y-89213070D01*
X149830586Y-89213072D01*
X149796242Y-89260342D01*
X149728768Y-89353211D01*
X149650128Y-89507552D01*
X149596597Y-89672302D01*
X149589406Y-89717708D01*
X149569500Y-89843389D01*
X149569500Y-90016611D01*
X149596598Y-90187701D01*
X149650127Y-90352445D01*
X149728768Y-90506788D01*
X149830586Y-90646928D01*
X149953072Y-90769414D01*
X150093212Y-90871232D01*
X150247555Y-90949873D01*
X150412299Y-91003402D01*
X150583389Y-91030500D01*
X150583390Y-91030500D01*
X150728481Y-91030500D01*
X150795520Y-91050185D01*
X150816162Y-91066819D01*
X151703504Y-91954161D01*
X151703538Y-91954224D01*
X151846116Y-92096798D01*
X152078428Y-92282057D01*
X152083259Y-92285909D01*
X152340085Y-92447280D01*
X152613364Y-92578880D01*
X152613365Y-92578880D01*
X152613366Y-92578881D01*
X152684938Y-92603923D01*
X152899660Y-92679055D01*
X152899669Y-92679057D01*
X153195354Y-92746542D01*
X153195364Y-92746543D01*
X153195371Y-92746545D01*
X153496779Y-92780502D01*
X153648436Y-92780500D01*
X154182651Y-92780500D01*
X154182655Y-92780501D01*
X154256711Y-92780500D01*
X154266436Y-92780881D01*
X154455148Y-92795731D01*
X154474355Y-92798773D01*
X154653664Y-92841819D01*
X154672160Y-92847827D01*
X154842542Y-92918400D01*
X154859864Y-92927227D01*
X154930484Y-92970502D01*
X155017098Y-93023578D01*
X155032833Y-93035010D01*
X155176592Y-93157788D01*
X155183729Y-93164386D01*
X155445423Y-93426080D01*
X155452033Y-93433230D01*
X155574974Y-93577177D01*
X155586405Y-93592911D01*
X155682756Y-93750145D01*
X155691585Y-93767474D01*
X155762150Y-93937840D01*
X155768162Y-93956345D01*
X155811205Y-94135641D01*
X155814249Y-94154860D01*
X155829117Y-94343818D01*
X155829499Y-94353543D01*
X155829499Y-94391014D01*
X155829499Y-94427345D01*
X155829499Y-94427348D01*
X155829500Y-94434948D01*
X155829500Y-94506521D01*
X155829499Y-94506543D01*
X155829499Y-94586710D01*
X155829117Y-94596437D01*
X155814269Y-94785142D01*
X155811225Y-94804361D01*
X155768180Y-94983664D01*
X155762168Y-95002170D01*
X155748511Y-95035142D01*
X155711833Y-95123694D01*
X155691605Y-95172529D01*
X155682771Y-95189866D01*
X155586424Y-95347094D01*
X155574987Y-95362836D01*
X155452217Y-95506584D01*
X155445607Y-95513734D01*
X155174029Y-95785312D01*
X155112706Y-95818797D01*
X155043014Y-95813813D01*
X154987081Y-95771941D01*
X154962664Y-95706477D01*
X154964731Y-95673440D01*
X154981262Y-95590331D01*
X155000500Y-95493616D01*
X155000500Y-95306384D01*
X154963973Y-95122749D01*
X154892322Y-94949769D01*
X154892321Y-94949768D01*
X154892318Y-94949762D01*
X154788302Y-94794092D01*
X154788299Y-94794088D01*
X154655911Y-94661700D01*
X154655907Y-94661697D01*
X154500237Y-94557681D01*
X154500228Y-94557676D01*
X154327251Y-94486027D01*
X154327243Y-94486025D01*
X154143620Y-94449500D01*
X154143616Y-94449500D01*
X153956384Y-94449500D01*
X153956379Y-94449500D01*
X153772751Y-94486025D01*
X153772743Y-94486028D01*
X153749562Y-94495630D01*
X153680093Y-94503097D01*
X153617614Y-94471821D01*
X153614431Y-94468749D01*
X152139011Y-92993329D01*
X152138978Y-92993269D01*
X152072936Y-92927228D01*
X152010299Y-92864591D01*
X151923048Y-92795012D01*
X151803894Y-92699992D01*
X151803885Y-92699986D01*
X151718431Y-92646293D01*
X151580351Y-92559533D01*
X151358286Y-92452595D01*
X151342488Y-92444988D01*
X151342486Y-92444987D01*
X151143637Y-92375410D01*
X151093300Y-92357797D01*
X151093296Y-92357796D01*
X151093290Y-92357794D01*
X150835931Y-92299056D01*
X150835904Y-92299052D01*
X150573575Y-92269498D01*
X150573570Y-92269498D01*
X150441568Y-92269500D01*
X138253934Y-92269500D01*
X138243938Y-92269499D01*
X138243936Y-92269499D01*
X138219515Y-92269499D01*
X138192483Y-92269499D01*
X138192482Y-92269498D01*
X138184377Y-92269234D01*
X137981228Y-92255922D01*
X137965147Y-92253805D01*
X137769468Y-92214885D01*
X137753800Y-92210687D01*
X137564879Y-92146559D01*
X137549894Y-92140352D01*
X137370955Y-92052112D01*
X137356907Y-92044002D01*
X137191018Y-91933161D01*
X137178150Y-91923287D01*
X137025305Y-91789248D01*
X137019382Y-91783700D01*
X135677786Y-90442104D01*
X135644301Y-90380781D01*
X135649285Y-90311089D01*
X135650887Y-90307015D01*
X135680130Y-90236420D01*
X135720500Y-90033465D01*
X135720500Y-89826535D01*
X135720499Y-89826530D01*
X137619500Y-89826530D01*
X137619500Y-90033469D01*
X137659868Y-90236412D01*
X137659870Y-90236420D01*
X137739058Y-90427596D01*
X137854024Y-90599657D01*
X138000342Y-90745975D01*
X138000345Y-90745977D01*
X138172402Y-90860941D01*
X138363580Y-90940130D01*
X138542429Y-90975705D01*
X138566530Y-90980499D01*
X138566534Y-90980500D01*
X138566535Y-90980500D01*
X138773466Y-90980500D01*
X138773467Y-90980499D01*
X138976420Y-90940130D01*
X139167598Y-90860941D01*
X139339655Y-90745977D01*
X139485977Y-90599655D01*
X139600941Y-90427598D01*
X139680130Y-90236420D01*
X139720500Y-90033465D01*
X139720500Y-89826535D01*
X139720499Y-89826530D01*
X141619500Y-89826530D01*
X141619500Y-90033469D01*
X141659868Y-90236412D01*
X141659870Y-90236420D01*
X141739058Y-90427596D01*
X141854024Y-90599657D01*
X142000342Y-90745975D01*
X142000345Y-90745977D01*
X142172402Y-90860941D01*
X142363580Y-90940130D01*
X142542429Y-90975705D01*
X142566530Y-90980499D01*
X142566534Y-90980500D01*
X142566535Y-90980500D01*
X142773466Y-90980500D01*
X142773467Y-90980499D01*
X142976420Y-90940130D01*
X143167598Y-90860941D01*
X143339655Y-90745977D01*
X143485977Y-90599655D01*
X143600941Y-90427598D01*
X143680130Y-90236420D01*
X143720500Y-90033465D01*
X143720500Y-89826535D01*
X143720499Y-89826530D01*
X145619500Y-89826530D01*
X145619500Y-90033469D01*
X145659868Y-90236412D01*
X145659870Y-90236420D01*
X145739058Y-90427596D01*
X145854024Y-90599657D01*
X146000342Y-90745975D01*
X146000345Y-90745977D01*
X146172402Y-90860941D01*
X146363580Y-90940130D01*
X146542429Y-90975705D01*
X146566530Y-90980499D01*
X146566534Y-90980500D01*
X146566535Y-90980500D01*
X146773466Y-90980500D01*
X146773467Y-90980499D01*
X146976420Y-90940130D01*
X147167598Y-90860941D01*
X147339655Y-90745977D01*
X147485977Y-90599655D01*
X147600941Y-90427598D01*
X147680130Y-90236420D01*
X147720500Y-90033465D01*
X147720500Y-89826535D01*
X147680130Y-89623580D01*
X147600941Y-89432402D01*
X147485977Y-89260345D01*
X147485975Y-89260342D01*
X147339657Y-89114024D01*
X147168258Y-88999500D01*
X147167598Y-88999059D01*
X147142753Y-88988768D01*
X146976420Y-88919870D01*
X146976412Y-88919868D01*
X146773469Y-88879500D01*
X146773465Y-88879500D01*
X146566535Y-88879500D01*
X146566530Y-88879500D01*
X146363587Y-88919868D01*
X146363579Y-88919870D01*
X146172403Y-88999058D01*
X146000342Y-89114024D01*
X145854024Y-89260342D01*
X145739058Y-89432403D01*
X145659870Y-89623579D01*
X145659868Y-89623587D01*
X145619500Y-89826530D01*
X143720499Y-89826530D01*
X143680130Y-89623580D01*
X143600941Y-89432402D01*
X143485977Y-89260345D01*
X143485975Y-89260342D01*
X143339657Y-89114024D01*
X143168258Y-88999500D01*
X143167598Y-88999059D01*
X143142753Y-88988768D01*
X142976420Y-88919870D01*
X142976412Y-88919868D01*
X142773469Y-88879500D01*
X142773465Y-88879500D01*
X142566535Y-88879500D01*
X142566530Y-88879500D01*
X142363587Y-88919868D01*
X142363579Y-88919870D01*
X142172403Y-88999058D01*
X142000342Y-89114024D01*
X141854024Y-89260342D01*
X141739058Y-89432403D01*
X141659870Y-89623579D01*
X141659868Y-89623587D01*
X141619500Y-89826530D01*
X139720499Y-89826530D01*
X139680130Y-89623580D01*
X139600941Y-89432402D01*
X139485977Y-89260345D01*
X139485975Y-89260342D01*
X139339657Y-89114024D01*
X139168258Y-88999500D01*
X139167598Y-88999059D01*
X139142753Y-88988768D01*
X138976420Y-88919870D01*
X138976412Y-88919868D01*
X138773469Y-88879500D01*
X138773465Y-88879500D01*
X138566535Y-88879500D01*
X138566530Y-88879500D01*
X138363587Y-88919868D01*
X138363579Y-88919870D01*
X138172403Y-88999058D01*
X138000342Y-89114024D01*
X137854024Y-89260342D01*
X137739058Y-89432403D01*
X137659870Y-89623579D01*
X137659868Y-89623587D01*
X137619500Y-89826530D01*
X135720499Y-89826530D01*
X135680130Y-89623580D01*
X135600941Y-89432402D01*
X135485977Y-89260345D01*
X135485975Y-89260342D01*
X135339657Y-89114024D01*
X135168258Y-88999500D01*
X135167598Y-88999059D01*
X135142753Y-88988768D01*
X134976420Y-88919870D01*
X134976412Y-88919868D01*
X134773469Y-88879500D01*
X134773465Y-88879500D01*
X134566535Y-88879500D01*
X134566530Y-88879500D01*
X134363587Y-88919868D01*
X134363579Y-88919870D01*
X134172403Y-88999058D01*
X134000342Y-89114024D01*
X133854024Y-89260342D01*
X133739058Y-89432403D01*
X133659870Y-89623579D01*
X133659868Y-89623587D01*
X133619500Y-89826530D01*
X131370500Y-89826530D01*
X131370500Y-87954500D01*
X131390185Y-87887461D01*
X131442989Y-87841706D01*
X131494500Y-87830500D01*
X169845500Y-87830500D01*
X169912539Y-87850185D01*
G37*
%TD.AperFunction*%
%TD*%
M02*
