%TF.GenerationSoftware,KiCad,Pcbnew,9.0.6*%
%TF.CreationDate,2026-02-06T14:40:20-05:00*%
%TF.ProjectId,DQ PS2 Controller Adapter,44512050-5332-4204-936f-6e74726f6c6c,1.0*%
%TF.SameCoordinates,Original*%
%TF.FileFunction,Legend,Top*%
%TF.FilePolarity,Positive*%
%FSLAX46Y46*%
G04 Gerber Fmt 4.6, Leading zero omitted, Abs format (unit mm)*
G04 Created by KiCad (PCBNEW 9.0.6) date 2026-02-06 14:40:20*
%MOMM*%
%LPD*%
G01*
G04 APERTURE LIST*
%ADD10C,0.152000*%
%ADD11C,0.150000*%
G04 APERTURE END LIST*
D10*
G36*
X146295153Y-104055233D02*
G01*
X146295153Y-105199206D01*
X146288815Y-105274555D01*
X146270498Y-105341471D01*
X146240593Y-105401490D01*
X146198616Y-105455752D01*
X146146058Y-105500804D01*
X146084127Y-105535711D01*
X146014390Y-105557389D01*
X145929704Y-105565112D01*
X145862426Y-105559666D01*
X145806029Y-105544327D01*
X145758521Y-105519958D01*
X145695109Y-105473095D01*
X145650443Y-105430565D01*
X145818421Y-105296017D01*
X145871910Y-105334944D01*
X145903271Y-105346779D01*
X145936024Y-105350697D01*
X145980079Y-105343370D01*
X146004226Y-105332922D01*
X146028439Y-105314977D01*
X146048861Y-105292881D01*
X146066175Y-105261396D01*
X146076823Y-105223613D01*
X146080921Y-105169805D01*
X146080921Y-104055233D01*
X146295153Y-104055233D01*
G37*
G36*
X146840837Y-104477937D02*
G01*
X146903134Y-104496702D01*
X146958970Y-104526971D01*
X147005075Y-104566128D01*
X147051188Y-104633470D01*
X147079325Y-104711756D01*
X147089156Y-104803990D01*
X147089156Y-105098639D01*
X146664448Y-105098639D01*
X146664448Y-105242895D01*
X146672002Y-105288415D01*
X146692841Y-105320106D01*
X146725222Y-105340130D01*
X146769778Y-105347308D01*
X146808571Y-105342662D01*
X146834291Y-105330530D01*
X146850744Y-105311863D01*
X146866966Y-105275753D01*
X146874924Y-105240788D01*
X147089156Y-105240788D01*
X147078986Y-105330882D01*
X147050124Y-105405210D01*
X147002968Y-105467293D01*
X146957025Y-105506418D01*
X146902035Y-105536536D01*
X146840691Y-105555207D01*
X146769686Y-105561723D01*
X146703505Y-105556703D01*
X146646931Y-105542472D01*
X146598319Y-105519774D01*
X146535848Y-105470645D01*
X146490058Y-105408308D01*
X146470922Y-105364056D01*
X146458551Y-105311771D01*
X146450216Y-105191970D01*
X146450216Y-104841176D01*
X146452574Y-104807288D01*
X146664448Y-104807288D01*
X146664448Y-104928646D01*
X146874924Y-104928646D01*
X146874924Y-104807288D01*
X146867094Y-104751895D01*
X146846531Y-104716246D01*
X146813899Y-104693742D01*
X146769778Y-104685838D01*
X146725498Y-104693749D01*
X146692841Y-104716246D01*
X146672278Y-104751895D01*
X146664448Y-104807288D01*
X146452574Y-104807288D01*
X146458551Y-104721375D01*
X146470922Y-104669091D01*
X146490058Y-104624838D01*
X146535851Y-104562520D01*
X146598319Y-104513463D01*
X146646936Y-104490714D01*
X146703510Y-104476453D01*
X146769686Y-104471423D01*
X146840837Y-104477937D01*
G37*
G36*
X147273803Y-105550000D02*
G01*
X147273803Y-104653140D01*
X147168290Y-104653140D01*
X147168290Y-104483147D01*
X147273803Y-104483147D01*
X147273803Y-104339074D01*
X147280031Y-104265465D01*
X147296976Y-104208648D01*
X147324676Y-104159413D01*
X147360174Y-104119897D01*
X147401089Y-104089647D01*
X147447643Y-104069888D01*
X147497868Y-104058915D01*
X147549950Y-104055233D01*
X147648960Y-104055233D01*
X147648960Y-104254535D01*
X147551599Y-104254535D01*
X147516383Y-104262631D01*
X147495946Y-104285267D01*
X147488035Y-104327900D01*
X147488035Y-104483147D01*
X147648960Y-104483147D01*
X147648960Y-104653140D01*
X147488035Y-104653140D01*
X147488035Y-105550000D01*
X147273803Y-105550000D01*
G37*
G36*
X147739819Y-105550000D02*
G01*
X147739819Y-104653140D01*
X147634306Y-104653140D01*
X147634306Y-104483147D01*
X147739819Y-104483147D01*
X147739819Y-104339074D01*
X147746047Y-104265465D01*
X147762991Y-104208648D01*
X147790691Y-104159413D01*
X147826189Y-104119897D01*
X147867104Y-104089647D01*
X147913658Y-104069888D01*
X147963883Y-104058915D01*
X148015966Y-104055233D01*
X148114976Y-104055233D01*
X148114976Y-104254535D01*
X148017614Y-104254535D01*
X147982398Y-104262631D01*
X147961961Y-104285267D01*
X147954050Y-104327900D01*
X147954050Y-104483147D01*
X148114976Y-104483147D01*
X148114976Y-104653140D01*
X147954050Y-104653140D01*
X147954050Y-105550000D01*
X147739819Y-105550000D01*
G37*
G36*
X149258032Y-105122452D02*
G01*
X149258032Y-105214959D01*
X149251436Y-105282698D01*
X149231837Y-105346301D01*
X149200635Y-105404932D01*
X149159572Y-105456577D01*
X149109593Y-105499858D01*
X149051494Y-105533330D01*
X148987700Y-105554547D01*
X148918504Y-105561723D01*
X148857677Y-105557580D01*
X148794765Y-105544870D01*
X148735122Y-105521748D01*
X148681650Y-105485977D01*
X148636418Y-105438755D01*
X148598851Y-105377808D01*
X148575186Y-105306058D01*
X148566336Y-105208640D01*
X148566336Y-104384778D01*
X148572735Y-104313189D01*
X148591432Y-104248216D01*
X148622037Y-104189080D01*
X148662782Y-104138948D01*
X148712935Y-104097938D01*
X148772783Y-104066407D01*
X148839188Y-104046876D01*
X148914291Y-104040121D01*
X148988246Y-104046669D01*
X149052668Y-104065472D01*
X149109350Y-104096043D01*
X149159572Y-104138948D01*
X149200387Y-104191251D01*
X149231837Y-104253436D01*
X149251342Y-104321768D01*
X149258032Y-104397418D01*
X149258032Y-104481498D01*
X149043801Y-104481498D01*
X149043801Y-104409965D01*
X149034746Y-104350689D01*
X149008263Y-104300789D01*
X148981752Y-104275064D01*
X148950273Y-104259825D01*
X148912184Y-104254535D01*
X148862031Y-104260900D01*
X148828439Y-104277674D01*
X148806671Y-104303903D01*
X148787621Y-104357332D01*
X148780568Y-104428925D01*
X148780568Y-105193985D01*
X148788013Y-105255289D01*
X148808778Y-105303162D01*
X148831119Y-105326676D01*
X148863626Y-105341686D01*
X148910078Y-105347308D01*
X148954957Y-105339981D01*
X148999928Y-105315801D01*
X149016601Y-105296514D01*
X149031161Y-105269548D01*
X149040372Y-105238006D01*
X149043801Y-105196092D01*
X149043801Y-105122452D01*
X149258032Y-105122452D01*
G37*
G36*
X149420698Y-105550000D02*
G01*
X149420698Y-104055233D01*
X149634929Y-104055233D01*
X149634929Y-104587011D01*
X149639051Y-104587011D01*
X149676159Y-104540805D01*
X149719560Y-104504030D01*
X149771371Y-104480094D01*
X149840002Y-104471423D01*
X149879405Y-104474787D01*
X149919411Y-104485070D01*
X149956823Y-104503043D01*
X149990577Y-104530316D01*
X150018288Y-104565436D01*
X150040769Y-104611283D01*
X150054542Y-104663804D01*
X150059637Y-104732091D01*
X150059637Y-105550000D01*
X149845406Y-105550000D01*
X149845406Y-104812050D01*
X149838069Y-104757619D01*
X149818295Y-104719543D01*
X149786199Y-104694592D01*
X149741175Y-104685838D01*
X149702913Y-104690638D01*
X149676174Y-104703485D01*
X149657827Y-104723756D01*
X149641405Y-104766545D01*
X149634929Y-104833025D01*
X149634929Y-105550000D01*
X149420698Y-105550000D01*
G37*
G36*
X150609992Y-104477937D02*
G01*
X150672290Y-104496702D01*
X150728125Y-104526971D01*
X150774231Y-104566128D01*
X150820343Y-104633470D01*
X150848481Y-104711756D01*
X150858311Y-104803990D01*
X150858311Y-105098639D01*
X150433603Y-105098639D01*
X150433603Y-105242895D01*
X150441157Y-105288415D01*
X150461997Y-105320106D01*
X150494378Y-105340130D01*
X150538933Y-105347308D01*
X150577726Y-105342662D01*
X150603447Y-105330530D01*
X150619900Y-105311863D01*
X150636122Y-105275753D01*
X150644080Y-105240788D01*
X150858311Y-105240788D01*
X150848142Y-105330882D01*
X150819279Y-105405210D01*
X150772124Y-105467293D01*
X150726181Y-105506418D01*
X150671191Y-105536536D01*
X150609846Y-105555207D01*
X150538842Y-105561723D01*
X150472660Y-105556703D01*
X150416086Y-105542472D01*
X150367475Y-105519774D01*
X150305003Y-105470645D01*
X150259214Y-105408308D01*
X150240078Y-105364056D01*
X150227707Y-105311771D01*
X150219372Y-105191970D01*
X150219372Y-104841176D01*
X150221730Y-104807288D01*
X150433603Y-104807288D01*
X150433603Y-104928646D01*
X150644080Y-104928646D01*
X150644080Y-104807288D01*
X150636250Y-104751895D01*
X150615687Y-104716246D01*
X150583054Y-104693742D01*
X150538933Y-104685838D01*
X150494654Y-104693749D01*
X150461997Y-104716246D01*
X150441434Y-104751895D01*
X150433603Y-104807288D01*
X150221730Y-104807288D01*
X150227707Y-104721375D01*
X150240078Y-104669091D01*
X150259214Y-104624838D01*
X150305007Y-104562520D01*
X150367475Y-104513463D01*
X150416092Y-104490714D01*
X150472666Y-104476453D01*
X150538842Y-104471423D01*
X150609992Y-104477937D01*
G37*
G36*
X151013650Y-105550000D02*
G01*
X151013650Y-104483147D01*
X151227881Y-104483147D01*
X151227881Y-104586645D01*
X151232003Y-104586645D01*
X151269103Y-104540608D01*
X151312511Y-104503938D01*
X151364316Y-104480072D01*
X151432954Y-104471423D01*
X151472356Y-104474787D01*
X151512363Y-104485070D01*
X151549775Y-104503043D01*
X151583529Y-104530316D01*
X151611240Y-104565436D01*
X151633721Y-104611283D01*
X151647494Y-104663804D01*
X151652589Y-104732091D01*
X151652589Y-105550000D01*
X151438357Y-105550000D01*
X151438357Y-104812050D01*
X151431021Y-104757619D01*
X151411247Y-104719543D01*
X151379151Y-104694592D01*
X151334127Y-104685838D01*
X151295865Y-104690638D01*
X151269125Y-104703485D01*
X151250779Y-104723756D01*
X151234357Y-104766545D01*
X151227881Y-104833025D01*
X151227881Y-105550000D01*
X151013650Y-105550000D01*
G37*
G36*
X151829909Y-105703140D02*
G01*
X151829909Y-105333112D01*
X152044141Y-105333112D01*
X152044141Y-105547527D01*
X151829909Y-105703140D01*
G37*
G36*
X152591947Y-105550000D02*
G01*
X152591947Y-105348224D01*
X152976355Y-104618427D01*
X153000212Y-104564521D01*
X153009785Y-104522714D01*
X153013999Y-104420682D01*
X153013999Y-104362888D01*
X153011242Y-104333532D01*
X153003466Y-104309124D01*
X152990441Y-104287964D01*
X152971958Y-104270289D01*
X152947929Y-104258920D01*
X152911142Y-104254535D01*
X152866833Y-104261724D01*
X152834480Y-104281830D01*
X152813807Y-104313922D01*
X152806178Y-104361697D01*
X152806178Y-104483788D01*
X152591947Y-104483788D01*
X152591947Y-104366002D01*
X152598296Y-104300482D01*
X152617043Y-104239881D01*
X152646969Y-104184505D01*
X152686103Y-104136841D01*
X152731817Y-104097393D01*
X152786578Y-104066407D01*
X152846964Y-104046759D01*
X152912149Y-104040121D01*
X152991864Y-104048183D01*
X153055489Y-104070621D01*
X153110320Y-104106726D01*
X153154957Y-104153694D01*
X153187382Y-104209414D01*
X153210370Y-104273586D01*
X153223674Y-104342268D01*
X153228230Y-104416560D01*
X153228230Y-104508060D01*
X153221910Y-104578493D01*
X153200753Y-104645812D01*
X153160636Y-104727786D01*
X152844006Y-105335585D01*
X153230886Y-105335585D01*
X153230886Y-105550000D01*
X152591947Y-105550000D01*
G37*
G36*
X153754349Y-104045664D02*
G01*
X153813314Y-104062194D01*
X153867787Y-104089317D01*
X153915255Y-104126308D01*
X153954622Y-104172209D01*
X153985597Y-104227241D01*
X154005114Y-104288913D01*
X154011975Y-104361697D01*
X154011975Y-105240239D01*
X154005118Y-105312954D01*
X153985597Y-105374694D01*
X153954628Y-105429649D01*
X153915255Y-105475536D01*
X153867787Y-105512527D01*
X153813314Y-105539650D01*
X153754349Y-105556180D01*
X153692505Y-105561723D01*
X153630582Y-105556178D01*
X153571605Y-105539650D01*
X153517132Y-105512527D01*
X153469664Y-105475536D01*
X153430218Y-105429642D01*
X153399231Y-105374694D01*
X153379847Y-105312965D01*
X153373036Y-105240239D01*
X153373036Y-104361697D01*
X153373045Y-104361605D01*
X153587267Y-104361605D01*
X153587267Y-105240147D01*
X153594785Y-105282896D01*
X153616668Y-105316900D01*
X153649945Y-105339524D01*
X153692597Y-105347308D01*
X153735075Y-105339529D01*
X153768251Y-105316900D01*
X153790205Y-105282888D01*
X153797743Y-105240147D01*
X153797743Y-104361605D01*
X153790206Y-104318959D01*
X153768251Y-104285035D01*
X153735068Y-104262335D01*
X153692597Y-104254535D01*
X153649952Y-104262340D01*
X153616668Y-104285035D01*
X153594784Y-104318951D01*
X153587267Y-104361605D01*
X153373045Y-104361605D01*
X153379851Y-104288903D01*
X153399231Y-104227241D01*
X153430224Y-104172216D01*
X153469664Y-104126308D01*
X153517132Y-104089317D01*
X153571605Y-104062194D01*
X153630582Y-104045666D01*
X153692505Y-104040121D01*
X153754349Y-104045664D01*
G37*
G36*
X154154124Y-105550000D02*
G01*
X154154124Y-105348224D01*
X154538532Y-104618427D01*
X154562389Y-104564521D01*
X154571963Y-104522714D01*
X154576176Y-104420682D01*
X154576176Y-104362888D01*
X154573420Y-104333532D01*
X154565643Y-104309124D01*
X154552618Y-104287964D01*
X154534136Y-104270289D01*
X154510107Y-104258920D01*
X154473319Y-104254535D01*
X154429010Y-104261724D01*
X154396657Y-104281830D01*
X154375984Y-104313922D01*
X154368356Y-104361697D01*
X154368356Y-104483788D01*
X154154124Y-104483788D01*
X154154124Y-104366002D01*
X154160473Y-104300482D01*
X154179220Y-104239881D01*
X154209147Y-104184505D01*
X154248280Y-104136841D01*
X154293995Y-104097393D01*
X154348755Y-104066407D01*
X154409141Y-104046759D01*
X154474327Y-104040121D01*
X154554041Y-104048183D01*
X154617667Y-104070621D01*
X154672497Y-104106726D01*
X154717135Y-104153694D01*
X154749560Y-104209414D01*
X154772547Y-104273586D01*
X154785852Y-104342268D01*
X154790407Y-104416560D01*
X154790407Y-104508060D01*
X154784088Y-104578493D01*
X154762930Y-104645812D01*
X154722813Y-104727786D01*
X154406183Y-105335585D01*
X154793064Y-105335585D01*
X154793064Y-105550000D01*
X154154124Y-105550000D01*
G37*
G36*
X155574152Y-104055233D02*
G01*
X155574152Y-104254535D01*
X155146239Y-104254535D01*
X155146239Y-104657445D01*
X155179189Y-104631259D01*
X155222442Y-104608535D01*
X155270939Y-104593779D01*
X155326307Y-104588660D01*
X155397035Y-104596463D01*
X155455815Y-104618648D01*
X155505276Y-104654880D01*
X155541952Y-104703389D01*
X155565492Y-104767943D01*
X155574152Y-104853541D01*
X155574152Y-105240239D01*
X155567296Y-105312954D01*
X155547774Y-105374694D01*
X155516805Y-105429649D01*
X155477432Y-105475536D01*
X155429964Y-105512527D01*
X155375491Y-105539650D01*
X155316526Y-105556180D01*
X155254683Y-105561723D01*
X155192759Y-105556178D01*
X155133782Y-105539650D01*
X155079316Y-105512508D01*
X155031841Y-105475444D01*
X154992396Y-105429461D01*
X154961408Y-105374419D01*
X154942028Y-105312667D01*
X154935213Y-105239781D01*
X154935213Y-105176674D01*
X155146239Y-105176674D01*
X155146239Y-105231446D01*
X155154458Y-105281515D01*
X155177196Y-105316809D01*
X155212134Y-105339444D01*
X155257339Y-105347308D01*
X155301958Y-105339537D01*
X155333176Y-105317908D01*
X155352734Y-105284103D01*
X155359921Y-105235659D01*
X155359921Y-104883766D01*
X155352708Y-104842505D01*
X155331344Y-104807929D01*
X155299086Y-104784243D01*
X155258529Y-104776238D01*
X155232435Y-104778849D01*
X155212093Y-104786038D01*
X155180402Y-104808753D01*
X155161443Y-104836871D01*
X155148712Y-104856380D01*
X154958660Y-104856380D01*
X154958660Y-104055233D01*
X155574152Y-104055233D01*
G37*
G36*
X134196065Y-93940000D02*
G01*
X134196065Y-92445233D01*
X134410296Y-92445233D01*
X134410296Y-93084173D01*
X134673529Y-93084173D01*
X134673529Y-92445233D01*
X134887760Y-92445233D01*
X134887760Y-93940000D01*
X134673529Y-93940000D01*
X134673529Y-93271751D01*
X134410296Y-93271751D01*
X134410296Y-93940000D01*
X134196065Y-93940000D01*
G37*
G36*
X135501922Y-92435848D02*
G01*
X135566633Y-92453293D01*
X135627794Y-92481615D01*
X135683229Y-92520521D01*
X135728388Y-92571732D01*
X135765111Y-92636109D01*
X135788402Y-92708988D01*
X135796618Y-92795752D01*
X135796618Y-93586092D01*
X135788254Y-93676205D01*
X135765111Y-93747841D01*
X135728412Y-93810052D01*
X135683229Y-93859216D01*
X135627657Y-93899808D01*
X135566633Y-93928642D01*
X135501925Y-93946018D01*
X135437490Y-93951723D01*
X135372975Y-93946016D01*
X135308255Y-93928642D01*
X135247598Y-93899713D01*
X135193766Y-93859216D01*
X135146947Y-93809899D01*
X135109777Y-93747841D01*
X135086634Y-93676205D01*
X135078270Y-93586092D01*
X135078270Y-92795752D01*
X135292501Y-92795752D01*
X135292501Y-93586092D01*
X135297908Y-93636015D01*
X135312579Y-93673125D01*
X135335549Y-93700580D01*
X135382300Y-93728033D01*
X135437490Y-93737308D01*
X135492601Y-93728037D01*
X135539339Y-93700580D01*
X135562310Y-93673125D01*
X135576980Y-93636015D01*
X135582387Y-93586092D01*
X135582387Y-92795752D01*
X135576978Y-92745831D01*
X135562306Y-92708755D01*
X135539339Y-92681355D01*
X135492594Y-92653828D01*
X135437490Y-92644535D01*
X135382306Y-92653832D01*
X135335549Y-92681355D01*
X135312582Y-92708755D01*
X135297911Y-92745831D01*
X135292501Y-92795752D01*
X135078270Y-92795752D01*
X135086486Y-92708988D01*
X135109777Y-92636109D01*
X135146976Y-92571884D01*
X135193766Y-92520521D01*
X135247457Y-92481711D01*
X135308255Y-92453293D01*
X135372979Y-92435850D01*
X135437490Y-92430121D01*
X135501922Y-92435848D01*
G37*
G36*
X136430864Y-92454795D02*
G01*
X136512942Y-92481256D01*
X136578401Y-92522900D01*
X136630231Y-92580302D01*
X136669539Y-92656239D01*
X136695390Y-92755342D01*
X136704927Y-92883680D01*
X136699932Y-92971205D01*
X136685913Y-93045398D01*
X136663986Y-93108261D01*
X136630689Y-93164688D01*
X136583452Y-93214171D01*
X136520096Y-93257280D01*
X136751089Y-93940000D01*
X136524310Y-93940000D01*
X136325648Y-93301060D01*
X136198154Y-93301060D01*
X136198154Y-93940000D01*
X135983922Y-93940000D01*
X135983922Y-93113482D01*
X136198154Y-93113482D01*
X136319329Y-93113482D01*
X136372488Y-93109066D01*
X136409180Y-93097636D01*
X136439209Y-93078142D01*
X136461478Y-93052207D01*
X136475230Y-93020368D01*
X136484467Y-92979301D01*
X136490696Y-92879009D01*
X136484467Y-92778716D01*
X136474813Y-92737486D01*
X136459371Y-92703612D01*
X136428010Y-92672705D01*
X136380055Y-92652342D01*
X136308887Y-92644535D01*
X136198154Y-92644535D01*
X136198154Y-93113482D01*
X135983922Y-93113482D01*
X135983922Y-92445233D01*
X136327664Y-92445233D01*
X136430864Y-92454795D01*
G37*
G36*
X136883713Y-93940000D02*
G01*
X136883713Y-92445233D01*
X137097944Y-92445233D01*
X137097944Y-93940000D01*
X136883713Y-93940000D01*
G37*
G36*
X138104109Y-92452403D02*
G01*
X138179448Y-92472371D01*
X138241239Y-92503676D01*
X138291834Y-92546075D01*
X138331910Y-92598878D01*
X138361590Y-92662502D01*
X138380504Y-92739133D01*
X138387272Y-92831564D01*
X138387272Y-93530679D01*
X138379761Y-93636617D01*
X138359163Y-93720908D01*
X138327524Y-93787702D01*
X138285606Y-93840257D01*
X138232132Y-93882104D01*
X138167246Y-93913111D01*
X138088596Y-93932902D01*
X137993155Y-93940000D01*
X137695576Y-93940000D01*
X137695576Y-93740697D01*
X137909808Y-93740697D01*
X138007993Y-93740697D01*
X138066075Y-93734783D01*
X138107030Y-93719146D01*
X138135396Y-93695360D01*
X138154883Y-93662846D01*
X138168043Y-93616887D01*
X138173040Y-93553119D01*
X138173040Y-92830007D01*
X138163228Y-92748004D01*
X138137503Y-92692987D01*
X138109998Y-92667668D01*
X138068622Y-92650935D01*
X138007993Y-92644535D01*
X137909808Y-92644535D01*
X137909808Y-93740697D01*
X137695576Y-93740697D01*
X137695576Y-92445233D01*
X138012115Y-92445233D01*
X138104109Y-92452403D01*
G37*
G36*
X138577781Y-93940000D02*
G01*
X138577781Y-92873147D01*
X138792013Y-92873147D01*
X138792013Y-92987178D01*
X138858323Y-92933621D01*
X138920240Y-92895037D01*
X138988233Y-92870389D01*
X139076037Y-92861423D01*
X139076037Y-93088477D01*
X139043885Y-93078988D01*
X139010824Y-93075838D01*
X138938192Y-93087470D01*
X138901234Y-93102887D01*
X138867759Y-93126304D01*
X138837616Y-93157356D01*
X138812987Y-93197837D01*
X138797652Y-93245213D01*
X138792013Y-93307105D01*
X138792013Y-93940000D01*
X138577781Y-93940000D01*
G37*
G36*
X139513032Y-92866784D02*
G01*
X139573468Y-92882489D01*
X139628855Y-92908803D01*
X139676599Y-92945412D01*
X139713890Y-92991848D01*
X139743919Y-93050559D01*
X139762532Y-93116836D01*
X139769198Y-93197562D01*
X139769198Y-93939175D01*
X139554966Y-93939175D01*
X139554966Y-93830823D01*
X139550753Y-93830823D01*
X139506751Y-93884151D01*
X139465482Y-93920491D01*
X139416632Y-93943113D01*
X139344307Y-93951723D01*
X139267462Y-93940091D01*
X139230060Y-93924008D01*
X139192724Y-93897135D01*
X139161281Y-93862555D01*
X139134747Y-93812047D01*
X139118770Y-93751885D01*
X139112673Y-93668157D01*
X139114490Y-93627857D01*
X139326905Y-93627857D01*
X139334754Y-93684339D01*
X139356489Y-93726409D01*
X139391344Y-93754470D01*
X139438829Y-93764145D01*
X139488498Y-93754868D01*
X139524283Y-93728516D01*
X139546637Y-93687594D01*
X139554966Y-93627857D01*
X139554966Y-93483235D01*
X139495799Y-93476915D01*
X139429906Y-93485376D01*
X139376455Y-93509430D01*
X139350234Y-93535059D01*
X139333300Y-93572977D01*
X139326905Y-93627857D01*
X139114490Y-93627857D01*
X139116614Y-93580757D01*
X139127419Y-93509705D01*
X139148946Y-93445962D01*
X139182191Y-93395216D01*
X139225861Y-93357294D01*
X139285414Y-93328995D01*
X139355473Y-93313015D01*
X139451835Y-93306922D01*
X139474916Y-93306922D01*
X139498088Y-93309029D01*
X139523367Y-93311135D01*
X139554966Y-93313242D01*
X139554966Y-93201959D01*
X139548774Y-93150584D01*
X139531702Y-93111558D01*
X139513363Y-93092627D01*
X139486314Y-93080435D01*
X139447255Y-93075838D01*
X139407112Y-93082582D01*
X139370227Y-93103132D01*
X139342034Y-93135760D01*
X139324798Y-93182999D01*
X139116886Y-93182999D01*
X139132058Y-93091418D01*
X139164421Y-93015403D01*
X139213698Y-92951823D01*
X139259531Y-92914525D01*
X139314631Y-92885603D01*
X139376093Y-92867687D01*
X139447255Y-92861423D01*
X139513032Y-92866784D01*
G37*
G36*
X140216345Y-92872780D02*
G01*
X140267636Y-92895678D01*
X140309494Y-92930208D01*
X140349244Y-92972981D01*
X140349244Y-92876078D01*
X140563476Y-92876078D01*
X140563476Y-94072165D01*
X140559083Y-94126647D01*
X140545615Y-94182533D01*
X140522402Y-94235314D01*
X140488096Y-94282459D01*
X140443595Y-94323812D01*
X140387438Y-94357105D01*
X140322996Y-94377994D01*
X140242998Y-94385498D01*
X140194564Y-94381662D01*
X140142431Y-94369653D01*
X140092485Y-94348591D01*
X140046078Y-94316164D01*
X140004107Y-94275315D01*
X139967493Y-94220543D01*
X139941495Y-94155424D01*
X139924536Y-94066212D01*
X140138768Y-94066212D01*
X140145597Y-94102280D01*
X140167161Y-94137561D01*
X140201001Y-94162213D01*
X140250326Y-94171084D01*
X140297013Y-94162330D01*
X140326072Y-94138569D01*
X140343101Y-94102817D01*
X140349244Y-94055679D01*
X140349244Y-93845844D01*
X140345123Y-93845844D01*
X140305593Y-93892925D01*
X140260401Y-93926810D01*
X140208236Y-93947797D01*
X140146278Y-93955112D01*
X140081397Y-93948107D01*
X140030673Y-93928708D01*
X139990864Y-93897802D01*
X139960165Y-93854179D01*
X139944357Y-93815897D01*
X139932871Y-93765976D01*
X139924536Y-93625201D01*
X139924536Y-93223391D01*
X140138768Y-93223391D01*
X140138768Y-93614576D01*
X140144417Y-93662681D01*
X140160567Y-93702870D01*
X140178324Y-93723047D01*
X140204703Y-93735878D01*
X140242998Y-93740697D01*
X140285055Y-93732503D01*
X140319019Y-93708183D01*
X140341440Y-93671787D01*
X140349244Y-93625109D01*
X140349244Y-93210843D01*
X140341510Y-93156086D01*
X140320027Y-93115130D01*
X140286309Y-93087565D01*
X140242998Y-93078311D01*
X140209060Y-93083076D01*
X140183337Y-93096371D01*
X140163772Y-93118336D01*
X140145554Y-93162374D01*
X140138768Y-93223391D01*
X139924536Y-93223391D01*
X139924536Y-93219453D01*
X139930856Y-93049276D01*
X139947721Y-92984108D01*
X139980113Y-92932480D01*
X140029133Y-92891648D01*
X140074901Y-92872115D01*
X140148385Y-92864354D01*
X140216345Y-92872780D01*
G37*
G36*
X141108793Y-92866453D02*
G01*
X141165306Y-92880714D01*
X141213864Y-92903463D01*
X141276407Y-92952527D01*
X141322216Y-93014838D01*
X141341352Y-93059091D01*
X141353723Y-93111375D01*
X141362150Y-93231176D01*
X141362150Y-93581970D01*
X141353723Y-93701771D01*
X141341352Y-93754056D01*
X141322216Y-93798308D01*
X141276411Y-93860638D01*
X141213864Y-93909774D01*
X141165312Y-93932472D01*
X141108799Y-93946703D01*
X141042680Y-93951723D01*
X140976499Y-93946703D01*
X140919925Y-93932472D01*
X140871313Y-93909774D01*
X140808842Y-93860645D01*
X140763053Y-93798308D01*
X140743916Y-93754056D01*
X140731545Y-93701771D01*
X140723210Y-93581970D01*
X140723210Y-93231176D01*
X140725542Y-93197654D01*
X140937442Y-93197654D01*
X140937442Y-93615584D01*
X140945275Y-93671152D01*
X140965835Y-93706900D01*
X140998492Y-93729397D01*
X141042772Y-93737308D01*
X141086893Y-93729405D01*
X141119525Y-93706900D01*
X141140085Y-93671152D01*
X141147918Y-93615584D01*
X141147918Y-93197654D01*
X141140085Y-93142086D01*
X141119525Y-93106338D01*
X141086885Y-93083762D01*
X141042772Y-93075838D01*
X140998500Y-93083770D01*
X140965835Y-93106338D01*
X140945275Y-93142086D01*
X140937442Y-93197654D01*
X140725542Y-93197654D01*
X140731545Y-93111375D01*
X140743916Y-93059091D01*
X140763053Y-93014838D01*
X140808845Y-92952520D01*
X140871313Y-92903463D01*
X140919931Y-92880714D01*
X140976504Y-92866453D01*
X141042680Y-92861423D01*
X141108793Y-92866453D01*
G37*
G36*
X141517488Y-93940000D02*
G01*
X141517488Y-92873147D01*
X141731720Y-92873147D01*
X141731720Y-92976645D01*
X141735841Y-92976645D01*
X141772941Y-92930608D01*
X141816350Y-92893938D01*
X141868154Y-92870072D01*
X141936792Y-92861423D01*
X141976195Y-92864787D01*
X142016202Y-92875070D01*
X142053614Y-92893043D01*
X142087368Y-92920316D01*
X142115078Y-92955436D01*
X142137560Y-93001283D01*
X142151333Y-93053804D01*
X142156427Y-93122091D01*
X142156427Y-93940000D01*
X141942196Y-93940000D01*
X141942196Y-93202050D01*
X141934860Y-93147619D01*
X141915085Y-93109543D01*
X141882990Y-93084592D01*
X141837965Y-93075838D01*
X141799704Y-93080638D01*
X141772964Y-93093485D01*
X141754617Y-93113756D01*
X141738196Y-93156545D01*
X141731720Y-93223025D01*
X141731720Y-93940000D01*
X141517488Y-93940000D01*
G37*
G36*
X143147211Y-92435848D02*
G01*
X143211923Y-92453293D01*
X143273090Y-92481595D01*
X143328518Y-92520430D01*
X143373682Y-92571715D01*
X143410401Y-92636109D01*
X143433692Y-92708988D01*
X143441908Y-92795752D01*
X143441908Y-93586092D01*
X143433633Y-93670434D01*
X143410401Y-93739415D01*
X143542750Y-93846577D01*
X143433482Y-93976911D01*
X143307452Y-93873962D01*
X143239624Y-93917124D01*
X143165401Y-93942917D01*
X143082780Y-93951723D01*
X143018185Y-93946014D01*
X142953453Y-93928642D01*
X142892873Y-93899718D01*
X142839056Y-93859216D01*
X142792237Y-93809899D01*
X142755067Y-93747841D01*
X142731924Y-93676205D01*
X142723559Y-93586092D01*
X142723559Y-92795752D01*
X142937791Y-92795752D01*
X142937791Y-93586092D01*
X142943198Y-93636015D01*
X142957868Y-93673125D01*
X142980839Y-93700580D01*
X143027589Y-93728033D01*
X143082780Y-93737308D01*
X143128941Y-93728882D01*
X143032313Y-93651121D01*
X143141581Y-93520879D01*
X143227677Y-93590213D01*
X143227677Y-93586092D01*
X143227677Y-92795752D01*
X143222267Y-92745831D01*
X143207596Y-92708755D01*
X143184629Y-92681355D01*
X143137884Y-92653828D01*
X143082780Y-92644535D01*
X143027596Y-92653832D01*
X142980839Y-92681355D01*
X142957872Y-92708755D01*
X142943200Y-92745831D01*
X142937791Y-92795752D01*
X142723559Y-92795752D01*
X142731776Y-92708988D01*
X142755067Y-92636109D01*
X142792265Y-92571884D01*
X142839056Y-92520521D01*
X142892747Y-92481711D01*
X142953545Y-92453293D01*
X143018268Y-92435850D01*
X143082780Y-92430121D01*
X143147211Y-92435848D01*
G37*
G36*
X144256427Y-92873147D02*
G01*
X144256427Y-93940000D01*
X144042196Y-93940000D01*
X144042196Y-93836502D01*
X144038074Y-93836502D01*
X144000952Y-93882607D01*
X143957474Y-93919300D01*
X143905755Y-93943094D01*
X143837124Y-93951723D01*
X143797721Y-93948359D01*
X143757714Y-93938076D01*
X143720292Y-93920051D01*
X143686548Y-93892830D01*
X143658812Y-93857727D01*
X143636264Y-93811955D01*
X143622559Y-93759348D01*
X143617488Y-93690963D01*
X143617488Y-92873147D01*
X143831720Y-92873147D01*
X143831720Y-93611188D01*
X143839056Y-93665619D01*
X143858831Y-93703695D01*
X143890918Y-93728575D01*
X143935950Y-93737308D01*
X143974221Y-93732517D01*
X144000960Y-93719698D01*
X144019298Y-93699481D01*
X144035718Y-93656683D01*
X144042196Y-93590122D01*
X144042196Y-92873147D01*
X144256427Y-92873147D01*
G37*
G36*
X144806782Y-92867937D02*
G01*
X144869080Y-92886702D01*
X144924916Y-92916971D01*
X144971021Y-92956128D01*
X145017133Y-93023470D01*
X145045271Y-93101756D01*
X145055102Y-93193990D01*
X145055102Y-93488639D01*
X144630394Y-93488639D01*
X144630394Y-93632895D01*
X144637948Y-93678415D01*
X144658787Y-93710106D01*
X144691168Y-93730130D01*
X144735724Y-93737308D01*
X144774517Y-93732662D01*
X144800237Y-93720530D01*
X144816690Y-93701863D01*
X144832912Y-93665753D01*
X144840870Y-93630788D01*
X145055102Y-93630788D01*
X145044932Y-93720882D01*
X145016070Y-93795210D01*
X144968914Y-93857293D01*
X144922971Y-93896418D01*
X144867981Y-93926536D01*
X144806637Y-93945207D01*
X144735632Y-93951723D01*
X144669451Y-93946703D01*
X144612877Y-93932472D01*
X144564265Y-93909774D01*
X144501793Y-93860645D01*
X144456004Y-93798308D01*
X144436868Y-93754056D01*
X144424497Y-93701771D01*
X144416162Y-93581970D01*
X144416162Y-93231176D01*
X144418520Y-93197288D01*
X144630394Y-93197288D01*
X144630394Y-93318646D01*
X144840870Y-93318646D01*
X144840870Y-93197288D01*
X144833040Y-93141895D01*
X144812477Y-93106246D01*
X144779845Y-93083742D01*
X144735724Y-93075838D01*
X144691444Y-93083749D01*
X144658787Y-93106246D01*
X144638224Y-93141895D01*
X144630394Y-93197288D01*
X144418520Y-93197288D01*
X144424497Y-93111375D01*
X144436868Y-93059091D01*
X144456004Y-93014838D01*
X144501797Y-92952520D01*
X144564265Y-92903463D01*
X144612882Y-92880714D01*
X144669456Y-92866453D01*
X144735632Y-92861423D01*
X144806782Y-92867937D01*
G37*
G36*
X145597321Y-93170635D02*
G01*
X145588644Y-93121085D01*
X145564897Y-93088203D01*
X145530120Y-93067571D01*
X145490709Y-93060725D01*
X145445490Y-93069238D01*
X145413406Y-93093332D01*
X145393062Y-93128350D01*
X145386295Y-93168070D01*
X145389908Y-93197090D01*
X145401041Y-93226139D01*
X145423832Y-93250702D01*
X145476970Y-93277613D01*
X145603457Y-93328171D01*
X145679158Y-93365252D01*
X145732831Y-93407461D01*
X145768871Y-93454658D01*
X145794008Y-93509521D01*
X145809097Y-93567509D01*
X145814208Y-93629506D01*
X145808038Y-93695014D01*
X145789937Y-93754802D01*
X145761143Y-93809433D01*
X145723533Y-93856926D01*
X145677476Y-93896211D01*
X145622325Y-93926444D01*
X145561311Y-93945275D01*
X145493640Y-93951723D01*
X145409765Y-93942308D01*
X145337586Y-93915138D01*
X145274462Y-93870116D01*
X145234722Y-93826069D01*
X145202655Y-93770922D01*
X145182448Y-93708016D01*
X145175269Y-93631887D01*
X145375945Y-93631887D01*
X145386872Y-93674680D01*
X145406903Y-93714411D01*
X145426258Y-93734723D01*
X145454025Y-93747616D01*
X145493273Y-93752421D01*
X145537700Y-93744844D01*
X145577537Y-93721921D01*
X145605250Y-93685994D01*
X145614906Y-93636558D01*
X145608932Y-93594915D01*
X145591734Y-93560812D01*
X145561894Y-93533180D01*
X145507378Y-93505949D01*
X145404064Y-93468031D01*
X145340013Y-93437879D01*
X145287491Y-93400390D01*
X145244970Y-93355465D01*
X145213212Y-93302942D01*
X145193767Y-93242800D01*
X145186993Y-93173107D01*
X145193366Y-93107651D01*
X145212089Y-93047903D01*
X145242074Y-92993670D01*
X145281240Y-92947793D01*
X145326558Y-92910764D01*
X145379517Y-92883588D01*
X145437704Y-92867052D01*
X145500967Y-92861423D01*
X145564105Y-92867282D01*
X145621318Y-92884412D01*
X145673138Y-92912253D01*
X145716664Y-92949167D01*
X145751950Y-92994438D01*
X145779404Y-93048452D01*
X145796651Y-93107376D01*
X145802485Y-93170635D01*
X145597321Y-93170635D01*
G37*
G36*
X145951687Y-92873147D02*
G01*
X145951687Y-92550746D01*
X146165918Y-92550746D01*
X146165918Y-92873147D01*
X146294878Y-92873147D01*
X146294878Y-93043140D01*
X146165918Y-93043140D01*
X146165918Y-93635368D01*
X146173062Y-93694352D01*
X146182713Y-93713068D01*
X146196601Y-93726043D01*
X146236535Y-93738591D01*
X146294878Y-93740697D01*
X146294878Y-93940000D01*
X146207500Y-93940000D01*
X146138411Y-93933779D01*
X146085867Y-93916919D01*
X146041127Y-93890090D01*
X146007832Y-93858117D01*
X145982657Y-93820149D01*
X145965150Y-93777242D01*
X145954955Y-93732184D01*
X145951687Y-93690047D01*
X145951687Y-93043140D01*
X145843517Y-93043140D01*
X145843517Y-92873147D01*
X145951687Y-92873147D01*
G37*
G36*
X147186325Y-92451329D02*
G01*
X147256859Y-92468314D01*
X147320208Y-92499611D01*
X147379042Y-92549922D01*
X147425318Y-92613338D01*
X147454879Y-92687034D01*
X147470031Y-92772496D01*
X147476037Y-92899525D01*
X147472850Y-92996128D01*
X147464405Y-93069152D01*
X147446315Y-93135947D01*
X147414854Y-93198936D01*
X147362953Y-93264205D01*
X147296518Y-93313059D01*
X147245644Y-93334616D01*
X147181912Y-93348688D01*
X147102437Y-93353817D01*
X146992711Y-93353817D01*
X146992711Y-93940000D01*
X146778479Y-93940000D01*
X146778479Y-93154515D01*
X146992711Y-93154515D01*
X147097582Y-93154515D01*
X147159569Y-93149153D01*
X147200164Y-93135555D01*
X147232058Y-93112618D01*
X147253745Y-93082799D01*
X147266308Y-93048775D01*
X147270873Y-93004855D01*
X147270873Y-92901632D01*
X147270873Y-92801523D01*
X147266420Y-92756052D01*
X147253837Y-92718266D01*
X147232576Y-92686606D01*
X147202912Y-92663495D01*
X147164661Y-92649917D01*
X147105184Y-92644535D01*
X146992711Y-92644535D01*
X146992711Y-93154515D01*
X146778479Y-93154515D01*
X146778479Y-92445233D01*
X147100880Y-92445233D01*
X147186325Y-92451329D01*
G37*
G36*
X147609393Y-92445233D02*
G01*
X147823625Y-92445233D01*
X147823625Y-93641413D01*
X147830193Y-93696381D01*
X147845698Y-93724486D01*
X147873881Y-93741301D01*
X147928863Y-93752879D01*
X147928863Y-93954654D01*
X147857217Y-93951589D01*
X147796422Y-93943022D01*
X147741143Y-93925663D01*
X147695580Y-93897868D01*
X147659193Y-93860704D01*
X147631467Y-93808566D01*
X147615549Y-93745750D01*
X147609393Y-93656067D01*
X147609393Y-92445233D01*
G37*
G36*
X148376117Y-92866784D02*
G01*
X148436552Y-92882489D01*
X148491939Y-92908803D01*
X148539684Y-92945412D01*
X148576974Y-92991848D01*
X148607003Y-93050559D01*
X148625617Y-93116836D01*
X148632282Y-93197562D01*
X148632282Y-93939175D01*
X148418051Y-93939175D01*
X148418051Y-93830823D01*
X148413838Y-93830823D01*
X148369835Y-93884151D01*
X148328566Y-93920491D01*
X148279717Y-93943113D01*
X148207391Y-93951723D01*
X148130546Y-93940091D01*
X148093144Y-93924008D01*
X148055808Y-93897135D01*
X148024365Y-93862555D01*
X147997831Y-93812047D01*
X147981854Y-93751885D01*
X147975758Y-93668157D01*
X147977575Y-93627857D01*
X148189989Y-93627857D01*
X148197838Y-93684339D01*
X148219573Y-93726409D01*
X148254429Y-93754470D01*
X148301913Y-93764145D01*
X148351582Y-93754868D01*
X148387368Y-93728516D01*
X148409721Y-93687594D01*
X148418051Y-93627857D01*
X148418051Y-93483235D01*
X148358883Y-93476915D01*
X148292990Y-93485376D01*
X148239540Y-93509430D01*
X148213318Y-93535059D01*
X148196385Y-93572977D01*
X148189989Y-93627857D01*
X147977575Y-93627857D01*
X147979698Y-93580757D01*
X147990504Y-93509705D01*
X148012030Y-93445962D01*
X148045275Y-93395216D01*
X148088946Y-93357294D01*
X148148498Y-93328995D01*
X148218557Y-93313015D01*
X148314919Y-93306922D01*
X148338000Y-93306922D01*
X148361173Y-93309029D01*
X148386452Y-93311135D01*
X148418051Y-93313242D01*
X148418051Y-93201959D01*
X148411858Y-93150584D01*
X148394787Y-93111558D01*
X148376448Y-93092627D01*
X148349399Y-93080435D01*
X148310340Y-93075838D01*
X148270196Y-93082582D01*
X148233312Y-93103132D01*
X148205119Y-93135760D01*
X148187882Y-93182999D01*
X147979971Y-93182999D01*
X147995142Y-93091418D01*
X148027506Y-93015403D01*
X148076782Y-92951823D01*
X148122615Y-92914525D01*
X148177716Y-92885603D01*
X148239178Y-92867687D01*
X148310340Y-92861423D01*
X148376117Y-92866784D01*
G37*
G36*
X148674964Y-92876078D02*
G01*
X148901743Y-92876078D01*
X149048747Y-93542128D01*
X149052960Y-93542128D01*
X149197857Y-92876078D01*
X149418408Y-92876078D01*
X149111762Y-94127670D01*
X149090695Y-94195034D01*
X149064501Y-94245456D01*
X149031229Y-94288082D01*
X148994159Y-94321202D01*
X148952599Y-94346291D01*
X148909071Y-94362143D01*
X148863399Y-94370840D01*
X148815648Y-94373775D01*
X148756846Y-94373775D01*
X148756846Y-94174473D01*
X148805206Y-94174473D01*
X148859795Y-94166046D01*
X148880848Y-94153220D01*
X148901743Y-94128128D01*
X148917023Y-94095241D01*
X148933251Y-94044871D01*
X148966864Y-93896219D01*
X148674964Y-92876078D01*
G37*
G36*
X150207923Y-92873605D02*
G01*
X149993692Y-92873605D01*
X149993692Y-92825245D01*
X149984725Y-92755555D01*
X149959071Y-92698116D01*
X149931981Y-92669207D01*
X149894400Y-92651164D01*
X149842658Y-92644535D01*
X149801415Y-92649099D01*
X149771400Y-92661388D01*
X149746586Y-92680402D01*
X149727345Y-92703337D01*
X149713324Y-92732184D01*
X149704264Y-92765344D01*
X149697944Y-92837793D01*
X149701058Y-92911432D01*
X149716904Y-92964005D01*
X149732083Y-92985251D01*
X149753540Y-93003939D01*
X149819669Y-93037461D01*
X149983342Y-93102674D01*
X150050008Y-93133547D01*
X150098747Y-93166788D01*
X150138352Y-93206696D01*
X150167990Y-93251876D01*
X150187104Y-93304657D01*
X150199497Y-93366456D01*
X150207923Y-93512452D01*
X150203029Y-93605077D01*
X150188964Y-93688032D01*
X150163683Y-93764256D01*
X150128056Y-93825602D01*
X150077506Y-93877720D01*
X150012285Y-93918109D01*
X149935915Y-93942736D01*
X149837804Y-93951723D01*
X149762052Y-93944786D01*
X149692724Y-93924429D01*
X149629777Y-93891529D01*
X149577044Y-93848683D01*
X149533869Y-93796636D01*
X149500382Y-93736301D01*
X149479220Y-93669951D01*
X149471989Y-93596533D01*
X149471989Y-93516666D01*
X149686221Y-93516666D01*
X149686221Y-93583985D01*
X149694899Y-93639855D01*
X149720934Y-93690047D01*
X149747604Y-93715193D01*
X149785263Y-93731304D01*
X149837804Y-93737308D01*
X149889206Y-93732865D01*
X149923167Y-93721555D01*
X149950293Y-93702353D01*
X149970519Y-93676400D01*
X149983698Y-93644884D01*
X149990486Y-93605967D01*
X149993692Y-93514559D01*
X149989479Y-93417930D01*
X149982771Y-93382299D01*
X149972718Y-93356931D01*
X149955705Y-93336023D01*
X149933883Y-93319195D01*
X149869861Y-93287596D01*
X149716721Y-93224490D01*
X149629613Y-93179476D01*
X149569545Y-93129398D01*
X149530882Y-93074281D01*
X149505712Y-93010218D01*
X149489525Y-92932962D01*
X149483713Y-92839899D01*
X149489567Y-92757414D01*
X149506794Y-92680256D01*
X149536085Y-92608998D01*
X149576037Y-92550013D01*
X149625627Y-92501249D01*
X149688327Y-92462727D01*
X149760826Y-92438738D01*
X149850993Y-92430121D01*
X149928225Y-92437670D01*
X149996898Y-92459613D01*
X150059021Y-92494035D01*
X150111295Y-92537374D01*
X150165720Y-92609151D01*
X150197326Y-92685419D01*
X150207923Y-92768458D01*
X150207923Y-92873605D01*
G37*
G36*
X150355385Y-92873147D02*
G01*
X150355385Y-92550746D01*
X150569617Y-92550746D01*
X150569617Y-92873147D01*
X150698577Y-92873147D01*
X150698577Y-93043140D01*
X150569617Y-93043140D01*
X150569617Y-93635368D01*
X150576761Y-93694352D01*
X150586412Y-93713068D01*
X150600300Y-93726043D01*
X150640233Y-93738591D01*
X150698577Y-93740697D01*
X150698577Y-93940000D01*
X150611199Y-93940000D01*
X150542110Y-93933779D01*
X150489566Y-93916919D01*
X150444826Y-93890090D01*
X150411530Y-93858117D01*
X150386356Y-93820149D01*
X150368849Y-93777242D01*
X150358653Y-93732184D01*
X150355385Y-93690047D01*
X150355385Y-93043140D01*
X150247216Y-93043140D01*
X150247216Y-92873147D01*
X150355385Y-92873147D01*
G37*
G36*
X151145831Y-92866784D02*
G01*
X151206266Y-92882489D01*
X151261653Y-92908803D01*
X151309398Y-92945412D01*
X151346688Y-92991848D01*
X151376717Y-93050559D01*
X151395331Y-93116836D01*
X151401996Y-93197562D01*
X151401996Y-93939175D01*
X151187765Y-93939175D01*
X151187765Y-93830823D01*
X151183551Y-93830823D01*
X151139549Y-93884151D01*
X151098280Y-93920491D01*
X151049431Y-93943113D01*
X150977105Y-93951723D01*
X150900260Y-93940091D01*
X150862858Y-93924008D01*
X150825522Y-93897135D01*
X150794079Y-93862555D01*
X150767545Y-93812047D01*
X150751568Y-93751885D01*
X150745471Y-93668157D01*
X150747288Y-93627857D01*
X150959703Y-93627857D01*
X150967552Y-93684339D01*
X150989287Y-93726409D01*
X151024143Y-93754470D01*
X151071627Y-93764145D01*
X151121296Y-93754868D01*
X151157082Y-93728516D01*
X151179435Y-93687594D01*
X151187765Y-93627857D01*
X151187765Y-93483235D01*
X151128597Y-93476915D01*
X151062704Y-93485376D01*
X151009254Y-93509430D01*
X150983032Y-93535059D01*
X150966098Y-93572977D01*
X150959703Y-93627857D01*
X150747288Y-93627857D01*
X150749412Y-93580757D01*
X150760218Y-93509705D01*
X150781744Y-93445962D01*
X150814989Y-93395216D01*
X150858660Y-93357294D01*
X150918212Y-93328995D01*
X150988271Y-93313015D01*
X151084633Y-93306922D01*
X151107714Y-93306922D01*
X151130887Y-93309029D01*
X151156166Y-93311135D01*
X151187765Y-93313242D01*
X151187765Y-93201959D01*
X151181572Y-93150584D01*
X151164501Y-93111558D01*
X151146162Y-93092627D01*
X151119113Y-93080435D01*
X151080054Y-93075838D01*
X151039910Y-93082582D01*
X151003026Y-93103132D01*
X150974833Y-93135760D01*
X150957596Y-93182999D01*
X150749685Y-93182999D01*
X150764856Y-93091418D01*
X150797220Y-93015403D01*
X150846496Y-92951823D01*
X150892329Y-92914525D01*
X150947430Y-92885603D01*
X151008892Y-92867687D01*
X151080054Y-92861423D01*
X151145831Y-92866784D01*
G37*
G36*
X151559991Y-92873147D02*
G01*
X151559991Y-92550746D01*
X151774222Y-92550746D01*
X151774222Y-92873147D01*
X151903183Y-92873147D01*
X151903183Y-93043140D01*
X151774222Y-93043140D01*
X151774222Y-93635368D01*
X151781366Y-93694352D01*
X151791018Y-93713068D01*
X151804905Y-93726043D01*
X151844839Y-93738591D01*
X151903183Y-93740697D01*
X151903183Y-93940000D01*
X151815805Y-93940000D01*
X151746716Y-93933779D01*
X151694172Y-93916919D01*
X151649432Y-93890090D01*
X151616136Y-93858117D01*
X151590961Y-93820149D01*
X151573455Y-93777242D01*
X151563259Y-93732184D01*
X151559991Y-93690047D01*
X151559991Y-93043140D01*
X151451822Y-93043140D01*
X151451822Y-92873147D01*
X151559991Y-92873147D01*
G37*
G36*
X151985248Y-93940000D02*
G01*
X151985248Y-92873147D01*
X152199480Y-92873147D01*
X152199480Y-93940000D01*
X151985248Y-93940000D01*
G37*
G36*
X151985248Y-92659648D02*
G01*
X151985248Y-92445233D01*
X152199480Y-92445233D01*
X152199480Y-92659648D01*
X151985248Y-92659648D01*
G37*
G36*
X152743057Y-92866453D02*
G01*
X152799570Y-92880714D01*
X152848128Y-92903463D01*
X152910671Y-92952527D01*
X152956480Y-93014838D01*
X152975616Y-93059091D01*
X152987987Y-93111375D01*
X152996414Y-93231176D01*
X152996414Y-93581970D01*
X152987987Y-93701771D01*
X152975616Y-93754056D01*
X152956480Y-93798308D01*
X152910674Y-93860638D01*
X152848128Y-93909774D01*
X152799575Y-93932472D01*
X152743063Y-93946703D01*
X152676944Y-93951723D01*
X152610763Y-93946703D01*
X152554189Y-93932472D01*
X152505577Y-93909774D01*
X152443105Y-93860645D01*
X152397316Y-93798308D01*
X152378180Y-93754056D01*
X152365809Y-93701771D01*
X152357474Y-93581970D01*
X152357474Y-93231176D01*
X152359806Y-93197654D01*
X152571706Y-93197654D01*
X152571706Y-93615584D01*
X152579539Y-93671152D01*
X152600099Y-93706900D01*
X152632756Y-93729397D01*
X152677035Y-93737308D01*
X152721157Y-93729405D01*
X152753789Y-93706900D01*
X152774349Y-93671152D01*
X152782182Y-93615584D01*
X152782182Y-93197654D01*
X152774349Y-93142086D01*
X152753789Y-93106338D01*
X152721149Y-93083762D01*
X152677035Y-93075838D01*
X152632764Y-93083770D01*
X152600099Y-93106338D01*
X152579539Y-93142086D01*
X152571706Y-93197654D01*
X152359806Y-93197654D01*
X152365809Y-93111375D01*
X152378180Y-93059091D01*
X152397316Y-93014838D01*
X152443109Y-92952520D01*
X152505577Y-92903463D01*
X152554194Y-92880714D01*
X152610768Y-92866453D01*
X152676944Y-92861423D01*
X152743057Y-92866453D01*
G37*
G36*
X153151752Y-93940000D02*
G01*
X153151752Y-92873147D01*
X153365983Y-92873147D01*
X153365983Y-92976645D01*
X153370105Y-92976645D01*
X153407205Y-92930608D01*
X153450614Y-92893938D01*
X153502418Y-92870072D01*
X153571056Y-92861423D01*
X153610459Y-92864787D01*
X153650465Y-92875070D01*
X153687877Y-92893043D01*
X153721632Y-92920316D01*
X153749342Y-92955436D01*
X153771823Y-93001283D01*
X153785596Y-93053804D01*
X153790691Y-93122091D01*
X153790691Y-93940000D01*
X153576460Y-93940000D01*
X153576460Y-93202050D01*
X153569123Y-93147619D01*
X153549349Y-93109543D01*
X153517254Y-93084592D01*
X153472229Y-93075838D01*
X153433968Y-93080638D01*
X153407228Y-93093485D01*
X153388881Y-93113756D01*
X153372460Y-93156545D01*
X153365983Y-93223025D01*
X153365983Y-93940000D01*
X153151752Y-93940000D01*
G37*
G36*
X154340238Y-93940000D02*
G01*
X154340238Y-93738224D01*
X154724645Y-93008427D01*
X154748502Y-92954521D01*
X154758076Y-92912714D01*
X154762289Y-92810682D01*
X154762289Y-92752888D01*
X154759533Y-92723532D01*
X154751756Y-92699124D01*
X154738732Y-92677964D01*
X154720249Y-92660289D01*
X154696220Y-92648920D01*
X154659433Y-92644535D01*
X154615123Y-92651724D01*
X154582771Y-92671830D01*
X154562097Y-92703922D01*
X154554469Y-92751697D01*
X154554469Y-92873788D01*
X154340238Y-92873788D01*
X154340238Y-92756002D01*
X154346587Y-92690482D01*
X154365334Y-92629881D01*
X154395260Y-92574505D01*
X154434393Y-92526841D01*
X154480108Y-92487393D01*
X154534869Y-92456407D01*
X154595255Y-92436759D01*
X154660440Y-92430121D01*
X154740155Y-92438183D01*
X154803780Y-92460621D01*
X154858610Y-92496726D01*
X154903248Y-92543694D01*
X154935673Y-92599414D01*
X154958661Y-92663586D01*
X154971965Y-92732268D01*
X154976521Y-92806560D01*
X154976521Y-92898060D01*
X154970201Y-92968493D01*
X154949043Y-93035812D01*
X154908927Y-93117786D01*
X154592296Y-93725585D01*
X154979177Y-93725585D01*
X154979177Y-93940000D01*
X154340238Y-93940000D01*
G37*
G36*
X156220419Y-93512452D02*
G01*
X156220419Y-93604959D01*
X156213823Y-93672698D01*
X156194224Y-93736301D01*
X156163022Y-93794932D01*
X156121959Y-93846577D01*
X156071980Y-93889858D01*
X156013881Y-93923330D01*
X155950087Y-93944547D01*
X155880891Y-93951723D01*
X155820064Y-93947580D01*
X155757151Y-93934870D01*
X155697509Y-93911748D01*
X155644036Y-93875977D01*
X155598805Y-93828755D01*
X155561238Y-93767808D01*
X155537573Y-93696058D01*
X155528723Y-93598640D01*
X155528723Y-92774778D01*
X155535122Y-92703189D01*
X155553819Y-92638216D01*
X155584424Y-92579080D01*
X155625169Y-92528948D01*
X155675322Y-92487938D01*
X155735170Y-92456407D01*
X155801575Y-92436876D01*
X155876678Y-92430121D01*
X155950633Y-92436669D01*
X156015055Y-92455472D01*
X156071737Y-92486043D01*
X156121959Y-92528948D01*
X156162774Y-92581251D01*
X156194224Y-92643436D01*
X156213729Y-92711768D01*
X156220419Y-92787418D01*
X156220419Y-92871498D01*
X156006188Y-92871498D01*
X156006188Y-92799965D01*
X155997133Y-92740689D01*
X155970650Y-92690789D01*
X155944139Y-92665064D01*
X155912660Y-92649825D01*
X155874571Y-92644535D01*
X155824418Y-92650900D01*
X155790826Y-92667674D01*
X155769058Y-92693903D01*
X155750008Y-92747332D01*
X155742955Y-92818925D01*
X155742955Y-93583985D01*
X155750400Y-93645289D01*
X155771165Y-93693162D01*
X155793506Y-93716676D01*
X155826013Y-93731686D01*
X155872465Y-93737308D01*
X155917344Y-93729981D01*
X155962315Y-93705801D01*
X155978988Y-93686514D01*
X155993548Y-93659548D01*
X156002759Y-93628006D01*
X156006188Y-93586092D01*
X156006188Y-93512452D01*
X156220419Y-93512452D01*
G37*
G36*
X156751082Y-92866453D02*
G01*
X156807595Y-92880714D01*
X156856153Y-92903463D01*
X156918696Y-92952527D01*
X156964505Y-93014838D01*
X156983641Y-93059091D01*
X156996012Y-93111375D01*
X157004439Y-93231176D01*
X157004439Y-93581970D01*
X156996012Y-93701771D01*
X156983641Y-93754056D01*
X156964505Y-93798308D01*
X156918700Y-93860638D01*
X156856153Y-93909774D01*
X156807600Y-93932472D01*
X156751088Y-93946703D01*
X156684969Y-93951723D01*
X156618788Y-93946703D01*
X156562214Y-93932472D01*
X156513602Y-93909774D01*
X156451130Y-93860645D01*
X156405341Y-93798308D01*
X156386205Y-93754056D01*
X156373834Y-93701771D01*
X156365499Y-93581970D01*
X156365499Y-93231176D01*
X156367831Y-93197654D01*
X156579731Y-93197654D01*
X156579731Y-93615584D01*
X156587564Y-93671152D01*
X156608124Y-93706900D01*
X156640781Y-93729397D01*
X156685061Y-93737308D01*
X156729182Y-93729405D01*
X156761814Y-93706900D01*
X156782374Y-93671152D01*
X156790207Y-93615584D01*
X156790207Y-93197654D01*
X156782374Y-93142086D01*
X156761814Y-93106338D01*
X156729174Y-93083762D01*
X156685061Y-93075838D01*
X156640789Y-93083770D01*
X156608124Y-93106338D01*
X156587564Y-93142086D01*
X156579731Y-93197654D01*
X156367831Y-93197654D01*
X156373834Y-93111375D01*
X156386205Y-93059091D01*
X156405341Y-93014838D01*
X156451134Y-92952520D01*
X156513602Y-92903463D01*
X156562219Y-92880714D01*
X156618793Y-92866453D01*
X156684969Y-92861423D01*
X156751082Y-92866453D01*
G37*
G36*
X157159777Y-93940000D02*
G01*
X157159777Y-92873147D01*
X157374009Y-92873147D01*
X157374009Y-92976645D01*
X157378130Y-92976645D01*
X157415230Y-92930608D01*
X157458639Y-92893938D01*
X157510443Y-92870072D01*
X157579081Y-92861423D01*
X157618484Y-92864787D01*
X157658490Y-92875070D01*
X157695902Y-92893043D01*
X157729657Y-92920316D01*
X157757367Y-92955436D01*
X157779849Y-93001283D01*
X157793622Y-93053804D01*
X157798716Y-93122091D01*
X157798716Y-93940000D01*
X157584485Y-93940000D01*
X157584485Y-93202050D01*
X157577148Y-93147619D01*
X157557374Y-93109543D01*
X157525279Y-93084592D01*
X157480254Y-93075838D01*
X157441993Y-93080638D01*
X157415253Y-93093485D01*
X157396906Y-93113756D01*
X157380485Y-93156545D01*
X157374009Y-93223025D01*
X157374009Y-93940000D01*
X157159777Y-93940000D01*
G37*
G36*
X157978693Y-92873147D02*
G01*
X157978693Y-92550746D01*
X158192924Y-92550746D01*
X158192924Y-92873147D01*
X158321885Y-92873147D01*
X158321885Y-93043140D01*
X158192924Y-93043140D01*
X158192924Y-93635368D01*
X158200068Y-93694352D01*
X158209720Y-93713068D01*
X158223607Y-93726043D01*
X158263541Y-93738591D01*
X158321885Y-93740697D01*
X158321885Y-93940000D01*
X158234507Y-93940000D01*
X158165418Y-93933779D01*
X158112874Y-93916919D01*
X158068134Y-93890090D01*
X158034838Y-93858117D01*
X158009663Y-93820149D01*
X157992157Y-93777242D01*
X157981961Y-93732184D01*
X157978693Y-93690047D01*
X157978693Y-93043140D01*
X157870524Y-93043140D01*
X157870524Y-92873147D01*
X157978693Y-92873147D01*
G37*
G36*
X158403950Y-93940000D02*
G01*
X158403950Y-92873147D01*
X158618182Y-92873147D01*
X158618182Y-92987178D01*
X158684492Y-92933621D01*
X158746409Y-92895037D01*
X158814402Y-92870389D01*
X158902206Y-92861423D01*
X158902206Y-93088477D01*
X158870054Y-93078988D01*
X158836993Y-93075838D01*
X158764361Y-93087470D01*
X158727402Y-93102887D01*
X158693927Y-93126304D01*
X158663785Y-93157356D01*
X158639156Y-93197837D01*
X158623820Y-93245213D01*
X158618182Y-93307105D01*
X158618182Y-93940000D01*
X158403950Y-93940000D01*
G37*
G36*
X159342010Y-92866453D02*
G01*
X159398523Y-92880714D01*
X159447081Y-92903463D01*
X159509624Y-92952527D01*
X159555433Y-93014838D01*
X159574569Y-93059091D01*
X159586940Y-93111375D01*
X159595367Y-93231176D01*
X159595367Y-93581970D01*
X159586940Y-93701771D01*
X159574569Y-93754056D01*
X159555433Y-93798308D01*
X159509628Y-93860638D01*
X159447081Y-93909774D01*
X159398529Y-93932472D01*
X159342016Y-93946703D01*
X159275897Y-93951723D01*
X159209716Y-93946703D01*
X159153142Y-93932472D01*
X159104530Y-93909774D01*
X159042059Y-93860645D01*
X158996270Y-93798308D01*
X158977133Y-93754056D01*
X158964762Y-93701771D01*
X158956427Y-93581970D01*
X158956427Y-93231176D01*
X158958759Y-93197654D01*
X159170659Y-93197654D01*
X159170659Y-93615584D01*
X159178492Y-93671152D01*
X159199052Y-93706900D01*
X159231709Y-93729397D01*
X159275989Y-93737308D01*
X159320110Y-93729405D01*
X159352742Y-93706900D01*
X159373302Y-93671152D01*
X159381135Y-93615584D01*
X159381135Y-93197654D01*
X159373302Y-93142086D01*
X159352742Y-93106338D01*
X159320102Y-93083762D01*
X159275989Y-93075838D01*
X159231717Y-93083770D01*
X159199052Y-93106338D01*
X159178492Y-93142086D01*
X159170659Y-93197654D01*
X158958759Y-93197654D01*
X158964762Y-93111375D01*
X158977133Y-93059091D01*
X158996270Y-93014838D01*
X159042062Y-92952520D01*
X159104530Y-92903463D01*
X159153148Y-92880714D01*
X159209721Y-92866453D01*
X159275897Y-92861423D01*
X159342010Y-92866453D01*
G37*
G36*
X159738982Y-92445233D02*
G01*
X159953213Y-92445233D01*
X159953213Y-93641413D01*
X159959782Y-93696381D01*
X159975286Y-93724486D01*
X160003469Y-93741301D01*
X160058451Y-93752879D01*
X160058451Y-93954654D01*
X159986805Y-93951589D01*
X159926010Y-93943022D01*
X159870731Y-93925663D01*
X159825169Y-93897868D01*
X159788781Y-93860704D01*
X159761055Y-93808566D01*
X159745137Y-93745750D01*
X159738982Y-93656067D01*
X159738982Y-92445233D01*
G37*
G36*
X160128793Y-92445233D02*
G01*
X160343025Y-92445233D01*
X160343025Y-93641413D01*
X160349593Y-93696381D01*
X160365098Y-93724486D01*
X160393281Y-93741301D01*
X160448263Y-93752879D01*
X160448263Y-93954654D01*
X160376616Y-93951589D01*
X160315822Y-93943022D01*
X160260543Y-93925663D01*
X160214980Y-93897868D01*
X160178593Y-93860704D01*
X160150867Y-93808566D01*
X160134948Y-93745750D01*
X160128793Y-93656067D01*
X160128793Y-92445233D01*
G37*
G36*
X160903363Y-92867937D02*
G01*
X160965661Y-92886702D01*
X161021496Y-92916971D01*
X161067602Y-92956128D01*
X161113714Y-93023470D01*
X161141852Y-93101756D01*
X161151682Y-93193990D01*
X161151682Y-93488639D01*
X160726974Y-93488639D01*
X160726974Y-93632895D01*
X160734528Y-93678415D01*
X160755368Y-93710106D01*
X160787748Y-93730130D01*
X160832304Y-93737308D01*
X160871097Y-93732662D01*
X160896818Y-93720530D01*
X160913271Y-93701863D01*
X160929493Y-93665753D01*
X160937451Y-93630788D01*
X161151682Y-93630788D01*
X161141513Y-93720882D01*
X161112650Y-93795210D01*
X161065495Y-93857293D01*
X161019552Y-93896418D01*
X160964562Y-93926536D01*
X160903217Y-93945207D01*
X160832213Y-93951723D01*
X160766031Y-93946703D01*
X160709457Y-93932472D01*
X160660846Y-93909774D01*
X160598374Y-93860645D01*
X160552585Y-93798308D01*
X160533449Y-93754056D01*
X160521078Y-93701771D01*
X160512743Y-93581970D01*
X160512743Y-93231176D01*
X160515101Y-93197288D01*
X160726974Y-93197288D01*
X160726974Y-93318646D01*
X160937451Y-93318646D01*
X160937451Y-93197288D01*
X160929620Y-93141895D01*
X160909057Y-93106246D01*
X160876425Y-93083742D01*
X160832304Y-93075838D01*
X160788025Y-93083749D01*
X160755368Y-93106246D01*
X160734805Y-93141895D01*
X160726974Y-93197288D01*
X160515101Y-93197288D01*
X160521078Y-93111375D01*
X160533449Y-93059091D01*
X160552585Y-93014838D01*
X160598378Y-92952520D01*
X160660846Y-92903463D01*
X160709463Y-92880714D01*
X160766037Y-92866453D01*
X160832213Y-92861423D01*
X160903363Y-92867937D01*
G37*
G36*
X161307021Y-93940000D02*
G01*
X161307021Y-92873147D01*
X161521252Y-92873147D01*
X161521252Y-92987178D01*
X161587563Y-92933621D01*
X161649480Y-92895037D01*
X161717472Y-92870389D01*
X161805276Y-92861423D01*
X161805276Y-93088477D01*
X161773124Y-93078988D01*
X161740063Y-93075838D01*
X161667431Y-93087470D01*
X161630473Y-93102887D01*
X161596998Y-93126304D01*
X161566855Y-93157356D01*
X161542226Y-93197837D01*
X161526891Y-93245213D01*
X161521252Y-93307105D01*
X161521252Y-93940000D01*
X161307021Y-93940000D01*
G37*
G36*
X163042671Y-93942930D02*
G01*
X162828440Y-93942930D01*
X162765425Y-93617599D01*
X162473524Y-93617599D01*
X162410601Y-93942930D01*
X162196370Y-93942930D01*
X162313315Y-93418297D01*
X162511352Y-93418297D01*
X162725583Y-93418297D01*
X162620528Y-92876078D01*
X162616315Y-92876078D01*
X162511352Y-93418297D01*
X162313315Y-93418297D01*
X162530219Y-92445233D01*
X162708730Y-92445233D01*
X163042671Y-93942930D01*
G37*
G36*
X163773385Y-93940000D02*
G01*
X163559153Y-93940000D01*
X163559153Y-93843279D01*
X163519403Y-93886052D01*
X163477546Y-93920399D01*
X163425247Y-93943388D01*
X163356188Y-93951723D01*
X163291299Y-93944723D01*
X163240574Y-93925338D01*
X163200768Y-93894459D01*
X163170075Y-93850881D01*
X163154259Y-93812532D01*
X163142780Y-93762679D01*
X163134446Y-93621904D01*
X163134446Y-93216430D01*
X163134980Y-93202050D01*
X163348677Y-93202050D01*
X163348677Y-93593053D01*
X163355466Y-93654150D01*
X163373681Y-93698199D01*
X163393239Y-93720108D01*
X163418961Y-93733376D01*
X163452908Y-93738133D01*
X163496226Y-93728898D01*
X163529936Y-93701405D01*
X163551420Y-93660449D01*
X163559153Y-93605692D01*
X163559153Y-93191517D01*
X163551349Y-93144840D01*
X163528928Y-93108444D01*
X163494957Y-93084052D01*
X163452908Y-93075838D01*
X163414622Y-93080666D01*
X163388241Y-93093524D01*
X163370476Y-93113756D01*
X163354326Y-93153946D01*
X163348677Y-93202050D01*
X163134980Y-93202050D01*
X163140765Y-93046254D01*
X163157713Y-92981120D01*
X163190248Y-92929520D01*
X163239501Y-92888717D01*
X163285545Y-92869184D01*
X163359393Y-92861423D01*
X163419714Y-92868698D01*
X163471867Y-92889816D01*
X163517317Y-92923642D01*
X163557047Y-92970691D01*
X163557047Y-92445233D01*
X163773385Y-92445233D01*
X163773385Y-93940000D01*
G37*
G36*
X164315893Y-92866784D02*
G01*
X164376329Y-92882489D01*
X164431716Y-92908803D01*
X164479460Y-92945412D01*
X164516751Y-92991848D01*
X164546780Y-93050559D01*
X164565393Y-93116836D01*
X164572059Y-93197562D01*
X164572059Y-93939175D01*
X164357827Y-93939175D01*
X164357827Y-93830823D01*
X164353614Y-93830823D01*
X164309612Y-93884151D01*
X164268343Y-93920491D01*
X164219493Y-93943113D01*
X164147168Y-93951723D01*
X164070323Y-93940091D01*
X164032921Y-93924008D01*
X163995585Y-93897135D01*
X163964142Y-93862555D01*
X163937608Y-93812047D01*
X163921631Y-93751885D01*
X163915534Y-93668157D01*
X163917351Y-93627857D01*
X164129766Y-93627857D01*
X164137615Y-93684339D01*
X164159350Y-93726409D01*
X164194205Y-93754470D01*
X164241690Y-93764145D01*
X164291359Y-93754868D01*
X164327144Y-93728516D01*
X164349498Y-93687594D01*
X164357827Y-93627857D01*
X164357827Y-93483235D01*
X164298660Y-93476915D01*
X164232767Y-93485376D01*
X164179317Y-93509430D01*
X164153095Y-93535059D01*
X164136161Y-93572977D01*
X164129766Y-93627857D01*
X163917351Y-93627857D01*
X163919475Y-93580757D01*
X163930280Y-93509705D01*
X163951807Y-93445962D01*
X163985052Y-93395216D01*
X164028723Y-93357294D01*
X164088275Y-93328995D01*
X164158334Y-93313015D01*
X164254696Y-93306922D01*
X164277777Y-93306922D01*
X164300949Y-93309029D01*
X164326229Y-93311135D01*
X164357827Y-93313242D01*
X164357827Y-93201959D01*
X164351635Y-93150584D01*
X164334563Y-93111558D01*
X164316224Y-93092627D01*
X164289176Y-93080435D01*
X164250116Y-93075838D01*
X164209973Y-93082582D01*
X164173088Y-93103132D01*
X164144895Y-93135760D01*
X164127659Y-93182999D01*
X163919747Y-93182999D01*
X163934919Y-93091418D01*
X163967282Y-93015403D01*
X164016559Y-92951823D01*
X164062392Y-92914525D01*
X164117493Y-92885603D01*
X164178954Y-92867687D01*
X164250116Y-92861423D01*
X164315893Y-92866784D01*
G37*
G36*
X165207624Y-92870829D02*
G01*
X165258360Y-92890137D01*
X165298799Y-92921058D01*
X165330616Y-92964829D01*
X165346428Y-93003190D01*
X165357910Y-93053123D01*
X165366337Y-93193990D01*
X165366337Y-93599739D01*
X165360017Y-93770098D01*
X165343160Y-93835378D01*
X165311118Y-93886999D01*
X165262930Y-93927726D01*
X165214883Y-93947399D01*
X165140473Y-93955112D01*
X165079802Y-93947854D01*
X165027450Y-93926810D01*
X164981808Y-93892906D01*
X164941904Y-93845844D01*
X164941904Y-94373775D01*
X164727397Y-94373775D01*
X164727397Y-93210843D01*
X164939797Y-93210843D01*
X164939797Y-93625109D01*
X164947664Y-93671765D01*
X164970297Y-93708183D01*
X165004552Y-93732491D01*
X165047050Y-93740697D01*
X165085603Y-93735872D01*
X165112158Y-93723034D01*
X165130032Y-93702870D01*
X165146390Y-93662664D01*
X165152105Y-93614576D01*
X165152105Y-93223391D01*
X165145250Y-93162396D01*
X165126826Y-93118336D01*
X165107142Y-93096387D01*
X165081242Y-93083083D01*
X165047050Y-93078311D01*
X165003279Y-93087576D01*
X164969198Y-93115130D01*
X164947575Y-93156101D01*
X164939797Y-93210843D01*
X164727397Y-93210843D01*
X164727397Y-92879009D01*
X164939797Y-92879009D01*
X164939797Y-92974538D01*
X164980988Y-92930701D01*
X165021680Y-92895861D01*
X165069879Y-92872783D01*
X165143587Y-92863896D01*
X165207624Y-92870829D01*
G37*
G36*
X165546313Y-92873147D02*
G01*
X165546313Y-92550746D01*
X165760545Y-92550746D01*
X165760545Y-92873147D01*
X165889505Y-92873147D01*
X165889505Y-93043140D01*
X165760545Y-93043140D01*
X165760545Y-93635368D01*
X165767689Y-93694352D01*
X165777340Y-93713068D01*
X165791228Y-93726043D01*
X165831161Y-93738591D01*
X165889505Y-93740697D01*
X165889505Y-93940000D01*
X165802127Y-93940000D01*
X165733038Y-93933779D01*
X165680494Y-93916919D01*
X165635754Y-93890090D01*
X165602459Y-93858117D01*
X165577284Y-93820149D01*
X165559777Y-93777242D01*
X165549582Y-93732184D01*
X165546313Y-93690047D01*
X165546313Y-93043140D01*
X165438144Y-93043140D01*
X165438144Y-92873147D01*
X165546313Y-92873147D01*
G37*
G36*
X166344605Y-92867937D02*
G01*
X166406903Y-92886702D01*
X166462738Y-92916971D01*
X166508844Y-92956128D01*
X166554956Y-93023470D01*
X166583094Y-93101756D01*
X166592924Y-93193990D01*
X166592924Y-93488639D01*
X166168217Y-93488639D01*
X166168217Y-93632895D01*
X166175770Y-93678415D01*
X166196610Y-93710106D01*
X166228991Y-93730130D01*
X166273546Y-93737308D01*
X166312339Y-93732662D01*
X166338060Y-93720530D01*
X166354513Y-93701863D01*
X166370735Y-93665753D01*
X166378693Y-93630788D01*
X166592924Y-93630788D01*
X166582755Y-93720882D01*
X166553892Y-93795210D01*
X166506737Y-93857293D01*
X166460794Y-93896418D01*
X166405804Y-93926536D01*
X166344460Y-93945207D01*
X166273455Y-93951723D01*
X166207273Y-93946703D01*
X166150699Y-93932472D01*
X166102088Y-93909774D01*
X166039616Y-93860645D01*
X165993827Y-93798308D01*
X165974691Y-93754056D01*
X165962320Y-93701771D01*
X165953985Y-93581970D01*
X165953985Y-93231176D01*
X165956343Y-93197288D01*
X166168217Y-93197288D01*
X166168217Y-93318646D01*
X166378693Y-93318646D01*
X166378693Y-93197288D01*
X166370863Y-93141895D01*
X166350300Y-93106246D01*
X166317667Y-93083742D01*
X166273546Y-93075838D01*
X166229267Y-93083749D01*
X166196610Y-93106246D01*
X166176047Y-93141895D01*
X166168217Y-93197288D01*
X165956343Y-93197288D01*
X165962320Y-93111375D01*
X165974691Y-93059091D01*
X165993827Y-93014838D01*
X166039620Y-92952520D01*
X166102088Y-92903463D01*
X166150705Y-92880714D01*
X166207279Y-92866453D01*
X166273455Y-92861423D01*
X166344605Y-92867937D01*
G37*
G36*
X166748263Y-93940000D02*
G01*
X166748263Y-92873147D01*
X166962494Y-92873147D01*
X166962494Y-92987178D01*
X167028805Y-92933621D01*
X167090722Y-92895037D01*
X167158714Y-92870389D01*
X167246518Y-92861423D01*
X167246518Y-93088477D01*
X167214367Y-93078988D01*
X167181305Y-93075838D01*
X167108674Y-93087470D01*
X167071715Y-93102887D01*
X167038240Y-93126304D01*
X167008098Y-93157356D01*
X166983469Y-93197837D01*
X166968133Y-93245213D01*
X166962494Y-93307105D01*
X166962494Y-93940000D01*
X166748263Y-93940000D01*
G37*
G36*
X135321009Y-99170000D02*
G01*
X135321009Y-97442714D01*
X134989205Y-97442714D01*
X134989205Y-97176978D01*
X135934913Y-97176978D01*
X135934913Y-97442714D01*
X135606651Y-97442714D01*
X135606651Y-99170000D01*
X135321009Y-99170000D01*
G37*
G36*
X136574032Y-97164464D02*
G01*
X136660314Y-97187725D01*
X136741862Y-97225486D01*
X136815775Y-97277362D01*
X136875987Y-97345642D01*
X136924951Y-97431479D01*
X136956006Y-97528651D01*
X136966961Y-97644337D01*
X136966961Y-98698122D01*
X136955808Y-98818273D01*
X136924951Y-98913789D01*
X136876019Y-98996736D01*
X136815775Y-99062288D01*
X136741679Y-99116411D01*
X136660314Y-99154856D01*
X136574037Y-99178024D01*
X136488123Y-99185631D01*
X136402103Y-99178022D01*
X136315810Y-99154856D01*
X136234934Y-99116284D01*
X136163158Y-99062288D01*
X136100733Y-98996533D01*
X136051173Y-98913789D01*
X136020316Y-98818273D01*
X136009163Y-98698122D01*
X136009163Y-97644337D01*
X136294805Y-97644337D01*
X136294805Y-98698122D01*
X136302014Y-98764686D01*
X136321575Y-98814167D01*
X136352202Y-98850774D01*
X136414536Y-98887378D01*
X136488123Y-98899745D01*
X136561605Y-98887382D01*
X136623922Y-98850774D01*
X136654549Y-98814167D01*
X136674110Y-98764686D01*
X136681319Y-98698122D01*
X136681319Y-97644337D01*
X136674107Y-97577775D01*
X136654544Y-97528341D01*
X136623922Y-97491807D01*
X136561596Y-97455104D01*
X136488123Y-97442714D01*
X136414545Y-97455109D01*
X136352202Y-97491807D01*
X136321580Y-97528341D01*
X136302018Y-97577775D01*
X136294805Y-97644337D01*
X136009163Y-97644337D01*
X136020118Y-97528651D01*
X136051173Y-97431479D01*
X136100771Y-97345846D01*
X136163158Y-97277362D01*
X136234746Y-97225614D01*
X136315810Y-97187725D01*
X136402108Y-97164467D01*
X136488123Y-97156828D01*
X136574032Y-97164464D01*
G37*
G36*
X137760494Y-97185106D02*
G01*
X137854540Y-97207752D01*
X137939005Y-97249481D01*
X138017450Y-97316563D01*
X138079151Y-97401118D01*
X138118566Y-97499378D01*
X138138768Y-97613328D01*
X138146776Y-97782700D01*
X138142527Y-97911505D01*
X138131267Y-98008869D01*
X138107148Y-98097930D01*
X138065199Y-98181915D01*
X137995998Y-98268940D01*
X137907418Y-98334078D01*
X137839586Y-98362821D01*
X137754610Y-98381584D01*
X137648643Y-98388422D01*
X137502342Y-98388422D01*
X137502342Y-99170000D01*
X137216699Y-99170000D01*
X137216699Y-98122686D01*
X137502342Y-98122686D01*
X137642171Y-98122686D01*
X137724820Y-98115537D01*
X137778947Y-98097407D01*
X137821471Y-98066824D01*
X137850388Y-98027065D01*
X137867138Y-97981700D01*
X137873224Y-97923140D01*
X137873224Y-97785509D01*
X137873224Y-97652030D01*
X137867288Y-97591403D01*
X137850510Y-97541022D01*
X137822162Y-97498808D01*
X137782610Y-97467993D01*
X137731609Y-97449890D01*
X137652307Y-97442714D01*
X137502342Y-97442714D01*
X137502342Y-98122686D01*
X137216699Y-98122686D01*
X137216699Y-97176978D01*
X137646567Y-97176978D01*
X137760494Y-97185106D01*
G37*
D11*
%TO.C,P1*%
X132950000Y-87710000D02*
X132950000Y-91580000D01*
X132950000Y-91580000D02*
X168440000Y-91580000D01*
X168440000Y-91580000D02*
X168440000Y-87710000D01*
%TD*%
M02*
