%TF.GenerationSoftware,KiCad,Pcbnew,9.0.6*%
%TF.CreationDate,2026-02-06T14:40:20-05:00*%
%TF.ProjectId,DQ PS2 Controller Adapter,44512050-5332-4204-936f-6e74726f6c6c,1.0*%
%TF.SameCoordinates,Original*%
%TF.FileFunction,Copper,L1,Top*%
%TF.FilePolarity,Positive*%
%FSLAX46Y46*%
G04 Gerber Fmt 4.6, Leading zero omitted, Abs format (unit mm)*
G04 Created by KiCad (PCBNEW 9.0.6) date 2026-02-06 14:40:20*
%MOMM*%
%LPD*%
G01*
G04 APERTURE LIST*
%TA.AperFunction,ComponentPad*%
%ADD10O,1.600000X1.600000*%
%TD*%
%TA.AperFunction,ComponentPad*%
%ADD11C,3.200000*%
%TD*%
%TA.AperFunction,ComponentPad*%
%ADD12C,1.400000*%
%TD*%
%TA.AperFunction,Conductor*%
%ADD13C,0.200000*%
%TD*%
G04 APERTURE END LIST*
D10*
%TO.P,P1,1,DAT*%
%TO.N,/DAT*%
X166670000Y-89930000D03*
%TO.P,P1,2,CMD*%
%TO.N,/CMD*%
X162670000Y-89930000D03*
%TO.P,P1,3,7V6*%
%TO.N,/7V6*%
X158670000Y-89930000D03*
%TO.P,P1,4,GND*%
%TO.N,GND*%
X154670000Y-89930000D03*
%TO.P,P1,5,Vcc*%
%TO.N,/Vcc*%
X150670000Y-89930000D03*
%TO.P,P1,6,ATT*%
%TO.N,/ATT*%
X146670000Y-89930000D03*
%TO.P,P1,7,CLK*%
%TO.N,/CLK*%
X142670000Y-89930000D03*
%TO.P,P1,8,N/C*%
%TO.N,unconnected-(P1-N{slash}C-Pad8)*%
X138670000Y-89930000D03*
%TO.P,P1,9,ACK*%
%TO.N,/ACK*%
X134670000Y-89930000D03*
%TD*%
D11*
%TO.P,J1,0*%
%TO.N,GND*%
X157400000Y-100900000D03*
X150650000Y-101710000D03*
X143900000Y-100900000D03*
D12*
%TO.P,J1,1*%
%TO.N,/DAT*%
X149350000Y-97900000D03*
%TO.P,J1,2*%
%TO.N,/CMD*%
X151950000Y-97900000D03*
%TO.P,J1,3*%
%TO.N,/7V6*%
X147250000Y-97900000D03*
%TO.P,J1,4*%
%TO.N,GND*%
X149350000Y-95400000D03*
%TO.P,J1,5*%
%TO.N,/Vcc*%
X154050000Y-97900000D03*
%TO.P,J1,6*%
%TO.N,/ATT*%
X147250000Y-95400000D03*
%TO.P,J1,7*%
%TO.N,/CLK*%
X151550000Y-95400000D03*
%TO.P,J1,8*%
%TO.N,/ACK*%
X154050000Y-95400000D03*
%TD*%
D13*
%TO.N,/ATT*%
X146962893Y-95112893D02*
X147250000Y-95400000D01*
X146670000Y-89930000D02*
X146670000Y-94405786D01*
X146962893Y-95112893D02*
G75*
G02*
X146670010Y-94405786I707107J707093D01*
G01*
%TO.N,/DAT*%
X155432893Y-99067107D02*
X155574214Y-98925786D01*
X151638427Y-99360000D02*
X154725786Y-99360000D01*
X158845787Y-97754213D02*
X166670000Y-89930000D01*
X149350000Y-97900000D02*
X150224214Y-98774214D01*
X156988427Y-98340000D02*
X157431573Y-98340000D01*
X156988427Y-98340000D02*
G75*
G03*
X155574200Y-98925772I-27J-2000000D01*
G01*
X155432893Y-99067107D02*
G75*
G02*
X154725786Y-99359990I-707093J707107D01*
G01*
X150224214Y-98774214D02*
G75*
G03*
X151638427Y-99359981I1414186J1414214D01*
G01*
X157431573Y-98340000D02*
G75*
G03*
X158845801Y-97754227I27J2000000D01*
G01*
%TO.N,/CMD*%
X155101573Y-96670000D02*
X154008427Y-96670000D01*
X162670000Y-89930000D02*
X156515786Y-96084214D01*
X152594213Y-97255787D02*
X151950000Y-97900000D01*
X156515786Y-96084214D02*
G75*
G02*
X155101573Y-96669981I-1414186J1414214D01*
G01*
X152594213Y-97255787D02*
G75*
G02*
X154008427Y-96670019I1414187J-1414213D01*
G01*
%TO.N,/CLK*%
X146928427Y-96640000D02*
X149481573Y-96640000D01*
X142670000Y-89930000D02*
X142670000Y-92381573D01*
X143255787Y-93795787D02*
X145514214Y-96054214D01*
X150895787Y-96054213D02*
X151550000Y-95400000D01*
X143255787Y-93795787D02*
G75*
G02*
X142670019Y-92381573I1414213J1414187D01*
G01*
X146928427Y-96640000D02*
G75*
G02*
X145514200Y-96054228I-27J2000000D01*
G01*
X149481573Y-96640000D02*
G75*
G03*
X150895801Y-96054227I27J2000000D01*
G01*
%TD*%
%TA.AperFunction,Conductor*%
%TO.N,GND*%
G36*
X148341505Y-95510781D02*
G01*
X148398178Y-95551646D01*
X148421871Y-95603525D01*
X148436507Y-95677100D01*
X148436508Y-95677105D01*
X148508119Y-95849991D01*
X148508124Y-95849999D01*
X148594281Y-95978940D01*
X148955871Y-95617350D01*
X148989910Y-95676306D01*
X149073694Y-95760090D01*
X149132647Y-95794127D01*
X148770214Y-96156561D01*
X148757804Y-96221994D01*
X148709739Y-96272703D01*
X148647421Y-96289500D01*
X148004073Y-96289500D01*
X147937034Y-96269815D01*
X147891279Y-96217011D01*
X147881335Y-96147853D01*
X147910360Y-96084297D01*
X147916392Y-96077819D01*
X147988299Y-96005911D01*
X147988302Y-96005908D01*
X148092322Y-95850231D01*
X148163973Y-95677251D01*
X148178638Y-95603523D01*
X148211021Y-95541617D01*
X148271736Y-95507042D01*
X148341505Y-95510781D01*
G37*
%TD.AperFunction*%
%TA.AperFunction,Conductor*%
G36*
X169912539Y-87850185D02*
G01*
X169958294Y-87902989D01*
X169969500Y-87954500D01*
X169969500Y-101536886D01*
X169969382Y-101542295D01*
X169951473Y-101952492D01*
X169950530Y-101963268D01*
X169897293Y-102367644D01*
X169895415Y-102378298D01*
X169807132Y-102776516D01*
X169804332Y-102786964D01*
X169681684Y-103175956D01*
X169677984Y-103186122D01*
X169521896Y-103562953D01*
X169517324Y-103572757D01*
X169328993Y-103934538D01*
X169323585Y-103943906D01*
X169104428Y-104287914D01*
X169098223Y-104296775D01*
X168849925Y-104620364D01*
X168842971Y-104628651D01*
X168567418Y-104929365D01*
X168559769Y-104937014D01*
X168259055Y-105212568D01*
X168250768Y-105219522D01*
X167927180Y-105467820D01*
X167918319Y-105474025D01*
X167574311Y-105693182D01*
X167564943Y-105698590D01*
X167203162Y-105886922D01*
X167193358Y-105891494D01*
X166816530Y-106047581D01*
X166806365Y-106051281D01*
X166417367Y-106173932D01*
X166406917Y-106176732D01*
X166008702Y-106265014D01*
X165998049Y-106266892D01*
X165593672Y-106320129D01*
X165582896Y-106321072D01*
X165172862Y-106338975D01*
X165167453Y-106339093D01*
X136172706Y-106339093D01*
X136167297Y-106338975D01*
X135757102Y-106321065D01*
X135746326Y-106320122D01*
X135341950Y-106266885D01*
X135331296Y-106265007D01*
X134933079Y-106176724D01*
X134922631Y-106173924D01*
X134533640Y-106051276D01*
X134523474Y-106047576D01*
X134146643Y-105891487D01*
X134136839Y-105886915D01*
X134018873Y-105825506D01*
X133775044Y-105698576D01*
X133765688Y-105693175D01*
X133480376Y-105511410D01*
X133421692Y-105474024D01*
X133412831Y-105467820D01*
X133089235Y-105219516D01*
X133080948Y-105212562D01*
X132780235Y-104937009D01*
X132772586Y-104929360D01*
X132497033Y-104628646D01*
X132490079Y-104620359D01*
X132241781Y-104296771D01*
X132235576Y-104287910D01*
X132016420Y-103943903D01*
X132011012Y-103934535D01*
X131954299Y-103825590D01*
X131822678Y-103572748D01*
X131818112Y-103562956D01*
X131662016Y-103186107D01*
X131658322Y-103175956D01*
X131636324Y-103106188D01*
X131535665Y-102786939D01*
X131532876Y-102776527D01*
X131444588Y-102378281D01*
X131442716Y-102367662D01*
X131389474Y-101963245D01*
X131388534Y-101952511D01*
X131370617Y-101542126D01*
X131370500Y-101536736D01*
X131370500Y-100778751D01*
X142050000Y-100778751D01*
X142050000Y-101021248D01*
X142050001Y-101021264D01*
X142081653Y-101261687D01*
X142144421Y-101495939D01*
X142237220Y-101719978D01*
X142237227Y-101719993D01*
X142358480Y-101930009D01*
X142503811Y-102119409D01*
X142503812Y-102119409D01*
X143038097Y-101585124D01*
X143060967Y-101616602D01*
X143183398Y-101739033D01*
X143214873Y-101761901D01*
X142680589Y-102296186D01*
X142680589Y-102296188D01*
X142869990Y-102441519D01*
X143080006Y-102562772D01*
X143080021Y-102562779D01*
X143304060Y-102655578D01*
X143538312Y-102718346D01*
X143778735Y-102749998D01*
X143778752Y-102750000D01*
X144021248Y-102750000D01*
X144021264Y-102749998D01*
X144261687Y-102718346D01*
X144495939Y-102655578D01*
X144719978Y-102562779D01*
X144719992Y-102562772D01*
X144930010Y-102441518D01*
X145119409Y-102296186D01*
X144585125Y-101761901D01*
X144616602Y-101739033D01*
X144739033Y-101616602D01*
X144761901Y-101585125D01*
X145296186Y-102119409D01*
X145441518Y-101930010D01*
X145562772Y-101719992D01*
X145562779Y-101719978D01*
X145617135Y-101588751D01*
X148800000Y-101588751D01*
X148800000Y-101831248D01*
X148800001Y-101831264D01*
X148831653Y-102071687D01*
X148894421Y-102305939D01*
X148987220Y-102529978D01*
X148987227Y-102529993D01*
X149108480Y-102740009D01*
X149253811Y-102929409D01*
X149253812Y-102929409D01*
X149788097Y-102395124D01*
X149810967Y-102426602D01*
X149933398Y-102549033D01*
X149964873Y-102571901D01*
X149430589Y-103106186D01*
X149430589Y-103106188D01*
X149619990Y-103251519D01*
X149830006Y-103372772D01*
X149830021Y-103372779D01*
X150054060Y-103465578D01*
X150288312Y-103528346D01*
X150528735Y-103559998D01*
X150528752Y-103560000D01*
X150771248Y-103560000D01*
X150771264Y-103559998D01*
X151011687Y-103528346D01*
X151245939Y-103465578D01*
X151469978Y-103372779D01*
X151469992Y-103372772D01*
X151680010Y-103251518D01*
X151869409Y-103106186D01*
X151335125Y-102571901D01*
X151366602Y-102549033D01*
X151489033Y-102426602D01*
X151511901Y-102395125D01*
X152046186Y-102929409D01*
X152191518Y-102740010D01*
X152312772Y-102529992D01*
X152312779Y-102529978D01*
X152405579Y-102305937D01*
X152429640Y-102216141D01*
X152429640Y-102216140D01*
X152468346Y-102071686D01*
X152499998Y-101831264D01*
X152500000Y-101831248D01*
X152500000Y-101588751D01*
X152499998Y-101588735D01*
X152468346Y-101348312D01*
X152405578Y-101114060D01*
X152312779Y-100890021D01*
X152312774Y-100890011D01*
X152281987Y-100836685D01*
X152281986Y-100836683D01*
X152248539Y-100778751D01*
X155550000Y-100778751D01*
X155550000Y-101021248D01*
X155550001Y-101021264D01*
X155581653Y-101261687D01*
X155644421Y-101495939D01*
X155737220Y-101719978D01*
X155737227Y-101719993D01*
X155858480Y-101930009D01*
X156003811Y-102119409D01*
X156003812Y-102119409D01*
X156538097Y-101585124D01*
X156560967Y-101616602D01*
X156683398Y-101739033D01*
X156714873Y-101761901D01*
X156180589Y-102296186D01*
X156180589Y-102296188D01*
X156369990Y-102441519D01*
X156580006Y-102562772D01*
X156580021Y-102562779D01*
X156804060Y-102655578D01*
X157038312Y-102718346D01*
X157278735Y-102749998D01*
X157278752Y-102750000D01*
X157521248Y-102750000D01*
X157521264Y-102749998D01*
X157761687Y-102718346D01*
X157995939Y-102655578D01*
X158219978Y-102562779D01*
X158219992Y-102562772D01*
X158430010Y-102441518D01*
X158619409Y-102296186D01*
X158085125Y-101761901D01*
X158116602Y-101739033D01*
X158239033Y-101616602D01*
X158261902Y-101585125D01*
X158796186Y-102119409D01*
X158941518Y-101930010D01*
X159062772Y-101719992D01*
X159062779Y-101719978D01*
X159155578Y-101495939D01*
X159218346Y-101261687D01*
X159249998Y-101021264D01*
X159250000Y-101021248D01*
X159250000Y-100778751D01*
X159249998Y-100778735D01*
X159218346Y-100538312D01*
X159155578Y-100304060D01*
X159062779Y-100080021D01*
X159062772Y-100080006D01*
X158941519Y-99869990D01*
X158796188Y-99680589D01*
X158796186Y-99680589D01*
X158261901Y-100214873D01*
X158239033Y-100183398D01*
X158116602Y-100060967D01*
X158085124Y-100038097D01*
X158619409Y-99503812D01*
X158619409Y-99503811D01*
X158430009Y-99358480D01*
X158219993Y-99237227D01*
X158219978Y-99237220D01*
X157995939Y-99144421D01*
X157761687Y-99081653D01*
X157521264Y-99050001D01*
X157521248Y-99050000D01*
X157278752Y-99050000D01*
X157278735Y-99050001D01*
X157038312Y-99081653D01*
X156804060Y-99144421D01*
X156580021Y-99237220D01*
X156580006Y-99237227D01*
X156369990Y-99358480D01*
X156180589Y-99503811D01*
X156180589Y-99503812D01*
X156714874Y-100038097D01*
X156683398Y-100060967D01*
X156560967Y-100183398D01*
X156538098Y-100214874D01*
X156003812Y-99680589D01*
X156003811Y-99680589D01*
X155858480Y-99869990D01*
X155737227Y-100080006D01*
X155737220Y-100080021D01*
X155644421Y-100304060D01*
X155581653Y-100538312D01*
X155550001Y-100778735D01*
X155550000Y-100778751D01*
X152248539Y-100778751D01*
X152191519Y-100679990D01*
X152046188Y-100490589D01*
X152046186Y-100490589D01*
X151511901Y-101024873D01*
X151489033Y-100993398D01*
X151366602Y-100870967D01*
X151335124Y-100848097D01*
X151869409Y-100313812D01*
X151869409Y-100313811D01*
X151680009Y-100168480D01*
X151469993Y-100047227D01*
X151469978Y-100047220D01*
X151245939Y-99954421D01*
X151011687Y-99891653D01*
X150771264Y-99860001D01*
X150771248Y-99860000D01*
X150528752Y-99860000D01*
X150528735Y-99860001D01*
X150288312Y-99891653D01*
X150054060Y-99954421D01*
X149830021Y-100047220D01*
X149830006Y-100047227D01*
X149619990Y-100168480D01*
X149430589Y-100313811D01*
X149430589Y-100313812D01*
X149964874Y-100848097D01*
X149933398Y-100870967D01*
X149810967Y-100993398D01*
X149788097Y-101024874D01*
X149253812Y-100490589D01*
X149253811Y-100490589D01*
X149108480Y-100679990D01*
X148987227Y-100890006D01*
X148987220Y-100890021D01*
X148894421Y-101114060D01*
X148831653Y-101348312D01*
X148800001Y-101588735D01*
X148800000Y-101588751D01*
X145617135Y-101588751D01*
X145638474Y-101537234D01*
X145655578Y-101495939D01*
X145718346Y-101261687D01*
X145749998Y-101021264D01*
X145750000Y-101021248D01*
X145750000Y-100778751D01*
X145749998Y-100778735D01*
X145718346Y-100538312D01*
X145679640Y-100393859D01*
X145655578Y-100304060D01*
X145562779Y-100080021D01*
X145562772Y-100080006D01*
X145441519Y-99869990D01*
X145296188Y-99680589D01*
X145296186Y-99680589D01*
X144761901Y-100214873D01*
X144739033Y-100183398D01*
X144616602Y-100060967D01*
X144585124Y-100038097D01*
X145119409Y-99503812D01*
X145119409Y-99503811D01*
X144930009Y-99358480D01*
X144719993Y-99237227D01*
X144719978Y-99237220D01*
X144495939Y-99144421D01*
X144261687Y-99081653D01*
X144021264Y-99050001D01*
X144021248Y-99050000D01*
X143778752Y-99050000D01*
X143778735Y-99050001D01*
X143538312Y-99081653D01*
X143304060Y-99144421D01*
X143080021Y-99237220D01*
X143080006Y-99237227D01*
X142869990Y-99358480D01*
X142680589Y-99503811D01*
X142680589Y-99503812D01*
X143214874Y-100038097D01*
X143183398Y-100060967D01*
X143060967Y-100183398D01*
X143038098Y-100214874D01*
X142503812Y-99680589D01*
X142503811Y-99680589D01*
X142358480Y-99869990D01*
X142237227Y-100080006D01*
X142237220Y-100080021D01*
X142144421Y-100304060D01*
X142081653Y-100538312D01*
X142050001Y-100778735D01*
X142050000Y-100778751D01*
X131370500Y-100778751D01*
X131370500Y-89826530D01*
X133619500Y-89826530D01*
X133619500Y-90033469D01*
X133659868Y-90236412D01*
X133659870Y-90236420D01*
X133739058Y-90427596D01*
X133854024Y-90599657D01*
X134000342Y-90745975D01*
X134000345Y-90745977D01*
X134172402Y-90860941D01*
X134363580Y-90940130D01*
X134542429Y-90975705D01*
X134566530Y-90980499D01*
X134566534Y-90980500D01*
X134566535Y-90980500D01*
X134773466Y-90980500D01*
X134773467Y-90980499D01*
X134976420Y-90940130D01*
X135167598Y-90860941D01*
X135339655Y-90745977D01*
X135485977Y-90599655D01*
X135600941Y-90427598D01*
X135680130Y-90236420D01*
X135720500Y-90033465D01*
X135720500Y-89826535D01*
X135720499Y-89826530D01*
X137619500Y-89826530D01*
X137619500Y-90033469D01*
X137659868Y-90236412D01*
X137659870Y-90236420D01*
X137739058Y-90427596D01*
X137854024Y-90599657D01*
X138000342Y-90745975D01*
X138000345Y-90745977D01*
X138172402Y-90860941D01*
X138363580Y-90940130D01*
X138542429Y-90975705D01*
X138566530Y-90980499D01*
X138566534Y-90980500D01*
X138566535Y-90980500D01*
X138773466Y-90980500D01*
X138773467Y-90980499D01*
X138976420Y-90940130D01*
X139167598Y-90860941D01*
X139339655Y-90745977D01*
X139485977Y-90599655D01*
X139600941Y-90427598D01*
X139680130Y-90236420D01*
X139720500Y-90033465D01*
X139720500Y-89826535D01*
X139720499Y-89826530D01*
X141619500Y-89826530D01*
X141619500Y-90033469D01*
X141659868Y-90236412D01*
X141659870Y-90236420D01*
X141739058Y-90427596D01*
X141854024Y-90599657D01*
X142000342Y-90745975D01*
X142000345Y-90745977D01*
X142171740Y-90860499D01*
X142172405Y-90860943D01*
X142242952Y-90890164D01*
X142297356Y-90934005D01*
X142319421Y-91000299D01*
X142319500Y-91004725D01*
X142319500Y-92435580D01*
X142319518Y-92435871D01*
X142319518Y-92513564D01*
X142319518Y-92513569D01*
X142327990Y-92588769D01*
X142349074Y-92775917D01*
X142349075Y-92775927D01*
X142407813Y-93033285D01*
X142407818Y-93033300D01*
X142495004Y-93282477D01*
X142609550Y-93520339D01*
X142750005Y-93743878D01*
X142914609Y-93950290D01*
X142968243Y-94003923D01*
X142968254Y-94003936D01*
X142975317Y-94010999D01*
X145227119Y-96262801D01*
X145227121Y-96262804D01*
X145229183Y-96264866D01*
X145231000Y-96266683D01*
X145231031Y-96266740D01*
X145266362Y-96302070D01*
X145266362Y-96302071D01*
X145359702Y-96395410D01*
X145566110Y-96560011D01*
X145789650Y-96700467D01*
X146027511Y-96815011D01*
X146276700Y-96902203D01*
X146510786Y-96955629D01*
X146571765Y-96989737D01*
X146604623Y-97051398D01*
X146598929Y-97121035D01*
X146570877Y-97164201D01*
X146472860Y-97262218D01*
X146363371Y-97426079D01*
X146363364Y-97426092D01*
X146287950Y-97608160D01*
X146287947Y-97608170D01*
X146249500Y-97801456D01*
X146249500Y-97801459D01*
X146249500Y-97998541D01*
X146249500Y-97998543D01*
X146249499Y-97998543D01*
X146287947Y-98191829D01*
X146287950Y-98191839D01*
X146363364Y-98373907D01*
X146363371Y-98373920D01*
X146472860Y-98537781D01*
X146472863Y-98537785D01*
X146612214Y-98677136D01*
X146612218Y-98677139D01*
X146776079Y-98786628D01*
X146776092Y-98786635D01*
X146930278Y-98850500D01*
X146958165Y-98862051D01*
X146958169Y-98862051D01*
X146958170Y-98862052D01*
X147151456Y-98900500D01*
X147151459Y-98900500D01*
X147348543Y-98900500D01*
X147493588Y-98871648D01*
X147541835Y-98862051D01*
X147723914Y-98786632D01*
X147887782Y-98677139D01*
X148027139Y-98537782D01*
X148136632Y-98373914D01*
X148212051Y-98191835D01*
X148212051Y-98191833D01*
X148212498Y-98190755D01*
X148256338Y-98136351D01*
X148322632Y-98114286D01*
X148390332Y-98131565D01*
X148437943Y-98182702D01*
X148441620Y-98190754D01*
X148507676Y-98350227D01*
X148507681Y-98350237D01*
X148611697Y-98505907D01*
X148611700Y-98505911D01*
X148744088Y-98638299D01*
X148744092Y-98638302D01*
X148899762Y-98742318D01*
X148899768Y-98742321D01*
X148899769Y-98742322D01*
X149072749Y-98813973D01*
X149256379Y-98850499D01*
X149256383Y-98850500D01*
X149256384Y-98850500D01*
X149443617Y-98850500D01*
X149443618Y-98850499D01*
X149627251Y-98813973D01*
X149650432Y-98804370D01*
X149670308Y-98802232D01*
X149689041Y-98795246D01*
X149704334Y-98798572D01*
X149719898Y-98796899D01*
X149737778Y-98805848D01*
X149757314Y-98810098D01*
X149779594Y-98826777D01*
X149782379Y-98828171D01*
X149785568Y-98831249D01*
X149930046Y-98975727D01*
X149930057Y-98975740D01*
X149937120Y-98982802D01*
X149937121Y-98982804D01*
X149940040Y-98985722D01*
X149940071Y-98985780D01*
X149976362Y-99022070D01*
X149976362Y-99022071D01*
X150069702Y-99115410D01*
X150276110Y-99280011D01*
X150499650Y-99420467D01*
X150737511Y-99535011D01*
X150986700Y-99622203D01*
X151244086Y-99680947D01*
X151506430Y-99710502D01*
X151638432Y-99710500D01*
X154725781Y-99710500D01*
X154771930Y-99710500D01*
X154780133Y-99710500D01*
X154780261Y-99710491D01*
X154814297Y-99710492D01*
X154937700Y-99694246D01*
X154989803Y-99687388D01*
X154989806Y-99687387D01*
X154989816Y-99687386D01*
X155075316Y-99664477D01*
X155160811Y-99641571D01*
X155160813Y-99641569D01*
X155160817Y-99641569D01*
X155324374Y-99573824D01*
X155477690Y-99485309D01*
X155618140Y-99377540D01*
X155645439Y-99350240D01*
X155645445Y-99350236D01*
X155648102Y-99347578D01*
X155648105Y-99347577D01*
X155700354Y-99295326D01*
X155700357Y-99295325D01*
X155730185Y-99265498D01*
X155730192Y-99265488D01*
X155819176Y-99176504D01*
X155825068Y-99170985D01*
X155978170Y-99036721D01*
X155991031Y-99026854D01*
X155998190Y-99022071D01*
X156056964Y-98982800D01*
X156156921Y-98916013D01*
X156170959Y-98907907D01*
X156349908Y-98819662D01*
X156364873Y-98813463D01*
X156553819Y-98749327D01*
X156569465Y-98745135D01*
X156765159Y-98706212D01*
X156781216Y-98704098D01*
X156984694Y-98690764D01*
X156992778Y-98690500D01*
X157043936Y-98690501D01*
X157043939Y-98690500D01*
X157431568Y-98690500D01*
X157477717Y-98690500D01*
X157485986Y-98690500D01*
X157486274Y-98690480D01*
X157563569Y-98690482D01*
X157825911Y-98660927D01*
X157825921Y-98660924D01*
X157825927Y-98660924D01*
X158005496Y-98619939D01*
X158083295Y-98602184D01*
X158332483Y-98514993D01*
X158570341Y-98400449D01*
X158793879Y-98259994D01*
X159000286Y-98095394D01*
X159049074Y-98046604D01*
X159049082Y-98046599D01*
X159060997Y-98034683D01*
X159060999Y-98034683D01*
X166157896Y-90937784D01*
X166219217Y-90904301D01*
X166288909Y-90909285D01*
X166293028Y-90910906D01*
X166363580Y-90940130D01*
X166542429Y-90975705D01*
X166566530Y-90980499D01*
X166566534Y-90980500D01*
X166566535Y-90980500D01*
X166773466Y-90980500D01*
X166773467Y-90980499D01*
X166976420Y-90940130D01*
X167167598Y-90860941D01*
X167339655Y-90745977D01*
X167485977Y-90599655D01*
X167600941Y-90427598D01*
X167680130Y-90236420D01*
X167720500Y-90033465D01*
X167720500Y-89826535D01*
X167680130Y-89623580D01*
X167600941Y-89432402D01*
X167485977Y-89260345D01*
X167485975Y-89260342D01*
X167339657Y-89114024D01*
X167168258Y-88999500D01*
X167167598Y-88999059D01*
X167142753Y-88988768D01*
X166976420Y-88919870D01*
X166976412Y-88919868D01*
X166773469Y-88879500D01*
X166773465Y-88879500D01*
X166566535Y-88879500D01*
X166566530Y-88879500D01*
X166363587Y-88919868D01*
X166363579Y-88919870D01*
X166172403Y-88999058D01*
X166000342Y-89114024D01*
X165854024Y-89260342D01*
X165739058Y-89432403D01*
X165659870Y-89623579D01*
X165659868Y-89623587D01*
X165619500Y-89826530D01*
X165619500Y-90033469D01*
X165659868Y-90236412D01*
X165659870Y-90236420D01*
X165689093Y-90306969D01*
X165696562Y-90376438D01*
X165665287Y-90438917D01*
X165662213Y-90442103D01*
X158600826Y-97503491D01*
X158594903Y-97509039D01*
X158441838Y-97643270D01*
X158428970Y-97653144D01*
X158263083Y-97763984D01*
X158249035Y-97772094D01*
X158070098Y-97860333D01*
X158055113Y-97866540D01*
X157866195Y-97930667D01*
X157850528Y-97934865D01*
X157654850Y-97973785D01*
X157638769Y-97975902D01*
X157435327Y-97989234D01*
X157427220Y-97989499D01*
X157400405Y-97989499D01*
X157376064Y-97989499D01*
X157376061Y-97989499D01*
X157366066Y-97989500D01*
X157366065Y-97989499D01*
X157366064Y-97989500D01*
X156934528Y-97989500D01*
X156934231Y-97989518D01*
X156856435Y-97989518D01*
X156856434Y-97989518D01*
X156856431Y-97989518D01*
X156594089Y-98019073D01*
X156594087Y-98019073D01*
X156594082Y-98019074D01*
X156594076Y-98019075D01*
X156336712Y-98077814D01*
X156336700Y-98077818D01*
X156087520Y-98165005D01*
X156087519Y-98165006D01*
X155849664Y-98279547D01*
X155626122Y-98420004D01*
X155419714Y-98584605D01*
X155363336Y-98640981D01*
X155287121Y-98717195D01*
X155287121Y-98717196D01*
X155287119Y-98717198D01*
X155233378Y-98770939D01*
X155189364Y-98814953D01*
X155180347Y-98823125D01*
X155096072Y-98892286D01*
X155075860Y-98905791D01*
X154985112Y-98954296D01*
X154962655Y-98963598D01*
X154864188Y-98993467D01*
X154840345Y-98998209D01*
X154731754Y-99008902D01*
X154719604Y-99009499D01*
X154694122Y-99009499D01*
X154670277Y-99009499D01*
X154670274Y-99009499D01*
X154660279Y-99009500D01*
X154660278Y-99009499D01*
X154660277Y-99009500D01*
X154599143Y-99009500D01*
X154532104Y-98989815D01*
X154486349Y-98937011D01*
X154476405Y-98867853D01*
X154505430Y-98804297D01*
X154530252Y-98782398D01*
X154667389Y-98690765D01*
X154687782Y-98677139D01*
X154827139Y-98537782D01*
X154936632Y-98373914D01*
X155012051Y-98191835D01*
X155034731Y-98077816D01*
X155050500Y-97998543D01*
X155050500Y-97801456D01*
X155012052Y-97608170D01*
X155012051Y-97608169D01*
X155012051Y-97608165D01*
X155012049Y-97608160D01*
X154936635Y-97426092D01*
X154936628Y-97426079D01*
X154827139Y-97262218D01*
X154827136Y-97262214D01*
X154797103Y-97232181D01*
X154763618Y-97170858D01*
X154768602Y-97101166D01*
X154810474Y-97045233D01*
X154875938Y-97020816D01*
X154884784Y-97020500D01*
X155155986Y-97020500D01*
X155156274Y-97020480D01*
X155233569Y-97020482D01*
X155495911Y-96990927D01*
X155753294Y-96932184D01*
X156002482Y-96844993D01*
X156240340Y-96730450D01*
X156463878Y-96589995D01*
X156670285Y-96425395D01*
X156730994Y-96364685D01*
X156730998Y-96364684D01*
X156790311Y-96305371D01*
X156802879Y-96292804D01*
X156802879Y-96292803D01*
X156813079Y-96282604D01*
X156813086Y-96282594D01*
X162157896Y-90937784D01*
X162219217Y-90904301D01*
X162288909Y-90909285D01*
X162293028Y-90910906D01*
X162363580Y-90940130D01*
X162542429Y-90975705D01*
X162566530Y-90980499D01*
X162566534Y-90980500D01*
X162566535Y-90980500D01*
X162773466Y-90980500D01*
X162773467Y-90980499D01*
X162976420Y-90940130D01*
X163167598Y-90860941D01*
X163339655Y-90745977D01*
X163485977Y-90599655D01*
X163600941Y-90427598D01*
X163680130Y-90236420D01*
X163720500Y-90033465D01*
X163720500Y-89826535D01*
X163680130Y-89623580D01*
X163600941Y-89432402D01*
X163485977Y-89260345D01*
X163485975Y-89260342D01*
X163339657Y-89114024D01*
X163168258Y-88999500D01*
X163167598Y-88999059D01*
X163142753Y-88988768D01*
X162976420Y-88919870D01*
X162976412Y-88919868D01*
X162773469Y-88879500D01*
X162773465Y-88879500D01*
X162566535Y-88879500D01*
X162566530Y-88879500D01*
X162363587Y-88919868D01*
X162363579Y-88919870D01*
X162172403Y-88999058D01*
X162000342Y-89114024D01*
X161854024Y-89260342D01*
X161739058Y-89432403D01*
X161659870Y-89623579D01*
X161659868Y-89623587D01*
X161619500Y-89826530D01*
X161619500Y-90033469D01*
X161659868Y-90236412D01*
X161659870Y-90236420D01*
X161689093Y-90306969D01*
X161696562Y-90376438D01*
X161665287Y-90438917D01*
X161662213Y-90442103D01*
X156270822Y-95833494D01*
X156264899Y-95839042D01*
X156111837Y-95973271D01*
X156098968Y-95983145D01*
X155933078Y-96093986D01*
X155919032Y-96102096D01*
X155740102Y-96190332D01*
X155725117Y-96196539D01*
X155536194Y-96260668D01*
X155520525Y-96264866D01*
X155324851Y-96303785D01*
X155308771Y-96305902D01*
X155105327Y-96319234D01*
X155097218Y-96319499D01*
X155036076Y-96319499D01*
X155036064Y-96319500D01*
X154774073Y-96319500D01*
X154707034Y-96299815D01*
X154661279Y-96247011D01*
X154651335Y-96177853D01*
X154680360Y-96114297D01*
X154686392Y-96107819D01*
X154788299Y-96005911D01*
X154788302Y-96005908D01*
X154892322Y-95850231D01*
X154963973Y-95677251D01*
X155000500Y-95493616D01*
X155000500Y-95306384D01*
X154963973Y-95122749D01*
X154892322Y-94949769D01*
X154892321Y-94949768D01*
X154892318Y-94949762D01*
X154788302Y-94794092D01*
X154788299Y-94794088D01*
X154655911Y-94661700D01*
X154655907Y-94661697D01*
X154500237Y-94557681D01*
X154500228Y-94557676D01*
X154327251Y-94486027D01*
X154327243Y-94486025D01*
X154143620Y-94449500D01*
X154143616Y-94449500D01*
X153956384Y-94449500D01*
X153956379Y-94449500D01*
X153772756Y-94486025D01*
X153772748Y-94486027D01*
X153599771Y-94557676D01*
X153599762Y-94557681D01*
X153444092Y-94661697D01*
X153444088Y-94661700D01*
X153311700Y-94794088D01*
X153311697Y-94794092D01*
X153207681Y-94949762D01*
X153207676Y-94949771D01*
X153136027Y-95122748D01*
X153136025Y-95122756D01*
X153099500Y-95306379D01*
X153099500Y-95493620D01*
X153136025Y-95677243D01*
X153136027Y-95677251D01*
X153207676Y-95850228D01*
X153207681Y-95850237D01*
X153311697Y-96005907D01*
X153311700Y-96005911D01*
X153444088Y-96138299D01*
X153444092Y-96138302D01*
X153483138Y-96164392D01*
X153527943Y-96218004D01*
X153536650Y-96287329D01*
X153506496Y-96350356D01*
X153447053Y-96387076D01*
X153441839Y-96388385D01*
X153356711Y-96407814D01*
X153356699Y-96407818D01*
X153107522Y-96495004D01*
X152869660Y-96609550D01*
X152646121Y-96750005D01*
X152439718Y-96914602D01*
X152385567Y-96968752D01*
X152324243Y-97002236D01*
X152254551Y-96997250D01*
X152250482Y-96995649D01*
X152227251Y-96986027D01*
X152227244Y-96986025D01*
X152227243Y-96986025D01*
X152227243Y-96986024D01*
X152043620Y-96949500D01*
X152043616Y-96949500D01*
X151856384Y-96949500D01*
X151856379Y-96949500D01*
X151672756Y-96986025D01*
X151672748Y-96986027D01*
X151499771Y-97057676D01*
X151499762Y-97057681D01*
X151344092Y-97161697D01*
X151344088Y-97161700D01*
X151211700Y-97294088D01*
X151211697Y-97294092D01*
X151107681Y-97449762D01*
X151107676Y-97449771D01*
X151036027Y-97622748D01*
X151036025Y-97622756D01*
X150999500Y-97806379D01*
X150999500Y-97993620D01*
X151036025Y-98177243D01*
X151036027Y-98177251D01*
X151107676Y-98350228D01*
X151107681Y-98350237D01*
X151211697Y-98505907D01*
X151211700Y-98505911D01*
X151344088Y-98638299D01*
X151344092Y-98638302D01*
X151499762Y-98742318D01*
X151499771Y-98742323D01*
X151546100Y-98761513D01*
X151558005Y-98771107D01*
X151572365Y-98776366D01*
X151584658Y-98792585D01*
X151600503Y-98805354D01*
X151605331Y-98819861D01*
X151614569Y-98832049D01*
X151616141Y-98852340D01*
X151622568Y-98871648D01*
X151618786Y-98886464D01*
X151619968Y-98901710D01*
X151610321Y-98919628D01*
X151605289Y-98939347D01*
X151594097Y-98949767D01*
X151586849Y-98963231D01*
X151569047Y-98973089D01*
X151554152Y-98986958D01*
X151538178Y-98990184D01*
X151525726Y-98997081D01*
X151490538Y-98999809D01*
X151431227Y-98995922D01*
X151415147Y-98993805D01*
X151219468Y-98954885D01*
X151203800Y-98950687D01*
X151014879Y-98886559D01*
X150999894Y-98880352D01*
X150820955Y-98792112D01*
X150806907Y-98784002D01*
X150804506Y-98782398D01*
X150706927Y-98717199D01*
X150641018Y-98673161D01*
X150628150Y-98663287D01*
X150475297Y-98529241D01*
X150469374Y-98523693D01*
X150281249Y-98335568D01*
X150247764Y-98274245D01*
X150252748Y-98204553D01*
X150254351Y-98200478D01*
X150263973Y-98177251D01*
X150300500Y-97993616D01*
X150300500Y-97806384D01*
X150263973Y-97622749D01*
X150192322Y-97449769D01*
X150192321Y-97449768D01*
X150192318Y-97449762D01*
X150088302Y-97294092D01*
X150088299Y-97294088D01*
X149955911Y-97161700D01*
X149950930Y-97158372D01*
X149906126Y-97104759D01*
X149897419Y-97035434D01*
X149927574Y-96972407D01*
X149987018Y-96935688D01*
X149992223Y-96934380D01*
X150133295Y-96902184D01*
X150382483Y-96814993D01*
X150620341Y-96700449D01*
X150843879Y-96559994D01*
X151050286Y-96395394D01*
X151104729Y-96340949D01*
X151110996Y-96334683D01*
X151110999Y-96334683D01*
X151114442Y-96331239D01*
X151149310Y-96312205D01*
X151175751Y-96297766D01*
X151175758Y-96297766D01*
X151175767Y-96297762D01*
X151215283Y-96300592D01*
X151245443Y-96302748D01*
X151245458Y-96302753D01*
X151245460Y-96302754D01*
X151249552Y-96304364D01*
X151272749Y-96313973D01*
X151449210Y-96349073D01*
X151456379Y-96350499D01*
X151456383Y-96350500D01*
X151456384Y-96350500D01*
X151643617Y-96350500D01*
X151643618Y-96350499D01*
X151827251Y-96313973D01*
X152000231Y-96242322D01*
X152155908Y-96138302D01*
X152288302Y-96005908D01*
X152392322Y-95850231D01*
X152463973Y-95677251D01*
X152500500Y-95493616D01*
X152500500Y-95306384D01*
X152463973Y-95122749D01*
X152392322Y-94949769D01*
X152392321Y-94949768D01*
X152392318Y-94949762D01*
X152288302Y-94794092D01*
X152288299Y-94794088D01*
X152155911Y-94661700D01*
X152155907Y-94661697D01*
X152000237Y-94557681D01*
X152000228Y-94557676D01*
X151827251Y-94486027D01*
X151827243Y-94486025D01*
X151643620Y-94449500D01*
X151643616Y-94449500D01*
X151456384Y-94449500D01*
X151456379Y-94449500D01*
X151272756Y-94486025D01*
X151272748Y-94486027D01*
X151099771Y-94557676D01*
X151099762Y-94557681D01*
X150944092Y-94661697D01*
X150944088Y-94661700D01*
X150811700Y-94794088D01*
X150811697Y-94794092D01*
X150707681Y-94949762D01*
X150707676Y-94949771D01*
X150636027Y-95122748D01*
X150636025Y-95122756D01*
X150599500Y-95306379D01*
X150599500Y-95493620D01*
X150636024Y-95677243D01*
X150636027Y-95677252D01*
X150644431Y-95697541D01*
X150646988Y-95721332D01*
X150653867Y-95744254D01*
X150650654Y-95755440D01*
X150651898Y-95767011D01*
X150641186Y-95788408D01*
X150634581Y-95811410D01*
X150622761Y-95825214D01*
X150620622Y-95829489D01*
X150611627Y-95838220D01*
X150491838Y-95943270D01*
X150478970Y-95953144D01*
X150354140Y-96036551D01*
X150287462Y-96057428D01*
X150220082Y-96038943D01*
X150173393Y-95986963D01*
X150162217Y-95917993D01*
X150182150Y-95864554D01*
X150191876Y-95849998D01*
X150191880Y-95849991D01*
X150263491Y-95677105D01*
X150263493Y-95677097D01*
X150299999Y-95493571D01*
X150300000Y-95493569D01*
X150300000Y-95306430D01*
X150299999Y-95306428D01*
X150263493Y-95122902D01*
X150263491Y-95122894D01*
X150191880Y-94950008D01*
X150105718Y-94821057D01*
X149744127Y-95182647D01*
X149710090Y-95123694D01*
X149626306Y-95039910D01*
X149567350Y-95005872D01*
X149928940Y-94644281D01*
X149928940Y-94644280D01*
X149799999Y-94558124D01*
X149799991Y-94558119D01*
X149627105Y-94486508D01*
X149627097Y-94486506D01*
X149443570Y-94450000D01*
X149256430Y-94450000D01*
X149072902Y-94486506D01*
X149072894Y-94486508D01*
X148900003Y-94558121D01*
X148771058Y-94644279D01*
X148771058Y-94644281D01*
X149132649Y-95005872D01*
X149073694Y-95039910D01*
X148989910Y-95123694D01*
X148955872Y-95182649D01*
X148594281Y-94821058D01*
X148594279Y-94821058D01*
X148508121Y-94950003D01*
X148436508Y-95122894D01*
X148436506Y-95122899D01*
X148421871Y-95196474D01*
X148389485Y-95258384D01*
X148328769Y-95292958D01*
X148258999Y-95289217D01*
X148202328Y-95248350D01*
X148178637Y-95196475D01*
X148163973Y-95122749D01*
X148092322Y-94949769D01*
X148092321Y-94949768D01*
X148092318Y-94949762D01*
X147988302Y-94794092D01*
X147988299Y-94794088D01*
X147855911Y-94661700D01*
X147855907Y-94661697D01*
X147700237Y-94557681D01*
X147700228Y-94557676D01*
X147527251Y-94486027D01*
X147527243Y-94486025D01*
X147343620Y-94449500D01*
X147343616Y-94449500D01*
X147156384Y-94449500D01*
X147150293Y-94449500D01*
X147150293Y-94448269D01*
X147087997Y-94436449D01*
X147037292Y-94388379D01*
X147020500Y-94326070D01*
X147020500Y-91004725D01*
X147040185Y-90937686D01*
X147092989Y-90891931D01*
X147097048Y-90890164D01*
X147167594Y-90860943D01*
X147167595Y-90860942D01*
X147167598Y-90860941D01*
X147339655Y-90745977D01*
X147485977Y-90599655D01*
X147600941Y-90427598D01*
X147680130Y-90236420D01*
X147720500Y-90033465D01*
X147720500Y-89843389D01*
X149569500Y-89843389D01*
X149569500Y-90016611D01*
X149596598Y-90187701D01*
X149650127Y-90352445D01*
X149728768Y-90506788D01*
X149830586Y-90646928D01*
X149953072Y-90769414D01*
X150093212Y-90871232D01*
X150247555Y-90949873D01*
X150412299Y-91003402D01*
X150583389Y-91030500D01*
X150583390Y-91030500D01*
X150756610Y-91030500D01*
X150756611Y-91030500D01*
X150927701Y-91003402D01*
X151092445Y-90949873D01*
X151246788Y-90871232D01*
X151386928Y-90769414D01*
X151509414Y-90646928D01*
X151611232Y-90506788D01*
X151689873Y-90352445D01*
X151743402Y-90187701D01*
X151770500Y-90016611D01*
X151770500Y-89843389D01*
X151764420Y-89804999D01*
X153624292Y-89804999D01*
X153624292Y-89805000D01*
X154134092Y-89805000D01*
X154120000Y-89857591D01*
X154120000Y-90002409D01*
X154134092Y-90055000D01*
X153624292Y-90055000D01*
X153660348Y-90236266D01*
X153660350Y-90236274D01*
X153739500Y-90427358D01*
X153739505Y-90427368D01*
X153854410Y-90599335D01*
X153854413Y-90599339D01*
X154000660Y-90745586D01*
X154000664Y-90745589D01*
X154172631Y-90860494D01*
X154172641Y-90860499D01*
X154363723Y-90939648D01*
X154363725Y-90939649D01*
X154545000Y-90975705D01*
X154545000Y-90465908D01*
X154597591Y-90480000D01*
X154742409Y-90480000D01*
X154795000Y-90465908D01*
X154795000Y-90975705D01*
X154976274Y-90939649D01*
X154976276Y-90939648D01*
X155167358Y-90860499D01*
X155167368Y-90860494D01*
X155339335Y-90745589D01*
X155339339Y-90745586D01*
X155485586Y-90599339D01*
X155485589Y-90599335D01*
X155600494Y-90427368D01*
X155600499Y-90427358D01*
X155679649Y-90236274D01*
X155679651Y-90236266D01*
X155715707Y-90055000D01*
X155205908Y-90055000D01*
X155220000Y-90002409D01*
X155220000Y-89857591D01*
X155216195Y-89843389D01*
X157569500Y-89843389D01*
X157569500Y-90016611D01*
X157596598Y-90187701D01*
X157650127Y-90352445D01*
X157728768Y-90506788D01*
X157830586Y-90646928D01*
X157953072Y-90769414D01*
X158093212Y-90871232D01*
X158247555Y-90949873D01*
X158412299Y-91003402D01*
X158583389Y-91030500D01*
X158583390Y-91030500D01*
X158756610Y-91030500D01*
X158756611Y-91030500D01*
X158927701Y-91003402D01*
X159092445Y-90949873D01*
X159246788Y-90871232D01*
X159386928Y-90769414D01*
X159509414Y-90646928D01*
X159611232Y-90506788D01*
X159689873Y-90352445D01*
X159743402Y-90187701D01*
X159770500Y-90016611D01*
X159770500Y-89843389D01*
X159743402Y-89672299D01*
X159689873Y-89507555D01*
X159611232Y-89353212D01*
X159509414Y-89213072D01*
X159386928Y-89090586D01*
X159246788Y-88988768D01*
X159092445Y-88910127D01*
X158927701Y-88856598D01*
X158927699Y-88856597D01*
X158927698Y-88856597D01*
X158796271Y-88835781D01*
X158756611Y-88829500D01*
X158583389Y-88829500D01*
X158543728Y-88835781D01*
X158412302Y-88856597D01*
X158247552Y-88910128D01*
X158093211Y-88988768D01*
X158013256Y-89046859D01*
X157953072Y-89090586D01*
X157953070Y-89090588D01*
X157953069Y-89090588D01*
X157830588Y-89213069D01*
X157830588Y-89213070D01*
X157830586Y-89213072D01*
X157796242Y-89260342D01*
X157728768Y-89353211D01*
X157650128Y-89507552D01*
X157596597Y-89672302D01*
X157589406Y-89717708D01*
X157569500Y-89843389D01*
X155216195Y-89843389D01*
X155205908Y-89805000D01*
X155715707Y-89805000D01*
X155679651Y-89623733D01*
X155679649Y-89623725D01*
X155600499Y-89432641D01*
X155600494Y-89432631D01*
X155485589Y-89260664D01*
X155485586Y-89260660D01*
X155339339Y-89114413D01*
X155339335Y-89114410D01*
X155167368Y-88999505D01*
X155167358Y-88999500D01*
X154976274Y-88920350D01*
X154976266Y-88920348D01*
X154795000Y-88884292D01*
X154795000Y-89394091D01*
X154742409Y-89380000D01*
X154597591Y-89380000D01*
X154545000Y-89394091D01*
X154545000Y-88884292D01*
X154544999Y-88884292D01*
X154363733Y-88920348D01*
X154363725Y-88920350D01*
X154172641Y-88999500D01*
X154172631Y-88999505D01*
X154000664Y-89114410D01*
X154000660Y-89114413D01*
X153854413Y-89260660D01*
X153854410Y-89260664D01*
X153739505Y-89432631D01*
X153739500Y-89432641D01*
X153660350Y-89623725D01*
X153660348Y-89623733D01*
X153624292Y-89804999D01*
X151764420Y-89804999D01*
X151743402Y-89672299D01*
X151689873Y-89507555D01*
X151611232Y-89353212D01*
X151509414Y-89213072D01*
X151386928Y-89090586D01*
X151246788Y-88988768D01*
X151092445Y-88910127D01*
X150927701Y-88856598D01*
X150927699Y-88856597D01*
X150927698Y-88856597D01*
X150796271Y-88835781D01*
X150756611Y-88829500D01*
X150583389Y-88829500D01*
X150543728Y-88835781D01*
X150412302Y-88856597D01*
X150247552Y-88910128D01*
X150093211Y-88988768D01*
X150013256Y-89046859D01*
X149953072Y-89090586D01*
X149953070Y-89090588D01*
X149953069Y-89090588D01*
X149830588Y-89213069D01*
X149830588Y-89213070D01*
X149830586Y-89213072D01*
X149796242Y-89260342D01*
X149728768Y-89353211D01*
X149650128Y-89507552D01*
X149596597Y-89672302D01*
X149589406Y-89717708D01*
X149569500Y-89843389D01*
X147720500Y-89843389D01*
X147720500Y-89826535D01*
X147680130Y-89623580D01*
X147600941Y-89432402D01*
X147485977Y-89260345D01*
X147485975Y-89260342D01*
X147339657Y-89114024D01*
X147168258Y-88999500D01*
X147167598Y-88999059D01*
X147142753Y-88988768D01*
X146976420Y-88919870D01*
X146976412Y-88919868D01*
X146773469Y-88879500D01*
X146773465Y-88879500D01*
X146566535Y-88879500D01*
X146566530Y-88879500D01*
X146363587Y-88919868D01*
X146363579Y-88919870D01*
X146172403Y-88999058D01*
X146000342Y-89114024D01*
X145854024Y-89260342D01*
X145739058Y-89432403D01*
X145659870Y-89623579D01*
X145659868Y-89623587D01*
X145619500Y-89826530D01*
X145619500Y-90033469D01*
X145659868Y-90236412D01*
X145659870Y-90236420D01*
X145739058Y-90427596D01*
X145854024Y-90599657D01*
X146000342Y-90745975D01*
X146000345Y-90745977D01*
X146171740Y-90860499D01*
X146172405Y-90860943D01*
X146242952Y-90890164D01*
X146297356Y-90934005D01*
X146319421Y-91000299D01*
X146319500Y-91004725D01*
X146319500Y-94459245D01*
X146319508Y-94459378D01*
X146319508Y-94494299D01*
X146342611Y-94669803D01*
X146342615Y-94669822D01*
X146388429Y-94840811D01*
X146400964Y-94871076D01*
X146408431Y-94940546D01*
X146400963Y-94965978D01*
X146336028Y-95122744D01*
X146336025Y-95122756D01*
X146299500Y-95306379D01*
X146299500Y-95493620D01*
X146336025Y-95677243D01*
X146336027Y-95677251D01*
X146407676Y-95850228D01*
X146407681Y-95850237D01*
X146508255Y-96000756D01*
X146517211Y-96029359D01*
X146528519Y-96057124D01*
X146527542Y-96062355D01*
X146529133Y-96067434D01*
X146521202Y-96096341D01*
X146515705Y-96125809D01*
X146512055Y-96129682D01*
X146510648Y-96134814D01*
X146488347Y-96154845D01*
X146467792Y-96176663D01*
X146462628Y-96177948D01*
X146458670Y-96181504D01*
X146429084Y-96186298D01*
X146399991Y-96193540D01*
X146392740Y-96192187D01*
X146389700Y-96192680D01*
X146365296Y-96187067D01*
X146304879Y-96166559D01*
X146289894Y-96160352D01*
X146110955Y-96072112D01*
X146096907Y-96064002D01*
X145931018Y-95953161D01*
X145918150Y-95943287D01*
X145765305Y-95809248D01*
X145759382Y-95803700D01*
X143506508Y-93550826D01*
X143500970Y-93544914D01*
X143366728Y-93391837D01*
X143356855Y-93378970D01*
X143246015Y-93213083D01*
X143237905Y-93199035D01*
X143149666Y-93020098D01*
X143143459Y-93005113D01*
X143142613Y-93002622D01*
X143079329Y-92816185D01*
X143075136Y-92800539D01*
X143036213Y-92604843D01*
X143034098Y-92588777D01*
X143020764Y-92385306D01*
X143020500Y-92377218D01*
X143020501Y-92326064D01*
X143020500Y-92326060D01*
X143020500Y-91004725D01*
X143040185Y-90937686D01*
X143092989Y-90891931D01*
X143097048Y-90890164D01*
X143167594Y-90860943D01*
X143167595Y-90860942D01*
X143167598Y-90860941D01*
X143339655Y-90745977D01*
X143485977Y-90599655D01*
X143600941Y-90427598D01*
X143680130Y-90236420D01*
X143720500Y-90033465D01*
X143720500Y-89826535D01*
X143680130Y-89623580D01*
X143600941Y-89432402D01*
X143485977Y-89260345D01*
X143485975Y-89260342D01*
X143339657Y-89114024D01*
X143168258Y-88999500D01*
X143167598Y-88999059D01*
X143142753Y-88988768D01*
X142976420Y-88919870D01*
X142976412Y-88919868D01*
X142773469Y-88879500D01*
X142773465Y-88879500D01*
X142566535Y-88879500D01*
X142566530Y-88879500D01*
X142363587Y-88919868D01*
X142363579Y-88919870D01*
X142172403Y-88999058D01*
X142000342Y-89114024D01*
X141854024Y-89260342D01*
X141739058Y-89432403D01*
X141659870Y-89623579D01*
X141659868Y-89623587D01*
X141619500Y-89826530D01*
X139720499Y-89826530D01*
X139680130Y-89623580D01*
X139600941Y-89432402D01*
X139485977Y-89260345D01*
X139485975Y-89260342D01*
X139339657Y-89114024D01*
X139168258Y-88999500D01*
X139167598Y-88999059D01*
X139142753Y-88988768D01*
X138976420Y-88919870D01*
X138976412Y-88919868D01*
X138773469Y-88879500D01*
X138773465Y-88879500D01*
X138566535Y-88879500D01*
X138566530Y-88879500D01*
X138363587Y-88919868D01*
X138363579Y-88919870D01*
X138172403Y-88999058D01*
X138000342Y-89114024D01*
X137854024Y-89260342D01*
X137739058Y-89432403D01*
X137659870Y-89623579D01*
X137659868Y-89623587D01*
X137619500Y-89826530D01*
X135720499Y-89826530D01*
X135680130Y-89623580D01*
X135600941Y-89432402D01*
X135485977Y-89260345D01*
X135485975Y-89260342D01*
X135339657Y-89114024D01*
X135168258Y-88999500D01*
X135167598Y-88999059D01*
X135142753Y-88988768D01*
X134976420Y-88919870D01*
X134976412Y-88919868D01*
X134773469Y-88879500D01*
X134773465Y-88879500D01*
X134566535Y-88879500D01*
X134566530Y-88879500D01*
X134363587Y-88919868D01*
X134363579Y-88919870D01*
X134172403Y-88999058D01*
X134000342Y-89114024D01*
X133854024Y-89260342D01*
X133739058Y-89432403D01*
X133659870Y-89623579D01*
X133659868Y-89623587D01*
X133619500Y-89826530D01*
X131370500Y-89826530D01*
X131370500Y-87954500D01*
X131390185Y-87887461D01*
X131442989Y-87841706D01*
X131494500Y-87830500D01*
X169845500Y-87830500D01*
X169912539Y-87850185D01*
G37*
%TD.AperFunction*%
%TD*%
M02*
